<?xml version="1.0" encoding="UTF-8" standalone="no"?>
<!DOCTYPE svg PUBLIC "-//W3C//DTD SVG 1.1//EN" "http://www.w3.org/Graphics/SVG/1.1/DTD/svg11.dtd">
<svg width="100%" height="100%" viewBox="0 0 2500 2750" version="1.1" xmlns="http://www.w3.org/2000/svg" xmlns:xlink="http://www.w3.org/1999/xlink" xml:space="preserve" xmlns:serif="http://www.serif.com/" style="fill-rule:evenodd;clip-rule:evenodd;stroke-linejoin:round;stroke-miterlimit:2;">
    <g>
        <g transform="matrix(62.5,0,0,62.5,-250,-125)">
            <path d="M20.084,3.026L19.86,3.162C19.502,3.378 19.165,3.62 18.851,3.884L19.499,3.428L25,3.428L26,11L21,16L16,19.475L16,23.483C16,26.282 17.463,28.877 19.857,30.327L25.121,33.513L14,40L11.855,40L7.857,37.58C5.463,36.131 4,33.536 4,30.737L4,17.261C4,14.461 5.464,11.865 7.86,10.415L19.86,3.157C19.934,3.112 20.009,3.068 20.084,3.026Z" style="fill:url(#_Radial1);fill-rule:nonzero;"/>
        </g>
        <g transform="matrix(62.5,0,0,62.5,-250,-125)">
            <path d="M20.084,3.026L19.86,3.162C19.502,3.378 19.165,3.62 18.851,3.884L19.499,3.428L25,3.428L26,11L21,16L16,19.475L16,23.483C16,26.282 17.463,28.877 19.857,30.327L25.121,33.513L14,40L11.855,40L7.857,37.58C5.463,36.131 4,33.536 4,30.737L4,17.261C4,14.461 5.464,11.865 7.86,10.415L19.86,3.157C19.934,3.112 20.009,3.068 20.084,3.026Z" style="fill:url(#_Linear2);fill-rule:nonzero;"/>
        </g>
        <g transform="matrix(62.5,0,0,62.5,-250,-125)">
            <path d="M32,19L32,23.48C32,26.279 30.537,28.875 28.143,30.324L16.143,37.588C13.688,39.074 10.634,39.127 8.136,37.749L19.857,44.844C22.404,46.386 25.596,46.386 28.143,44.844L40.143,37.58C42.537,36.131 44,33.535 44,30.736L44,27.5L43,26L32,19Z" style="fill:url(#_Radial3);fill-rule:nonzero;"/>
        </g>
        <g transform="matrix(62.5,0,0,62.5,-250,-125)">
            <path d="M32,19L32,23.48C32,26.279 30.537,28.875 28.143,30.324L16.143,37.588C13.688,39.074 10.634,39.127 8.136,37.749L19.857,44.844C22.404,46.386 25.596,46.386 28.143,44.844L40.143,37.58C42.537,36.131 44,33.535 44,30.736L44,27.5L43,26L32,19Z" style="fill:url(#_Linear4);fill-rule:nonzero;"/>
        </g>
        <g transform="matrix(62.5,0,0,62.5,-250,-125)">
            <path d="M40.141,10.415L28.141,3.157C25.674,1.665 22.602,1.618 20.098,3.018L19.86,3.162C17.464,4.611 16,7.208 16,10.008L16,19.491L19.86,17.157C22.405,15.617 25.595,15.617 28.141,17.157L40.141,24.415C42.461,25.819 43.908,28.299 43.996,30.999C43.999,30.911 44,30.824 44,30.736L44,17.261C44,14.461 42.536,11.864 40.141,10.415Z" style="fill:url(#_Radial5);fill-rule:nonzero;"/>
        </g>
        <g transform="matrix(62.5,0,0,62.5,-250,-125)">
            <path d="M40.141,10.415L28.141,3.157C25.674,1.665 22.602,1.618 20.098,3.018L19.86,3.162C17.464,4.611 16,7.208 16,10.008L16,19.491L19.86,17.157C22.405,15.617 25.595,15.617 28.141,17.157L40.141,24.415C42.461,25.819 43.908,28.299 43.996,30.999C43.999,30.911 44,30.824 44,30.736L44,17.261C44,14.461 42.536,11.864 40.141,10.415Z" style="fill:url(#_Linear6);fill-rule:nonzero;"/>
        </g>
    </g>
    <defs>
        <radialGradient id="_Radial1" cx="0" cy="0" r="1" gradientUnits="userSpaceOnUse" gradientTransform="matrix(-11.7002,31.247,-54.5012,-20.4075,17.4186,10.6383)"><stop offset="0" style="stop-color:rgb(174,127,226);stop-opacity:1"/><stop offset="0.06" style="stop-color:rgb(174,127,226);stop-opacity:1"/><stop offset="1" style="stop-color:rgb(0,120,212);stop-opacity:1"/></radialGradient>
        <linearGradient id="_Linear2" x1="0" y1="0" x2="1" y2="0" gradientUnits="userSpaceOnUse" gradientTransform="matrix(-4.7606,-8.2338,8.2338,-4.7606,17.5119,37.8685)"><stop offset="0" style="stop-color:rgb(17,74,139);stop-opacity:1"/><stop offset="1" style="stop-color:rgb(0,120,212);stop-opacity:0"/></linearGradient>
        <radialGradient id="_Radial3" cx="0" cy="0" r="1" gradientUnits="userSpaceOnUse" gradientTransform="matrix(30.7198,-4.51832,2.98465,20.2925,10.4299,36.3511)"><stop offset="0" style="stop-color:rgb(213,157,255);stop-opacity:1"/><stop offset="0.13" style="stop-color:rgb(213,157,255);stop-opacity:1"/><stop offset="1" style="stop-color:rgb(94,67,143);stop-opacity:1"/></radialGradient>
        <linearGradient id="_Linear4" x1="0" y1="0" x2="1" y2="0" gradientUnits="userSpaceOnUse" gradientTransform="matrix(-5.1014,7.3148,-7.3148,-5.1014,40.3566,25.3768)"><stop offset="0" style="stop-color:rgb(73,52,116);stop-opacity:1"/><stop offset="1" style="stop-color:rgb(140,102,186);stop-opacity:0"/></linearGradient>
        <radialGradient id="_Radial5" cx="0" cy="0" r="1" gradientUnits="userSpaceOnUse" gradientTransform="matrix(-24.1583,-6.12555,10.3118,-40.6682,41.0552,26.504)"><stop offset="0" style="stop-color:rgb(80,230,255);stop-opacity:1"/><stop offset="0.06" style="stop-color:rgb(80,230,255);stop-opacity:1"/><stop offset="1" style="stop-color:rgb(67,109,205);stop-opacity:1"/></radialGradient>
        <linearGradient id="_Linear6" x1="0" y1="0" x2="1" y2="0" gradientUnits="userSpaceOnUse" gradientTransform="matrix(7.511,0,0,7.511,16.9758,3.05655)"><stop offset="0" style="stop-color:rgb(45,63,128);stop-opacity:1"/><stop offset="1" style="stop-color:rgb(67,109,205);stop-opacity:0"/></linearGradient>
    </defs>
</svg>
