<?xml version="1.0" encoding="UTF-8" standalone="no"?>
<!DOCTYPE svg PUBLIC "-//W3C//DTD SVG 1.1//EN" "http://www.w3.org/Graphics/SVG/1.1/DTD/svg11.dtd">
<svg width="100%" height="100%" viewBox="0 0 2500 2652" version="1.1" xmlns="http://www.w3.org/2000/svg" xmlns:xlink="http://www.w3.org/1999/xlink" xml:space="preserve" xmlns:serif="http://www.serif.com/" style="fill-rule:evenodd;clip-rule:evenodd;stroke-linejoin:round;stroke-miterlimit:2;">
    <g transform="matrix(5.9791,0,0,5.9791,-663.313,-109.181)">
        <g transform="matrix(1,0,0,1,336.732,232.608)">
            <path d="M0,-115.689C-0.466,-114.46 -0.851,-113.192 -0.921,-111.87C-6.484,-88.356 -12.059,-64.84 -17.508,-41.299C-5.688,-41.277 6.132,-41.31 17.951,-41.293C12.399,-64.607 6.662,-87.873 1.1,-111.182C0.84,-112.71 0.455,-114.21 0,-115.689M-28.737,-144.193C-9.513,-144.198 9.718,-144.252 28.942,-144.166C46.217,-86.584 63.687,-29.062 80.972,28.515C66.303,28.498 51.634,28.563 36.965,28.482C33.606,16.397 30.172,4.333 26.808,-7.746C26.526,-8.255 26.688,-9.463 25.768,-9.187C8.699,-9.22 -8.375,-9.198 -25.443,-9.198C-28.656,3.353 -31.911,15.894 -35.026,28.472C-49.386,28.563 -63.747,28.531 -78.107,28.487C-61.628,-29.067 -45.161,-86.627 -28.737,-144.193" style="fill:white;fill-rule:nonzero;"/>
        </g>
        <g>
            <g transform="matrix(1,0,0,1,258.236,421.745)">
                <path d="M0,-56.254C5.335,-61.026 12.762,-62.685 19.761,-62.506C26.212,-62.413 33.103,-60.956 37.951,-56.422C42.057,-52.679 43.888,-47.051 44.034,-41.612C39.001,-41.596 33.975,-41.602 28.942,-41.612C28.748,-44.852 27.344,-48.367 24.187,-49.743C20.059,-51.509 14.544,-51.07 11.478,-47.517C9.544,-45.231 8.932,-42.144 8.916,-39.224C8.873,-32.192 8.911,-25.161 8.895,-18.13C8.883,-15.232 9.144,-12.171 10.752,-9.674C12.302,-7.145 15.232,-5.715 18.141,-5.568C21.077,-5.39 24.36,-5.882 26.5,-8.093C28.352,-10.016 28.839,-12.773 29.051,-15.335C34.143,-15.318 39.24,-15.357 44.332,-15.314C43.947,-9.674 42.241,-3.77 37.978,0.18C32.989,4.876 25.849,6.203 19.219,6.246C12.139,6.431 4.669,4.432 -0.499,-0.622C-5.222,-5.118 -7.497,-11.7 -7.595,-18.13C-7.622,-24.793 -7.611,-31.461 -7.6,-38.124C-7.514,-44.819 -5.141,-51.758 0,-56.254" style="fill:white;fill-rule:nonzero;"/>
            </g>
            <g transform="matrix(1,0,0,1,336.158,415.549)">
                <path d="M0,-43.872C-2.28,-34.495 -4.421,-25.08 -6.652,-15.693C-2.178,-15.687 2.302,-15.677 6.776,-15.698C4.522,-25.092 2.215,-34.468 0,-43.872M-10.926,-54.673C-3.63,-54.695 3.667,-54.706 10.969,-54.673C17.502,-32.832 24.116,-11.013 30.67,10.823C25.102,10.828 19.533,10.828 13.97,10.823C12.648,6.04 11.294,1.268 9.962,-3.511C3.429,-3.511 -3.109,-3.532 -9.643,-3.505C-10.872,1.268 -12.063,6.051 -13.293,10.823C-18.732,10.823 -24.165,10.834 -29.598,10.817C-23.401,-11.018 -17.112,-32.832 -10.926,-54.673" style="fill:white;fill-rule:nonzero;"/>
            </g>
            <g transform="matrix(1,0,0,1,391.183,414.2)">
                <path d="M0,-41.581C0.012,-27.589 -0.011,-13.592 0.012,0.4C3.857,0.314 7.893,0.817 11.544,-0.683C14.556,-1.837 16.668,-4.621 17.524,-7.665C19.014,-13.007 18.256,-18.624 18.445,-24.095C18.45,-29.143 18.743,-35.08 14.815,-38.904C10.796,-42.588 4.957,-41.348 0,-41.581M-16.375,-53.33C-10.909,-53.352 -5.443,-53.335 0.022,-53.341C6.159,-53.292 12.47,-53.769 18.396,-51.797C24.875,-49.895 30.454,-45.02 32.838,-38.65C35.698,-31.619 34.604,-23.911 34.826,-16.527C35.064,-9.22 33.325,-1.414 28.108,3.986C22.605,9.837 14.312,11.998 6.517,12.16C-1.115,12.188 -8.742,12.177 -16.375,12.166C-16.369,-9.664 -16.364,-31.5 -16.375,-53.33" style="fill:white;fill-rule:nonzero;"/>
            </g>
        </g>
        <g transform="matrix(1,0,0,1,161.917,360.989)">
            <path d="M0,-332.88C5.525,-336.141 10.937,-339.608 16.543,-342.728C16.565,-238.745 16.521,-134.767 16.565,-30.784C7.545,-25.367 -1.446,-19.896 -10.482,-14.506C-11.793,-13.769 -13.022,-12.897 -14.268,-12.052C-26.619,-4.983 -38.65,2.644 -50.925,9.848C-51.033,-94.134 -50.925,-198.118 -50.979,-302.096C-34.045,-312.447 -16.977,-322.588 0,-332.88" style="fill:rgb(232,89,132);fill-rule:nonzero;"/>
        </g>
        <g transform="matrix(-0.998595,-0.052997,-0.052997,0.998595,336.792,121.428)">
            <path d="M0.298,-4.499C-0.234,-3.046 -0.698,-1.569 -1.039,-0.057C-0.601,-0.63 -0.154,-1.192 0.298,-1.744C0.48,-1.468 0.84,-0.912 1.016,-0.637C1.016,-1.96 0.699,-3.247 0.298,-4.499" style="fill:rgb(232,89,132);fill-rule:nonzero;"/>
        </g>
        <g transform="matrix(1,0,0,1,307.996,260.185)">
            <path d="M0,-171.77C-16.424,-114.205 -32.892,-56.645 -49.37,0.91C-35.01,0.954 -20.649,0.986 -6.289,0.895C-3.174,-11.684 0.081,-24.224 3.293,-36.775C20.362,-36.775 37.436,-36.797 54.504,-36.764C55.425,-37.041 55.263,-35.833 55.544,-35.323C58.909,-23.244 62.343,-11.18 65.702,0.905C80.371,0.986 95.04,0.921 109.708,0.938C92.423,-56.639 74.954,-114.161 57.679,-171.743C38.455,-171.83 19.224,-171.775 0,-171.77M-129.535,-241.925C-86.064,-241.746 -42.583,-241.897 0.888,-241.849L165.525,-241.849C168.433,-241.833 171.423,-242.028 174.235,-241.096C183.378,-238.485 190.237,-229.574 190.296,-220.046C190.345,-204.261 190.318,-188.476 190.312,-172.691C190.307,-92.401 190.28,-12.112 190.324,68.178C190.22,68.812 190.599,70.258 189.446,70.009C83.127,70.03 -23.19,70.014 -129.513,70.02C-129.557,-33.964 -129.513,-137.941 -129.535,-241.925" style="fill:rgb(229,16,80);fill-rule:nonzero;"/>
        </g>
        <g transform="matrix(1,0,0,1,336.586,191.332)">
            <path d="M0,-71.661C0.423,-71.087 0.84,-70.502 1.246,-69.906C6.809,-46.597 12.546,-23.331 18.098,-0.016C6.278,-0.033 -5.542,0 -17.361,-0.022C-11.912,-23.564 -6.338,-47.079 -0.774,-70.594C-0.585,-70.859 -0.195,-71.395 0,-71.661" style="fill:rgb(229,16,80);fill-rule:nonzero;"/>
        </g>
        <g transform="matrix(1,0,0,1,374.808,188.709)">
            <path d="M0,172.161C0.011,193.991 0.006,215.827 0,237.657C7.633,237.668 15.26,237.679 22.892,237.651C30.687,237.489 38.98,235.328 44.483,229.477C49.7,224.077 51.439,216.271 51.201,208.964C50.979,201.58 52.073,193.872 49.213,186.841C46.829,180.471 41.25,175.596 34.771,173.694C28.845,171.723 22.534,172.199 16.397,172.15C10.932,172.156 5.466,172.14 0,172.161M-49.575,172.167C-55.762,194.008 -62.051,215.821 -68.248,237.657C-62.814,237.674 -57.381,237.663 -51.942,237.663C-50.713,232.89 -49.521,228.107 -48.292,223.335C-41.759,223.307 -35.221,223.329 -28.687,223.329C-27.355,228.107 -26.001,232.88 -24.68,237.663C-19.116,237.668 -13.548,237.668 -7.979,237.663C-14.533,215.827 -21.147,194.008 -27.681,172.167C-34.982,172.134 -42.279,172.144 -49.575,172.167M-116.572,176.782C-121.713,181.278 -124.085,188.217 -124.172,194.912C-124.183,201.575 -124.194,208.243 -124.167,214.906C-124.069,221.336 -121.794,227.918 -117.07,232.414C-111.903,237.468 -104.433,239.467 -97.353,239.282C-90.723,239.239 -83.583,237.912 -78.594,233.216C-74.331,229.266 -72.625,223.362 -72.24,217.723C-77.332,217.68 -82.429,217.718 -87.521,217.701C-87.732,220.264 -88.22,223.02 -90.072,224.943C-92.212,227.154 -95.495,227.646 -98.431,227.468C-101.34,227.321 -104.27,225.891 -105.819,223.362C-107.428,220.865 -107.688,217.805 -107.677,214.906C-107.661,207.875 -107.699,200.844 -107.656,193.812C-107.64,190.892 -107.027,187.806 -105.094,185.519C-102.027,181.966 -96.513,181.527 -92.385,183.293C-89.228,184.669 -87.824,188.184 -87.629,191.424C-82.597,191.434 -77.57,191.44 -72.538,191.424C-72.684,185.985 -74.515,180.357 -78.621,176.614C-83.469,172.08 -90.359,170.623 -96.811,170.53C-103.81,170.351 -111.236,172.01 -116.572,176.782M123.5,-101.214C133.749,-101.214 143.992,-101.231 154.241,-101.209C154.258,23.537 154.258,148.283 154.241,273.024C35.887,273.014 -82.473,273.024 -200.827,273.018C-204.619,272.948 -208.562,273.392 -212.165,271.925C-220.761,268.956 -227.023,260.359 -227.104,251.254C-227.186,220.913 -227.077,190.568 -227.158,160.227C-225.913,159.383 -224.683,158.511 -223.372,157.773C-214.336,152.384 -205.345,146.913 -196.325,141.496C-90.002,141.49 16.315,141.507 122.634,141.485C123.787,141.734 123.408,140.288 123.512,139.654C123.468,59.364 123.495,-20.925 123.5,-101.214" style="fill:rgb(119,8,41);fill-rule:nonzero;"/>
        </g>
        <g transform="matrix(1,0,0,1,336.158,399.872)">
            <path d="M0,-28.195C2.215,-18.791 4.522,-9.415 6.776,-0.021C2.302,0 -2.178,-0.01 -6.652,-0.016C-4.421,-9.403 -2.28,-18.818 0,-28.195" style="fill:rgb(119,8,41);fill-rule:nonzero;"/>
        </g>
        <g transform="matrix(1,0,0,1,391.183,414.01)">
            <path d="M0,-41.391C4.957,-41.158 10.796,-42.398 14.815,-38.714C18.743,-34.89 18.45,-28.953 18.445,-23.905C18.256,-18.434 19.014,-12.817 17.524,-7.475C16.668,-4.431 14.556,-1.647 11.544,-0.493C7.893,1.007 3.857,0.504 0.012,0.59C-0.011,-13.402 0.012,-27.399 0,-41.391" style="fill:rgb(119,8,41);fill-rule:nonzero;"/>
        </g>
    </g>
</svg>
