<?xml version="1.0" encoding="UTF-8" standalone="no"?>
<!DOCTYPE svg PUBLIC "-//W3C//DTD SVG 1.1//EN" "http://www.w3.org/Graphics/SVG/1.1/DTD/svg11.dtd">
<svg width="100%" height="100%" viewBox="0 0 2600 815" version="1.1" xmlns="http://www.w3.org/2000/svg" xmlns:xlink="http://www.w3.org/1999/xlink" xml:space="preserve" xmlns:serif="http://www.serif.com/" style="fill-rule:evenodd;clip-rule:evenodd;stroke-linejoin:round;stroke-miterlimit:2;">
    <g id="_-e85984ff" serif:id="#e85984ff" transform="matrix(2.19545,0,0,2.19545,0.291487,0)">
        <g>
            <path d="M2.64,43.84C24.1,29.89 45.59,16.01 67,2C66.96,101.03 67.07,200.07 66.95,299.1C58.54,304.7 49.98,310.07 41.58,315.69C30.75,322.43 20.06,329.41 9.46,336.52C7.37,337.98 5.12,339.18 2.77,340.16C2.67,241.39 2.91,142.61 2.64,43.84Z" style="fill:rgb(223,88,132);fill-rule:nonzero;"/>
            <path d="M67,2C161.68,2.01 256.37,1.98 351.05,2.01C360.93,2.14 370.45,9.92 371.26,20.01C371.64,37.75 371.01,55.52 371.57,73.27C371.78,141.18 371.6,209.09 371.66,277C371.52,284.43 372.01,291.87 371.41,299.29C339.7,299.61 307.97,299.33 276.25,299.42C210.25,299.42 144.25,299.42 78.25,299.43C74.48,299.49 70.7,299.51 66.95,299.1C67.07,200.07 66.96,101.03 67,2M197.07,63.77C190.78,81.95 185.76,100.56 179.91,118.88C168.99,154.63 158.06,190.38 147.13,226.13C146.12,228.98 145.27,231.9 144.78,234.89C155.12,235.05 165.48,235.13 175.82,234.86C179.79,221.11 183.82,207.38 187.65,193.59C188.03,192.37 188.52,191.2 189,190.03C208.61,190.08 228.23,189.77 247.84,190.19C252.55,205.12 257.03,220.13 262.03,234.96C272.6,235.02 283.18,235.09 293.75,234.9C287.48,213.87 280.34,193.11 273.82,172.16C262.06,136.08 250.73,99.86 238.9,63.81C224.97,63.47 211,63.54 197.07,63.77Z" style="fill:rgb(229,16,80);fill-rule:nonzero;"/>
            <path d="M217.58,86C219.6,90.83 220.4,96.05 222.03,101.01C228.01,122.3 234.34,143.51 240.07,164.88C225.37,165.08 210.65,165.09 195.94,164.88C202.72,138.48 210.65,112.37 217.58,86Z" style="fill:rgb(229,16,80);fill-rule:nonzero;"/>
            <path d="M2.38,58C2.48,53.28 2.04,48.54 2.64,43.84C2.91,142.61 2.67,241.39 2.77,340.16L2.73,341.17C1.97,338.16 2.41,335.05 2.37,332C2.38,240.67 2.37,149.33 2.38,58Z" style="fill:rgb(35,31,32);fill-rule:nonzero;"/>
            <g>
                <path d="M897,102.97C906.04,96.04 917.69,92.86 929,93.27C942,92.91 955.11,97.57 964.95,106.07C961.5,110.21 958.18,114.55 954.11,118.1C947.41,113.86 940.08,110.01 931.98,109.75C922.95,108.73 912.99,112.01 907.74,119.73C904.3,125.13 902.23,131.52 902.32,137.96C902.38,149.65 902.39,161.35 902.32,173.04C902.22,179.89 904.59,186.8 908.92,192.11C914.19,197.85 922.34,200.07 929.94,199.37C939,199.4 947.4,195.61 955.01,191.03C958.34,195.01 961.3,199.33 963.95,203.8C954.7,210.65 943.61,215.14 932.07,215.85C918.97,216.81 904.74,214.27 894.61,205.36C885.39,197.39 881.07,184.97 881,173.01C880.98,161.67 881.02,150.34 880.98,139C881.04,125.54 886.21,111.48 897,102.97Z" style="fill:rgb(35,31,32);fill-rule:nonzero;"/>
                <path d="M532.14,95.95C541.07,95.24 550.05,95.79 559.01,95.63C560.55,95.44 562.11,96.12 562.28,97.83C570.35,122.75 578.26,147.72 586.36,172.62C590.47,186.44 595.62,199.96 599.27,213.91C591.94,214.01 584.58,214.23 577.26,213.78C574,203.64 570.79,193.47 567.6,183.3C560.75,182.63 553.86,183.16 547,183C540.13,183.15 533.25,182.63 526.41,183.3C523.73,193.51 520.66,203.61 517.8,213.77C510.57,214.22 503.31,214.05 496.07,213.87C507.95,174.52 520.01,135.22 532.14,95.95M546.4,111.95C541.27,129.86 536.44,147.87 531.37,165.8C541.53,165.44 551.7,165.74 561.87,165.64C561.26,161.12 559.7,156.81 558.48,152.44C555.28,141.01 552.03,129.59 548.86,118.15C548.26,116 547.82,113.73 546.4,111.95Z" style="fill:rgb(35,31,32);fill-rule:nonzero;"/>
                <path d="M1007.13,95.92C1016.74,95.34 1026.4,95.62 1036.03,95.78C1039.91,105.61 1042.68,115.86 1046.06,125.88C1055.06,153.88 1064.02,181.89 1073.08,209.87C1073.46,211.2 1073.79,212.54 1074.14,213.89C1066.8,214.06 1059.45,214.15 1052.11,213.85C1048.83,203.71 1045.55,193.56 1042.61,183.31C1028.91,182.78 1015.12,182.8 1001.42,183.3C998.6,193.48 995.53,203.59 992.77,213.79C985.54,214.2 978.28,214.07 971.06,213.85C981.06,180.38 991.45,147.03 1001.58,113.61C1003.53,107.74 1004.99,101.72 1007.13,95.92M1021.41,111.95C1016.21,129.81 1011.52,147.82 1006.24,165.66C1016.44,165.61 1026.64,165.68 1036.84,165.63C1036.22,161.11 1034.68,156.8 1033.47,152.43C1030.31,141.26 1027.07,130.11 1024.06,118.9C1023.37,116.52 1022.95,113.96 1021.41,111.95Z" style="fill:rgb(35,31,32);fill-rule:nonzero;"/>
                <path d="M1094.84,95.84C1107.88,95.33 1120.95,95.81 1134.01,95.61C1146.33,95.36 1159.47,98.69 1168.51,107.49C1176.82,116.09 1181.57,128.03 1181.4,140C1181.35,148.66 1181.34,157.33 1181.4,166C1182,179.28 1176.47,192.69 1166.91,201.88C1156.48,211.46 1141.77,214.44 1128,214.33C1116.95,214.14 1105.88,214.62 1094.85,214.09C1094.34,182.74 1094.78,151.36 1094.64,120C1094.76,111.95 1094.35,103.88 1094.84,95.84M1115.87,112.07C1115.4,126.37 1115.82,140.69 1115.68,155C1115.83,169.03 1115.37,183.08 1115.9,197.11C1121.25,197.51 1126.62,197.31 1131.98,197.39C1142,197.39 1152.43,192.1 1156.58,182.65C1161.24,173.8 1159.91,163.6 1159.99,154C1159.79,144.41 1161.28,134.18 1156.6,125.34C1153,116.99 1143.92,112.02 1135.04,111.97C1128.65,111.98 1122.26,111.92 1115.87,112.07Z" style="fill:rgb(35,31,32);fill-rule:nonzero;"/>
                <path d="M724.32,102.06C730.54,101.32 736.85,101.63 743.1,101.9C743.63,109.15 743.11,116.42 743.31,123.69C749.77,123.97 756.27,123.18 762.71,124.06C762.7,129.26 762.72,134.47 762.68,139.68C756.22,139.93 749.73,139.2 743.3,140.03C743.3,156.7 743.32,173.37 743.29,190.04C743.09,193.59 744.72,197.39 748.14,198.85C752.84,200.85 758.03,199.42 762.94,199.35C764.03,204.17 764.9,209.06 765.15,214C755.03,216.75 743.63,217.82 733.92,213.13C727.26,210.15 722.91,203.13 722.37,195.97C722.1,177.27 722.64,158.56 722.12,139.87C717.53,139.48 712.92,139.77 708.33,139.67C708.36,134.5 708.36,129.33 708.33,124.16C713.04,123.28 717.83,123.84 722.59,123.7C723.72,116.53 723.58,109.26 724.32,102.06Z" style="fill:rgb(35,31,32);fill-rule:nonzero;"/>
                <path d="M811.44,121.57C821.21,120.62 831.4,121.25 840.32,125.71C849.66,129.93 857.06,138.27 859.87,148.16C862.76,157.13 862.4,166.66 862.26,175.96C861.97,186.75 858.02,197.62 850.35,205.34C843.2,211.89 833.75,216.22 823.97,216.37C817.7,216.41 811.25,216.81 805.2,214.81C797.12,212.27 789.32,207.55 784.69,200.28C780.93,194.69 778.6,188.19 777.56,181.56C777,176.06 777.47,170.52 777.3,165.01C776.94,154.51 779.63,143.55 786.19,135.19C792.25,127.35 801.86,123.1 811.44,121.57M812.37,138.45C806.77,140.27 802.45,144.95 800.47,150.41C797.14,157.85 798.63,166.14 798.28,174.01C798.17,182.45 800.53,192.08 807.87,197.13C813.26,200.67 820.3,201.1 826.4,199.32C832.34,197.67 836.74,192.52 838.83,186.88C841.93,179.3 840.81,170.97 841.01,163C841.17,155.39 838.79,147.27 833.03,142.04C827.41,137.23 819.27,136.64 812.37,138.45Z" style="fill:rgb(35,31,32);fill-rule:nonzero;"/>
                <path d="M613.9,123.9C620.89,123.53 627.92,123.54 634.93,123.89C635.13,145.62 634.91,167.35 635.02,189.08C634.8,194 638.37,198.66 643.13,199.84C649.72,201.46 656.73,198.99 661.93,194.89C664.32,192.76 667.62,190.51 667.69,186.97C667.86,165.95 667.38,144.91 667.91,123.9C674.82,123.63 681.81,123.32 688.7,124.06C688.67,153.97 688.65,183.89 688.71,213.8C682.81,214.14 676.88,214.13 670.98,213.84C670.37,210.9 669.93,207.93 669.52,204.96C666.1,206.99 663.38,210.01 659.83,211.84C650,217.24 637.4,217.88 627.4,212.56C618.74,208.2 613.48,198.57 613.69,188.99C613.83,167.29 613.4,145.58 613.9,123.9Z" style="fill:rgb(35,31,32);fill-rule:nonzero;"/>
            </g>
            <path d="M197.07,63.77C211,63.54 224.97,63.47 238.9,63.81C250.73,99.86 262.06,136.08 273.82,172.16C280.34,193.11 287.48,213.87 293.75,234.9C283.18,235.09 272.6,235.02 262.03,234.96C257.03,220.13 252.55,205.12 247.84,190.19C228.23,189.77 208.61,190.08 189,190.03C188.52,191.2 188.03,192.37 187.65,193.59C183.82,207.38 179.79,221.11 175.82,234.86C165.48,235.13 155.12,235.05 144.78,234.89C145.27,231.9 146.12,228.98 147.13,226.13C158.06,190.38 168.99,154.63 179.91,118.88C185.76,100.56 190.78,81.95 197.07,63.77M217.58,86C210.65,112.37 202.72,138.48 195.94,164.88C210.65,165.09 225.37,165.08 240.07,164.88C234.34,143.51 228.01,122.3 222.03,101.01C220.4,96.05 219.6,90.83 217.58,86Z" style="fill:white;fill-rule:nonzero;"/>
            <path d="M371.57,73.27C380.02,72.23 388.59,72.76 397.08,72.92C397.51,95.27 397.14,117.64 397.26,140C397.26,211.33 397.27,282.67 397.26,354C397.21,359.31 397.45,364.62 397.09,369.93C287.06,370.11 177.03,369.92 67,370.02C60.47,370 53.3,369.4 48.23,364.81C44.43,361.24 41.48,356.32 41.6,350.96C41.57,339.2 41.59,327.45 41.58,315.69C49.98,310.07 58.54,304.7 66.95,299.1C70.7,299.51 74.48,299.49 78.25,299.43C144.25,299.42 210.25,299.42 276.25,299.42C307.97,299.33 339.7,299.61 371.41,299.29C372.01,291.87 371.52,284.43 371.66,277C371.6,209.09 371.78,141.18 371.57,73.27Z" style="fill:rgb(119,8,41);fill-rule:nonzero;"/>
        </g>
    </g>
    <g id="_-e51050ff" serif:id="#e51050ff">
    </g>
    <g id="_-231f20ff" serif:id="#231f20ff">
    </g>
    <g id="_-ffffffff" serif:id="#ffffffff">
    </g>
    <g id="_-770829ff" serif:id="#770829ff">
    </g>
</svg>
