<?xml version="1.0" encoding="UTF-8" standalone="no"?>
<!DOCTYPE svg PUBLIC "-//W3C//DTD SVG 1.1//EN" "http://www.w3.org/Graphics/SVG/1.1/DTD/svg11.dtd">
<svg width="100%" height="100%" viewBox="0 0 1083 1580" version="1.1" xmlns="http://www.w3.org/2000/svg" xmlns:xlink="http://www.w3.org/1999/xlink" xml:space="preserve" xmlns:serif="http://www.serif.com/" style="fill-rule:evenodd;clip-rule:evenodd;stroke-linejoin:round;stroke-miterlimit:2;">
    <rect x="0" y="0" width="1082.11" height="1579.73" style="fill:rgb(34,31,31);"/>
    <g>
        <g>
            <path d="M183.85,915.5L165.62,915.5L162.62,902.6L144.16,902.6L141.09,915.5L123.22,915.5L143.7,838.27L163.37,838.27L183.85,915.5ZM159.32,888.72C156.7,877.22 154.733,866.283 153.42,855.91L153.19,855.91C151.803,866.577 149.853,877.513 147.34,888.72L159.32,888.72Z" style="fill:white;fill-rule:nonzero;"/>
            <path d="M231.32,838.27L249,838.27L271.28,882.81L270.64,874.48L270.64,838.27L288.17,838.27L288.17,915.5L270.17,915.5L248.36,871.65L248.82,881.25L248.82,915.5L231.32,915.5L231.32,838.27Z" style="fill:rgb(190,186,185);fill-rule:nonzero;"/>
            <path d="M343.42,838.27L359.79,838.27C371.123,838.27 379.743,841.5 385.65,847.96C391.557,854.42 394.507,863.86 394.5,876.28C394.5,885.693 393.043,893.29 390.13,899.07C387.575,904.494 383.28,908.912 377.93,911.62C372.535,914.247 366.6,915.576 360.6,915.5L343.42,915.5L343.42,838.27ZM361,854.7L361,899C366.333,898.54 370.093,896.66 372.28,893.36C374.467,890.06 375.567,884.633 375.58,877.08C375.648,873.257 375.259,869.44 374.42,865.71C373.875,863.073 372.694,860.608 370.98,858.53C369.813,857.102 368.267,856.031 366.52,855.44C364.71,855.007 362.86,854.759 361,854.7Z" style="fill:rgb(190,186,185);fill-rule:nonzero;"/>
            <path d="M444.93,838.27L465.35,838.27C473.603,838.27 480.12,840.39 484.9,844.63C489.68,848.87 492.073,854.637 492.08,861.93C492.068,865.714 491.134,869.438 489.36,872.78C487.622,876.185 484.844,878.949 481.43,880.67L495.43,915.5L476.92,915.5L462.74,880.33L462.46,880.33L462.46,915.5L444.93,915.5L444.93,838.27ZM462.46,853.19L462.46,871.53C470.213,871.383 474.087,868.667 474.08,863.38C474.08,859.79 473.19,857.22 471.39,855.68C469.59,854.14 466.62,853.31 462.46,853.19Z" style="fill:rgb(190,186,185);fill-rule:nonzero;"/>
            <path d="M544,838.27L579.46,838.27L579.46,854.7L561.48,854.7L561.48,868.93L577,868.93L577,884.93L561.48,884.93L561.48,898.93L579.48,898.93L579.48,915.5L544,915.5L544,838.27Z" style="fill:rgb(190,186,185);fill-rule:nonzero;"/>
            <path d="M657.14,917.41C647.807,917.41 640.693,913.833 635.8,906.68C630.907,899.527 628.457,889.193 628.45,875.68C628.45,863.22 630.907,853.51 635.82,846.55C640.733,839.59 647.59,836.11 656.39,836.11C665.77,836.11 672.933,839.6 677.88,846.58C682.827,853.56 685.307,863.53 685.32,876.49C685.32,889.45 682.88,899.507 678,906.66C673.12,913.813 666.167,917.397 657.14,917.41ZM656.51,853.66C650.19,853.66 647.027,861.083 647.02,875.93C647.02,885.49 647.82,891.873 649.42,895.08C651.02,898.28 653.35,899.88 656.42,899.88C659.7,899.88 662.217,898.28 663.97,895.08C665.723,891.88 666.603,885.613 666.61,876.28C666.59,861.2 663.223,853.66 656.51,853.66Z" style="fill:rgb(190,186,185);fill-rule:nonzero;"/>
            <path d="M730.13,838.27L772,838.27L772,855.91L759.9,855.91L759.9,915.5L742.11,915.5L742.11,855.91L730.11,855.91L730.13,838.27Z" style="fill:rgb(190,186,185);fill-rule:nonzero;"/>
            <path d="M815.67,838.27L857.5,838.27L857.5,855.91L845.41,855.91L845.41,915.5L827.65,915.5L827.65,855.91L815.65,855.91L815.67,838.27Z" style="fill:rgb(190,186,185);fill-rule:nonzero;"/>
            <path d="M958.9,915.5L940.67,915.5L937.72,902.6L919.21,902.6L916.14,915.5L898.27,915.5L918.75,838.27L938.42,838.27L958.9,915.5ZM934.37,888.72C931.737,877.22 929.77,866.283 928.47,855.91L928.23,855.91C926.85,866.577 924.903,877.513 922.39,888.72L934.37,888.72Z" style="fill:rgb(190,186,185);fill-rule:nonzero;"/>
        </g>
        <rect x="123.22" y="954.93" width="835.68" height="4.29" style="fill:rgb(190,186,185);"/>
    </g>
    <g>
        <g transform="matrix(1.00441,0,0,1.00441,-4.23075,-4.43843)">
            <path d="M170.32,1067.08L170.32,1085.4C167.119,1086.51 163.766,1087.11 160.38,1087.19C150.253,1087.19 142.037,1083.38 135.73,1075.77C129.423,1068.16 126.273,1058.16 126.28,1045.77C126.28,1034.25 129.46,1024.74 135.82,1017.25C141.685,1009.99 150.589,1005.84 159.92,1006.01C163.443,1005.97 166.951,1006.48 170.32,1007.51L170.32,1025.89C167.275,1024.82 164.077,1024.26 160.85,1024.21C156.303,1024.21 152.527,1026.29 149.52,1030.46C146.513,1034.63 145.007,1039.92 145,1046.33C145,1053.27 146.513,1058.75 149.54,1062.77C152.323,1066.66 156.871,1068.91 161.65,1068.77C164.613,1068.69 167.542,1068.12 170.32,1067.08Z" style="fill:white;fill-rule:nonzero;"/>
            <path d="M272.68,1085.28L254.48,1085.28L251.53,1072.4L233,1072.4L230,1085.28L212.11,1085.28L232.57,1008.13L252.22,1008.13L272.68,1085.28ZM248.18,1058.52C245.56,1047.04 243.593,1036.12 242.28,1025.75L242.05,1025.75C240.657,1036.42 238.71,1047.34 236.21,1058.52L248.18,1058.52Z" style="fill:rgb(190,186,185);fill-rule:nonzero;"/>
            <path d="M318.57,1008.13L339,1008.13C347.253,1008.13 353.767,1010.25 358.54,1014.48C363.313,1018.71 365.7,1024.48 365.7,1031.77C365.694,1035.55 364.767,1039.26 363,1042.6C361.271,1046.01 358.495,1048.77 355.08,1050.49L369.08,1085.28L350.58,1085.28L336.42,1050.14L336.13,1050.14L336.13,1085.28L318.57,1085.28L318.57,1008.13ZM336.08,1023L336.08,1041.32C343.833,1041.17 347.707,1038.46 347.7,1033.17C347.7,1029.59 346.8,1027.02 345.01,1025.48C343.22,1023.94 340.24,1023.15 336.08,1023Z" style="fill:rgb(190,186,185);fill-rule:nonzero;"/>
            <path d="M416,1008.13L432.35,1008.13C443.683,1008.13 452.297,1011.36 458.19,1017.81C464.083,1024.26 467.02,1033.69 467,1046.1C467,1055.5 465.547,1063.09 462.64,1068.87C460.078,1074.29 455.785,1078.7 450.44,1081.41C445.05,1084.03 439.122,1085.35 433.13,1085.28L416,1085.28L416,1008.13ZM433.51,1024.54L433.51,1068.81C438.843,1068.35 442.6,1066.47 444.78,1063.18C446.96,1059.89 448.057,1054.46 448.07,1046.91C448.141,1043.09 447.755,1039.28 446.92,1035.55C446.377,1032.91 445.196,1030.45 443.48,1028.38C442.317,1026.95 440.774,1025.88 439.03,1025.29C437.206,1024.86 435.344,1024.61 433.47,1024.54L433.51,1024.54Z" style="fill:rgb(190,186,185);fill-rule:nonzero;"/>
            <path d="M515.83,1008.13L551.26,1008.13L551.26,1024.54L533.34,1024.54L533.34,1038.76L548.89,1038.76L548.89,1054.76L533.34,1054.76L533.34,1068.76L551.34,1068.76L551.34,1085.23L515.83,1085.23L515.83,1008.13Z" style="fill:rgb(190,186,185);fill-rule:nonzero;"/>
            <path d="M602.24,1008.13L619.92,1008.13L642.17,1052.63L641.54,1044.31L641.54,1008.13L659.05,1008.13L659.05,1085.28L641.05,1085.28L619.25,1041.48L619.72,1051.07L619.72,1085.28L602.24,1085.28L602.24,1008.13Z" style="fill:rgb(190,186,185);fill-rule:nonzero;"/>
            <path d="M737.83,1087.19C728.497,1087.19 721.387,1083.62 716.5,1076.47C711.613,1069.32 709.167,1058.99 709.16,1045.47C709.16,1033.03 711.617,1023.33 716.53,1016.37C721.443,1009.41 728.29,1005.95 737.07,1006C746.403,1006 753.563,1009.49 758.55,1016.46C763.537,1023.43 766.01,1033.39 765.97,1046.34C765.97,1059.29 763.533,1069.34 758.66,1076.48C753.787,1083.62 746.843,1087.19 737.83,1087.19ZM737.19,1023.5C730.87,1023.5 727.71,1030.92 727.71,1045.75C727.71,1055.31 728.51,1061.69 730.11,1064.88C731.71,1068.07 734.043,1069.67 737.11,1069.68C740.39,1069.68 742.903,1068.08 744.65,1064.88C746.397,1061.68 747.273,1055.42 747.28,1046.1C747.253,1031.03 743.89,1023.5 737.19,1023.5Z" style="fill:rgb(190,186,185);fill-rule:nonzero;"/>
            <path d="M816,1083.84L816,1065.84C821.54,1069.08 826.207,1070.7 830,1070.7C831.905,1070.8 833.775,1070.15 835.2,1068.88C836.497,1067.62 837.192,1065.86 837.11,1064.05C837.099,1062.47 836.556,1060.95 835.57,1059.72C834.025,1057.87 832.251,1056.22 830.29,1054.81C824.243,1050.18 819.86,1045.88 817.14,1041.89C814.446,1037.97 813.025,1033.32 813.07,1028.57C813.07,1021.9 815.17,1016.47 819.37,1012.27C823.57,1008.07 829.003,1005.97 835.67,1005.97C840.731,1006 845.731,1007.08 850.35,1009.15L850.35,1026.43C845.15,1023.58 840.92,1022.15 837.69,1022.15C835.848,1022.05 834.03,1022.61 832.57,1023.74C831.311,1024.83 830.62,1026.44 830.7,1028.1C830.7,1031.34 833.607,1034.98 839.42,1039.03C843.395,1041.89 846.955,1045.29 850,1049.13C853.521,1053.35 855.419,1058.69 855.35,1064.19C855.514,1070.46 852.96,1076.5 848.35,1080.75C843.683,1085.12 837.77,1087.3 830.61,1087.31C825.54,1087.28 820.543,1086.09 816,1083.84Z" style="fill:rgb(190,186,185);fill-rule:nonzero;"/>
            <path d="M958.9,1085.28L940.69,1085.28L937.69,1072.4L919.25,1072.4L916.18,1085.28L898.33,1085.28L918.79,1008.13L938.44,1008.13L958.9,1085.28ZM934.39,1058.52C931.77,1047.04 929.807,1036.12 928.5,1025.75L928.26,1025.75C926.88,1036.42 924.933,1047.34 922.42,1058.52L934.39,1058.52Z" style="fill:rgb(190,186,185);fill-rule:nonzero;"/>
        </g>
        <rect x="123.22" y="1121.02" width="835.68" height="4.29" style="fill:rgb(190,186,185);"/>
    </g>
    <g>
        <g transform="matrix(1.0044,0,0,1.0044,-4.2192,-5.17286)">
            <path d="M170.51,1237L170.51,1255.4C167.29,1256.51 163.916,1257.12 160.51,1257.2C150.337,1257.2 142.087,1253.38 135.76,1245.74C129.433,1238.1 126.27,1228.05 126.27,1215.59C126.27,1204.02 129.463,1194.48 135.85,1186.95C141.738,1179.66 150.68,1175.49 160.05,1175.66C163.59,1175.62 167.115,1176.13 170.5,1177.17L170.5,1195.63C167.439,1194.56 164.224,1193.99 160.98,1193.94C156.407,1193.94 152.613,1196.03 149.6,1200.21C146.587,1204.39 145.08,1209.72 145.08,1216.21C145.08,1223.17 146.597,1228.67 149.63,1232.72C152.42,1236.63 156.985,1238.91 161.79,1238.78C164.775,1238.67 167.722,1238.07 170.51,1237Z" style="fill:white;fill-rule:nonzero;"/>
            <path d="M236.84,1257.18C227.507,1257.18 220.367,1253.59 215.42,1246.41C210.473,1239.23 208.017,1228.87 208.05,1215.34C208.05,1202.84 210.517,1193.1 215.45,1186.12C220.383,1179.14 227.26,1175.65 236.08,1175.64C245.487,1175.64 252.673,1179.14 257.64,1186.15C262.607,1193.16 265.093,1203.16 265.1,1216.15C265.1,1229.15 262.653,1239.24 257.76,1246.41C252.867,1253.58 245.893,1257.17 236.84,1257.18ZM236.2,1193.18C229.86,1193.18 226.687,1200.63 226.68,1215.52C226.68,1225.11 227.483,1231.52 229.09,1234.73C230.697,1237.94 233.03,1239.55 236.09,1239.55C239.377,1239.55 241.903,1237.94 243.67,1234.73C245.437,1231.52 246.317,1225.23 246.31,1215.87C246.303,1200.77 242.933,1193.22 236.2,1193.23L236.2,1193.18Z" style="fill:rgb(190,186,185);fill-rule:nonzero;"/>
            <path d="M307.87,1177.79L325.63,1177.79L348,1222.48L347.37,1214.12L347.37,1177.79L364.95,1177.79L364.95,1255.26L346.87,1255.26L324.99,1211.26L325.46,1220.9L325.46,1255.25L307.87,1255.25L307.87,1177.79Z" style="fill:rgb(190,186,185);fill-rule:nonzero;"/>
            <path d="M411.29,1253.81L411.29,1235.81C416.857,1239.06 421.523,1240.69 425.29,1240.69C427.206,1240.8 429.088,1240.14 430.52,1238.86C431.813,1237.59 432.507,1235.83 432.43,1234.02C432.419,1232.44 431.877,1230.9 430.89,1229.66C429.335,1227.8 427.55,1226.14 425.58,1224.73C419.507,1220.06 415.107,1215.73 412.38,1211.73C409.673,1207.8 408.244,1203.12 408.29,1198.35C408.29,1191.68 410.397,1186.23 414.61,1181.99C418.823,1177.75 424.28,1175.64 430.98,1175.66C436.061,1175.69 441.081,1176.78 445.72,1178.85L445.72,1196.21C440.5,1193.34 436.263,1191.9 433.01,1191.91C431.164,1191.81 429.341,1192.38 427.88,1193.51C426.608,1194.6 425.909,1196.22 425.99,1197.89C425.99,1201.14 428.91,1204.81 434.75,1208.89C438.744,1211.75 442.321,1215.15 445.38,1219C448.918,1223.23 450.824,1228.6 450.75,1234.11C450.925,1240.4 448.371,1246.47 443.75,1250.74C439.083,1255.13 433.143,1257.32 425.93,1257.33C420.846,1257.28 415.84,1256.08 411.29,1253.81Z" style="fill:rgb(190,186,185);fill-rule:nonzero;"/>
            <path d="M492.59,1177.79L510.64,1177.79L510.64,1232.34C510.512,1234.54 511.228,1236.71 512.64,1238.4C514.095,1239.83 516.058,1240.64 518.101,1240.64C520.212,1240.64 522.234,1239.78 523.7,1238.26C525.163,1236.4 525.896,1234.06 525.76,1231.7L525.76,1177.79L543.69,1177.79L543.69,1228.63C543.69,1235.55 542.78,1241.1 540.96,1245.28C539.413,1249.16 536.591,1252.41 532.96,1254.48C529.42,1256.43 524.477,1257.41 518.13,1257.41C508.797,1257.41 502.2,1255.01 498.34,1250.22C494.48,1245.43 492.563,1237.32 492.59,1225.9L492.59,1177.79Z" style="fill:rgb(190,186,185);fill-rule:nonzero;"/>
            <path d="M589.34,1177.79L606.92,1177.79L606.92,1237.33L620.85,1237.33L620.85,1255.26L589.34,1255.26L589.34,1177.79Z" style="fill:rgb(190,186,185);fill-rule:nonzero;"/>
            <path d="M654.51,1177.79L696.51,1177.79L696.51,1195.49L684.33,1195.49L684.33,1255.26L666.52,1255.26L666.52,1195.49L654.52,1195.49L654.51,1177.79Z" style="fill:rgb(190,186,185);fill-rule:nonzero;"/>
            <rect x="737.73" y="1177.79" width="17.58" height="77.47" style="fill:rgb(190,186,185);fill-rule:nonzero;"/>
            <path d="M802.21,1177.79L820,1177.79L842.34,1222.48L841.71,1214.12L841.71,1177.79L859.29,1177.79L859.29,1255.26L841.29,1255.26L819.41,1211.26L819.88,1220.9L819.88,1255.25L802.21,1255.25L802.21,1177.79Z" style="fill:rgb(190,186,185);fill-rule:nonzero;"/>
            <path d="M958.9,1211.85L958.9,1224.85C958.9,1234.91 956.47,1242.81 951.61,1248.56C946.75,1254.31 940.103,1257.18 931.67,1257.18C922.23,1257.18 914.94,1253.63 909.8,1246.53C904.66,1239.43 902.087,1229.3 902.08,1216.15C902.08,1202.88 904.643,1192.81 909.77,1185.94C914.897,1179.07 922.39,1175.63 932.25,1175.64C943.323,1175.64 951.323,1181.54 956.25,1193.34L939.48,1200.25C938.447,1198.27 937.137,1196.44 935.59,1194.82C934.237,1193.62 932.464,1193.01 930.66,1193.11C927.1,1193.11 924.577,1194.98 923.09,1198.71C921.603,1202.44 920.857,1208.49 920.85,1216.85C920.85,1224.62 921.69,1230.33 923.37,1233.99C925.05,1237.65 927.717,1239.48 931.37,1239.48C937.25,1239.48 940.29,1235.28 940.49,1226.89L932.3,1226.89L932.3,1211.89L958.9,1211.85Z" style="fill:rgb(190,186,185);fill-rule:nonzero;"/>
        </g>
        <rect x="123.22" y="1297.11" width="835.68" height="4.29" style="fill:rgb(190,186,185);"/>
    </g>
    <g>
        <g transform="matrix(1.00797,0,0,1.00797,-7.64692,-11.381)">
            <path d="M129.81,1347.63L165.37,1347.63L165.37,1364.11L147.37,1364.11L147.37,1378.37L163,1378.37L163,1394.44L147.4,1394.44L147.4,1408.53L165.49,1408.53L165.49,1425.06L129.81,1425.06L129.81,1347.63Z" style="fill:white;fill-rule:nonzero;"/>
        </g>
        <g transform="matrix(1.00797,0,0,1.00797,-7.64692,-11.381)">
            <path d="M220.8,1347.63L238.55,1347.63L260.88,1392.29L260.24,1383.94L260.24,1347.63L277.81,1347.63L277.81,1425.06L259.81,1425.06L237.95,1381.06L238.41,1390.69L238.41,1425.02L220.8,1425.02L220.8,1347.63Z" style="fill:rgb(190,186,185);fill-rule:nonzero;"/>
        </g>
        <g transform="matrix(1.00797,0,0,1.00797,-7.64692,-11.381)">
            <path d="M389.15,1381.68L389.15,1394.68C389.15,1404.73 386.723,1412.62 381.87,1418.37C377.017,1424.12 370.393,1426.99 362,1427C352.567,1427 345.28,1423.45 340.14,1416.35C335,1409.25 332.41,1399.13 332.37,1386C332.37,1372.74 334.933,1362.68 340.06,1355.81C345.187,1348.94 352.677,1345.51 362.53,1345.52C373.59,1345.52 381.59,1351.42 386.53,1363.21L369.77,1370.11C368.739,1368.13 367.433,1366.31 365.89,1364.69C364.542,1363.51 362.787,1362.91 361,1363C357.44,1363 354.917,1364.86 353.43,1368.59C351.943,1372.32 351.197,1378.36 351.19,1386.72C351.19,1394.49 352.033,1400.2 353.72,1403.85C355.407,1407.5 358.073,1409.33 361.72,1409.34C367.6,1409.34 370.637,1405.14 370.83,1396.75L362.65,1396.75L362.65,1381.75L389.15,1381.68Z" style="fill:rgb(190,186,185);fill-rule:nonzero;"/>
        </g>
        <g transform="matrix(1.00797,0,0,1.00797,-7.64692,-11.381)">
            <rect x="444.18" y="1347.63" width="17.57" height="77.43" style="fill:rgb(190,186,185);fill-rule:nonzero;"/>
        </g>
        <g transform="matrix(1.00797,0,0,1.00797,-7.64692,-11.381)">
            <path d="M520.37,1347.63L538.12,1347.63L560.45,1392.29L559.81,1383.94L559.81,1347.63L577.38,1347.63L577.38,1425.06L559.38,1425.06L537.51,1381.06L537.98,1390.69L537.98,1425.02L520.37,1425.02L520.37,1347.63Z" style="fill:rgb(190,186,185);fill-rule:nonzero;"/>
        </g>
        <g transform="matrix(1.00797,0,0,1.00797,-7.64692,-11.381)">
            <path d="M635.48,1347.63L671,1347.63L671,1364.11L653,1364.11L653,1378.37L668.6,1378.37L668.6,1394.44L653,1394.44L653,1408.53L671.1,1408.53L671.1,1425.06L635.48,1425.06L635.48,1347.63Z" style="fill:rgb(190,186,185);fill-rule:nonzero;"/>
        </g>
        <g transform="matrix(1.00797,0,0,1.00797,-7.64692,-11.381)">
            <path d="M726.47,1347.63L762,1347.63L762,1364.11L744,1364.11L744,1378.37L759.6,1378.37L759.6,1394.44L744,1394.44L744,1408.53L762.09,1408.53L762.09,1425.06L726.47,1425.06L726.47,1347.63Z" style="fill:rgb(190,186,185);fill-rule:nonzero;"/>
        </g>
        <g transform="matrix(1.00797,0,0,1.00797,-7.64692,-11.381)">
            <path d="M817.46,1347.63L837.93,1347.63C846.203,1347.63 852.737,1349.76 857.53,1354.01C862.323,1358.26 864.72,1364.05 864.72,1371.36C864.713,1375.15 863.779,1378.88 862,1382.23C860.249,1385.66 857.444,1388.43 854,1390.15L868,1425.06L849.53,1425.06L835.32,1389.8L835,1389.8L835,1425.06L817.46,1425.06L817.46,1347.63ZM835.03,1362.63L835.03,1381C842.797,1380.85 846.683,1378.12 846.69,1372.83C846.69,1369.23 845.78,1366.66 843.99,1365.11C842.2,1363.56 839.2,1362.71 835,1362.6L835.03,1362.63Z" style="fill:rgb(190,186,185);fill-rule:nonzero;"/>
        </g>
        <g transform="matrix(1.00797,0,0,1.00797,-7.64692,-11.381)">
            <path d="M919.46,1423.61L919.46,1405.61C925.027,1408.86 929.693,1410.49 933.46,1410.49C935.373,1410.6 937.252,1409.94 938.68,1408.66C939.98,1407.39 940.679,1405.63 940.6,1403.82C940.586,1402.24 940.044,1400.71 939.06,1399.47C937.506,1397.61 935.726,1395.96 933.76,1394.54C927.693,1389.87 923.293,1385.54 920.56,1381.54C917.854,1377.61 916.425,1372.95 916.47,1368.18C916.47,1361.51 918.577,1356.06 922.79,1351.82C927.003,1347.58 932.457,1345.47 939.15,1345.5C944.228,1345.53 949.246,1346.61 953.88,1348.69L953.88,1366C948.66,1363.14 944.427,1361.71 941.18,1361.71C939.335,1361.61 937.513,1362.17 936.05,1363.3C934.78,1364.39 934.082,1366.01 934.16,1367.68C934.16,1370.93 937.08,1374.6 942.92,1378.68C946.901,1381.55 950.465,1384.96 953.51,1388.81C957.041,1393.04 958.943,1398.4 958.87,1403.91C959.044,1410.2 956.489,1416.26 951.87,1420.53C947.203,1424.92 941.267,1427.12 934.06,1427.11C928.991,1427.07 923.998,1425.87 919.46,1423.61Z" style="fill:rgb(190,186,185);fill-rule:nonzero;"/>
        </g>
        <rect x="123.22" y="1449.72" width="835.68" height="4.29" style="fill:rgb(190,186,185);"/>
    </g>
    <g>
        <path d="M958.9,207.62L958.9,125.71L615.49,125.71L615.49,611.44L958.9,611.44L958.9,520.72L709.73,520.72L709.73,458.3L958.9,458.3L958.9,454.01L709.73,454.01L709.73,391.58L958.9,391.58L958.9,387.29L709.73,387.29L709.73,323.88L958.9,323.88L958.9,319.58L709.73,319.58L709.73,258.81L958.9,258.81L958.9,254.52L709.73,254.52L709.73,207.62L958.9,207.62Z" style="fill:rgb(190,186,185);fill-rule:nonzero;"/>
        <path d="M599.09,624.43L599.09,125.71L123.22,125.71L123.22,130L594.05,130L545.75,189.12L123.22,189.12L123.22,193.41L542.22,193.41L492.31,254.51L123.22,254.51L123.22,258.8L488.82,258.8L439.17,319.57L123.17,319.57L123.17,323.87L435.67,323.87L383.86,387.28L123.22,387.28L123.22,391.57L380.35,391.57L329.35,454L123.22,454L123.22,458.29L325.85,458.29L274.85,520.71L123.22,520.71L123.22,525L271.35,525L222.78,584.45L123.22,584.45L123.22,588.74L219.27,588.74L175,642.92L123.2,642.92L123.2,647.22L171.5,647.22L123.2,706.34L958.9,706.34L958.9,624.43L599.09,624.43ZM512.89,702L253.89,702L298.68,647.18L512.89,647.18L512.89,702ZM512.89,520.68L419,520.68L344.89,611.4L512.89,611.4L512.89,642.88L302.23,642.88L453.06,458.3L512.89,458.3L512.89,520.68ZM512.89,453.97L456.57,453.97L512.89,385.03L512.89,453.97Z" style="fill:rgb(190,186,185);fill-rule:nonzero;"/>
    </g>
</svg>
