<?xml version="1.0" encoding="UTF-8" standalone="no"?>
<!DOCTYPE svg PUBLIC "-//W3C//DTD SVG 1.1//EN" "http://www.w3.org/Graphics/SVG/1.1/DTD/svg11.dtd">
<svg width="100%" height="100%" viewBox="0 0 1083 1580" version="1.1" xmlns="http://www.w3.org/2000/svg" xmlns:xlink="http://www.w3.org/1999/xlink" xml:space="preserve" xmlns:serif="http://www.serif.com/" style="fill-rule:evenodd;clip-rule:evenodd;stroke-linejoin:round;stroke-miterlimit:2;">
    <path d="M236.08,1239.6C239.367,1239.6 241.893,1237.99 243.66,1234.78C245.427,1231.57 246.307,1225.28 246.3,1215.92C246.3,1200.79 242.933,1193.22 236.2,1193.23C229.86,1193.23 226.687,1200.68 226.68,1215.57C226.68,1225.16 227.483,1231.57 229.09,1234.78C230.697,1237.99 233.027,1239.6 236.08,1239.6Z" style="fill:rgb(34,31,31);fill-rule:nonzero;"/>
    <path d="M844,1365.09C842.2,1363.54 839.2,1362.71 835,1362.6L835,1381C842.767,1380.85 846.653,1378.12 846.66,1372.83C846.69,1369.21 845.78,1366.64 844,1365.09Z" style="fill:rgb(34,31,31);fill-rule:nonzero;"/>
    <path d="M512.89,647.22L298.72,647.22L253.94,702.04L512.89,702.04L512.89,647.22Z" style="fill:rgb(34,31,31);fill-rule:nonzero;"/>
    <path d="M512.89,642.92L512.89,611.44L344.92,611.44L419.02,520.72L512.89,520.72L512.89,458.3L453.06,458.3L302.23,642.92L512.89,642.92Z" style="fill:rgb(34,31,31);fill-rule:nonzero;"/>
    <path d="M345,1025.52C343.213,1023.98 340.237,1023.15 336.07,1023.04L336.07,1041.36C343.823,1041.21 347.697,1038.5 347.69,1033.21C347.7,1029.63 346.8,1027.06 345,1025.52Z" style="fill:rgb(34,31,31);fill-rule:nonzero;"/>
    <path d="M153.42,855.91L153.19,855.91C151.803,866.577 149.853,877.513 147.34,888.72L159.34,888.72C156.707,877.22 154.733,866.283 153.42,855.91Z" style="fill:rgb(34,31,31);fill-rule:nonzero;"/>
    <path d="M370.93,858.54C369.763,857.112 368.217,856.041 366.47,855.45C364.66,855.014 362.811,854.762 360.95,854.7L360.95,899C366.283,898.54 370.043,896.66 372.23,893.36C374.417,890.06 375.517,884.633 375.53,877.08C375.598,873.257 375.209,869.44 374.37,865.71C373.823,863.076 372.642,860.615 370.93,858.54Z" style="fill:rgb(34,31,31);fill-rule:nonzero;"/>
    <path d="M656.51,853.66C650.19,853.66 647.027,861.083 647.02,875.93C647.02,885.49 647.82,891.873 649.42,895.08C651.02,898.28 653.35,899.88 656.42,899.88C659.7,899.88 662.217,898.28 663.97,895.08C665.723,891.88 666.603,885.613 666.61,876.28C666.59,861.2 663.223,853.66 656.51,853.66Z" style="fill:rgb(34,31,31);fill-rule:nonzero;"/>
    <path d="M443.44,1028.38C442.277,1026.95 440.734,1025.88 438.99,1025.29C437.179,1024.86 435.33,1024.61 433.47,1024.54L433.47,1068.81C438.803,1068.35 442.56,1066.47 444.74,1063.18C446.92,1059.89 448.017,1054.46 448.03,1046.91C448.101,1043.09 447.715,1039.28 446.88,1035.55C446.337,1032.91 445.156,1030.45 443.44,1028.38Z" style="fill:rgb(34,31,31);fill-rule:nonzero;"/>
    <path d="M471.39,855.68C469.603,854.14 466.627,853.31 462.46,853.19L462.46,871.53C470.213,871.383 474.087,868.667 474.08,863.38C474.08,859.79 473.19,857.22 471.39,855.68Z" style="fill:rgb(34,31,31);fill-rule:nonzero;"/>
    <path d="M242.28,1025.75L242.05,1025.75C240.657,1036.42 238.71,1047.34 236.21,1058.52L248.21,1058.52C245.57,1047.04 243.593,1036.12 242.28,1025.75Z" style="fill:rgb(34,31,31);fill-rule:nonzero;"/>
    <path d="M737.07,1069.68C740.35,1069.68 742.863,1068.08 744.61,1064.88C746.357,1061.68 747.233,1055.42 747.24,1046.1C747.24,1031.03 743.907,1023.5 737.24,1023.5C730.92,1023.5 727.76,1030.92 727.76,1045.75C727.76,1055.31 728.56,1061.69 730.16,1064.88C731.76,1068.07 734.063,1069.67 737.07,1069.68Z" style="fill:rgb(34,31,31);fill-rule:nonzero;"/>
    <path d="M512.89,385.07L456.57,454.01L512.89,454.01L512.89,385.07Z" style="fill:rgb(34,31,31);fill-rule:nonzero;"/>
    <path d="M0,0L0,1579.73L1082.12,1579.73L1082.12,0L0,0ZM615.49,611.43L615.49,125.71L958.9,125.71L958.9,207.62L709.73,207.62L709.73,254.52L958.9,254.52L958.9,258.81L709.73,258.81L709.73,319.58L958.9,319.58L958.9,323.88L709.73,323.88L709.73,387.29L958.9,387.29L958.9,391.58L709.73,391.58L709.73,454L958.9,454L958.9,458.29L709.73,458.29L709.73,520.71L958.9,520.71L958.9,611.43L615.49,611.43ZM123.22,647.22L123.22,642.92L175,642.92L219.25,588.76L123.22,588.76L123.22,584.47L222.78,584.47L271.35,525L123.22,525L123.22,520.7L274.86,520.7L325.86,458.28L123.22,458.28L123.22,454L329.36,454L380.36,391.57L123.22,391.57L123.22,387.28L383.86,387.28L435.67,323.87L123.22,323.87L123.22,319.57L439.22,319.57L488.87,258.8L123.22,258.8L123.22,254.51L492.33,254.51L542.24,193.41L123.24,193.41L123.24,189.12L545.75,189.12L594.05,130L123.22,130L123.22,125.7L599.09,125.7L599.09,624.43L958.9,624.43L958.9,706.34L123.22,706.34L171.52,647.22L123.22,647.22ZM815.67,855.91L815.67,838.27L857.5,838.27L857.5,855.91L845.41,855.91L845.41,915.5L827.65,915.5L827.65,855.91L815.67,855.91ZM730.13,855.91L730.13,838.27L772,838.27L772,855.91L759.9,855.91L759.9,915.5L742.11,915.5L742.11,855.91L730.13,855.91ZM685.32,876.51C685.32,889.47 682.88,899.527 678,906.68C673.12,913.833 666.167,917.41 657.14,917.41C647.807,917.41 640.693,913.833 635.8,906.68C630.907,899.527 628.457,889.193 628.45,875.68C628.45,863.22 630.907,853.51 635.82,846.55C640.733,839.59 647.59,836.11 656.39,836.11C665.77,836.11 672.933,839.6 677.88,846.58C682.827,853.56 685.307,863.537 685.32,876.51ZM577,868.93L577,884.93L561.48,884.93L561.48,898.93L579.48,898.93L579.48,915.5L544,915.5L544,838.27L579.46,838.27L579.46,854.7L561.48,854.7L561.48,868.93L577,868.93ZM495.43,915.5L476.92,915.5L462.74,880.33L462.46,880.33L462.46,915.5L444.93,915.5L444.93,838.27L465.35,838.27C473.603,838.27 480.12,840.39 484.9,844.63C489.68,848.87 492.073,854.637 492.08,861.93C492.068,865.714 491.134,869.438 489.36,872.78C487.622,876.185 484.844,878.949 481.43,880.67L495.43,915.5ZM394.5,876.28C394.5,885.693 393.043,893.29 390.13,899.07C387.575,904.494 383.28,908.912 377.93,911.62C372.535,914.247 366.6,915.576 360.6,915.5L343.42,915.5L343.42,838.27L359.79,838.27C371.123,838.27 379.743,841.5 385.65,847.96C391.557,854.42 394.507,863.86 394.5,876.28ZM248.85,881.28L248.85,915.5L231.32,915.5L231.32,838.27L249,838.27L271.28,882.81L270.64,874.48L270.64,838.27L288.17,838.27L288.17,915.5L270.17,915.5L248.36,871.65L248.85,881.28ZM143.7,838.28L163.37,838.28L183.85,915.51L165.62,915.51L162.62,902.61L144.16,902.61L141.09,915.51L123.22,915.51L143.7,838.28ZM958.9,1454L123.22,1454L123.22,1449.7L958.9,1449.7L958.9,1454ZM163,1378.37L163,1394.44L147.4,1394.44L147.4,1408.53L165.49,1408.53L165.49,1425.06L129.81,1425.06L129.81,1347.63L165.37,1347.63L165.37,1364.11L147.37,1364.11L147.37,1378.37L163,1378.37ZM260.25,1383.94L260.25,1347.63L277.82,1347.63L277.82,1425.06L259.82,1425.06L237.96,1381.06L238.42,1390.69L238.42,1425.02L220.8,1425.02L220.8,1347.59L238.55,1347.59L260.88,1392.25L260.25,1383.94ZM353.7,1403.8C355.38,1407.46 358.047,1409.29 361.7,1409.29C367.58,1409.29 370.617,1405.09 370.81,1396.7L362.63,1396.7L362.63,1381.7L389.13,1381.7L389.13,1394.7C389.13,1404.75 386.703,1412.64 381.85,1418.39C376.997,1424.14 370.38,1427.01 362,1427C352.567,1427 345.28,1423.45 340.14,1416.35C335,1409.25 332.41,1399.13 332.37,1386C332.37,1372.74 334.933,1362.68 340.06,1355.81C345.187,1348.94 352.677,1345.51 362.53,1345.52C373.59,1345.52 381.59,1351.42 386.53,1363.21L369.77,1370.11C368.739,1368.13 367.433,1366.31 365.89,1364.69C364.542,1363.51 362.787,1362.91 361,1363C357.44,1363 354.917,1364.86 353.43,1368.59C351.94,1372.33 351.19,1378.36 351.19,1386.72C351.17,1394.46 352.003,1400.15 353.69,1403.8L353.7,1403.8ZM444.19,1425.06L444.19,1347.63L461.76,1347.63L461.76,1425.06L444.19,1425.06ZM559.82,1383.94L559.82,1347.63L577.39,1347.63L577.39,1425.06L559.39,1425.06L537.52,1381.06L537.99,1390.69L537.99,1425.02L520.37,1425.02L520.37,1347.59L538.12,1347.59L560.45,1392.25L559.82,1383.94ZM668.67,1378.37L668.67,1394.44L653.07,1394.44L653.07,1408.53L671.17,1408.53L671.17,1425.06L635.48,1425.06L635.48,1347.63L671,1347.63L671,1364.11L653,1364.11L653,1378.37L668.67,1378.37ZM759.67,1378.37L759.67,1394.44L744.07,1394.44L744.07,1408.53L762.16,1408.53L762.16,1425.06L726.47,1425.06L726.47,1347.63L762,1347.63L762,1364.11L744,1364.11L744,1378.37L759.67,1378.37ZM868.11,1425.06L849.53,1425.06L835.32,1389.8L835,1389.8L835,1425.06L817.46,1425.06L817.46,1347.63L837.93,1347.63C846.203,1347.63 852.737,1349.76 857.53,1354.01C862.323,1358.26 864.72,1364.05 864.72,1371.36C864.713,1375.15 863.779,1378.88 862,1382.23C860.249,1385.66 857.444,1388.43 854,1390.15L868.11,1425.06ZM951.9,1420.51C947.233,1424.9 941.297,1427.1 934.09,1427.09C929.019,1427.05 924.023,1425.86 919.48,1423.61L919.48,1405.61C925.047,1408.86 929.713,1410.49 933.48,1410.49C935.393,1410.6 937.272,1409.94 938.7,1408.66C940,1407.39 940.699,1405.63 940.62,1403.82C940.606,1402.24 940.064,1400.71 939.08,1399.47C937.526,1397.61 935.746,1395.96 933.78,1394.54C927.713,1389.87 923.313,1385.54 920.58,1381.54C917.874,1377.61 916.445,1372.95 916.49,1368.18C916.49,1361.51 918.597,1356.06 922.81,1351.82C927.023,1347.58 932.477,1345.47 939.17,1345.5C944.248,1345.53 949.266,1346.61 953.9,1348.69L953.9,1366C948.68,1363.14 944.447,1361.71 941.2,1361.71C939.355,1361.61 937.533,1362.17 936.07,1363.3C934.8,1364.39 934.102,1366.01 934.18,1367.68C934.18,1370.93 937.1,1374.6 942.94,1378.68C946.921,1381.55 950.485,1384.96 953.53,1388.81C957.061,1393.04 958.963,1398.4 958.89,1403.91C959.055,1410.19 956.498,1416.25 951.88,1420.51L951.9,1420.51ZM958.9,1301.41L123.22,1301.41L123.22,1297.11L958.9,1297.11L958.9,1301.41ZM149.64,1232.66C152.43,1236.57 156.995,1238.85 161.8,1238.72C164.779,1238.62 167.722,1238.04 170.51,1236.98L170.51,1255.38C167.29,1256.49 163.916,1257.1 160.51,1257.18C150.337,1257.18 142.087,1253.36 135.76,1245.72C129.433,1238.08 126.27,1228.03 126.27,1215.57C126.27,1204 129.463,1194.46 135.85,1186.93C141.738,1179.64 150.68,1175.47 160.05,1175.64C163.59,1175.6 167.115,1176.11 170.5,1177.15L170.5,1195.61C167.439,1194.54 164.224,1193.96 160.98,1193.92C156.407,1193.92 152.613,1196.01 149.6,1200.19C146.587,1204.37 145.08,1209.7 145.08,1216.19C145.087,1223.12 146.607,1228.61 149.64,1232.66ZM208.05,1215.34C208.05,1202.84 210.517,1193.1 215.45,1186.12C220.383,1179.14 227.26,1175.65 236.08,1175.64C245.487,1175.64 252.673,1179.14 257.64,1186.15C262.607,1193.16 265.093,1203.16 265.1,1216.15C265.1,1229.15 262.653,1239.24 257.76,1246.41C252.867,1253.58 245.893,1257.17 236.84,1257.18C227.507,1257.18 220.367,1253.59 215.42,1246.41C210.473,1239.23 208.017,1228.87 208.05,1215.34ZM347.34,1214.12L347.34,1177.79L364.92,1177.79L364.92,1255.26L346.87,1255.26L324.99,1211.26L325.46,1220.9L325.46,1255.25L307.87,1255.25L307.87,1177.78L325.63,1177.78L348,1222.48L347.34,1214.12ZM434.79,1208.84C438.773,1211.72 442.337,1215.14 445.38,1219C448.918,1223.23 450.824,1228.6 450.75,1234.11C450.925,1240.4 448.371,1246.47 443.75,1250.74C439.083,1255.13 433.143,1257.32 425.93,1257.33C420.855,1257.29 415.856,1256.1 411.31,1253.84L411.31,1235.84C416.877,1239.09 421.543,1240.72 425.31,1240.72C427.226,1240.83 429.108,1240.17 430.54,1238.89C431.833,1237.62 432.527,1235.86 432.45,1234.05C432.439,1232.47 431.897,1230.93 430.91,1229.69C429.355,1227.83 427.57,1226.17 425.6,1224.76C419.527,1220.09 415.127,1215.76 412.4,1211.76C409.693,1207.83 408.264,1203.15 408.31,1198.38C408.31,1191.71 410.417,1186.26 414.63,1182.02C418.843,1177.78 424.3,1175.67 431,1175.69C436.081,1175.72 441.101,1176.81 445.74,1178.88L445.74,1196.24C440.52,1193.37 436.283,1191.93 433.03,1191.94C431.184,1191.84 429.361,1192.41 427.9,1193.54C426.628,1194.63 425.929,1196.25 426.01,1197.92C426.003,1201.13 428.93,1204.77 434.79,1208.84ZM512.67,1238.4C514.125,1239.83 516.088,1240.64 518.131,1240.64C520.242,1240.64 522.264,1239.78 523.73,1238.26C525.193,1236.4 525.926,1234.06 525.79,1231.7L525.79,1177.79L543.72,1177.79L543.72,1228.63C543.72,1235.55 542.81,1241.1 540.99,1245.28C539.443,1249.16 536.621,1252.41 532.99,1254.48C529.45,1256.43 524.507,1257.41 518.16,1257.41C508.827,1257.41 502.23,1255.01 498.37,1250.22C494.51,1245.43 492.593,1237.32 492.62,1225.9L492.62,1177.79L510.67,1177.79L510.67,1232.34C510.542,1234.54 511.258,1236.71 512.67,1238.4ZM620.85,1237.33L620.85,1255.26L589.34,1255.26L589.34,1177.79L606.92,1177.79L606.92,1237.33L620.85,1237.33ZM654.51,1195.49L654.51,1177.79L696.51,1177.79L696.51,1195.49L684.33,1195.49L684.33,1255.26L666.52,1255.26L666.52,1195.49L654.51,1195.49ZM737.73,1255.26L737.73,1177.79L755.31,1177.79L755.31,1255.26L737.73,1255.26ZM841.67,1214.12L841.67,1177.79L859.25,1177.79L859.25,1255.26L841.25,1255.26L819.37,1211.26L819.84,1220.9L819.84,1255.25L802.21,1255.25L802.21,1177.78L820,1177.78L842.34,1222.47L841.67,1214.12ZM958.9,1224.85C958.9,1234.91 956.47,1242.81 951.61,1248.56C946.75,1254.31 940.103,1257.18 931.67,1257.18C922.23,1257.18 914.94,1253.63 909.8,1246.53C904.66,1239.43 902.087,1229.3 902.08,1216.15C902.08,1202.88 904.643,1192.81 909.77,1185.94C914.897,1179.07 922.39,1175.63 932.25,1175.64C943.323,1175.64 951.323,1181.54 956.25,1193.34L939.48,1200.25C938.447,1198.27 937.137,1196.44 935.59,1194.82C934.237,1193.62 932.464,1193.01 930.66,1193.11C927.1,1193.11 924.577,1194.98 923.09,1198.71C921.603,1202.44 920.857,1208.49 920.85,1216.85C920.85,1224.62 921.69,1230.33 923.37,1233.99C925.05,1237.65 927.717,1239.48 931.37,1239.48C937.25,1239.48 940.29,1235.28 940.49,1226.89L932.3,1226.89L932.3,1211.89L958.9,1211.89L958.9,1224.85ZM958.9,1125.32L123.22,1125.32L123.22,1121L958.9,1121L958.9,1125.32ZM149.55,1062.77C152.333,1066.66 156.881,1068.91 161.66,1068.77C164.622,1068.67 167.548,1068.09 170.32,1067.04L170.32,1085.36C167.119,1086.47 163.766,1087.07 160.38,1087.15C150.253,1087.15 142.037,1083.34 135.73,1075.73C129.423,1068.12 126.273,1058.12 126.28,1045.73C126.28,1034.21 129.46,1024.7 135.82,1017.21C141.685,1009.95 150.589,1005.8 159.92,1005.97C163.443,1005.93 166.951,1006.44 170.32,1007.47L170.32,1025.85C167.275,1024.78 164.077,1024.22 160.85,1024.17C156.303,1024.17 152.527,1026.25 149.52,1030.42C146.513,1034.59 145.007,1039.89 145,1046.33C145,1053.27 146.517,1058.75 149.55,1062.77ZM212.11,1085.28L232.57,1008.13L252.22,1008.13L272.68,1085.28L254.48,1085.28L251.53,1072.4L233,1072.4L230,1085.28L212.11,1085.28ZM369.03,1085.28L350.53,1085.28L336.37,1050.14L336.08,1050.14L336.08,1085.28L318.57,1085.28L318.57,1008.13L339,1008.13C347.253,1008.13 353.767,1010.25 358.54,1014.48C363.313,1018.71 365.7,1024.48 365.7,1031.77C365.694,1035.55 364.767,1039.26 363,1042.6C361.271,1046.01 358.495,1048.77 355.08,1050.49L369.03,1085.28ZM415.96,1085.28L415.96,1008.13L432.31,1008.13C443.643,1008.13 452.257,1011.36 458.15,1017.81C464.043,1024.26 466.993,1033.69 467,1046.1C467,1055.5 465.547,1063.09 462.64,1068.87C460.078,1074.29 455.785,1078.7 450.44,1081.41C445.05,1084.03 439.122,1085.35 433.13,1085.28L415.96,1085.28ZM548.89,1038.76L548.89,1054.76L533.34,1054.76L533.34,1068.76L551.34,1068.76L551.34,1085.23L515.83,1085.23L515.83,1008.08L551.26,1008.08L551.26,1024.49L533.34,1024.49L533.34,1038.71L548.89,1038.76ZM641.54,1044.31L641.54,1008.13L659.05,1008.13L659.05,1085.28L641.05,1085.28L619.25,1041.48L619.72,1051.07L619.72,1085.28L602.24,1085.28L602.24,1008.13L619.92,1008.13L642.17,1052.63L641.54,1044.31ZM709.16,1045.52C709.16,1033.08 711.617,1023.38 716.53,1016.42C721.443,1009.46 728.29,1005.99 737.07,1006C746.403,1006 753.563,1009.49 758.55,1016.46C763.537,1023.43 766.01,1033.39 765.97,1046.34C765.97,1059.29 763.533,1069.34 758.66,1076.48C753.787,1083.62 746.843,1087.19 737.83,1087.2C728.497,1087.2 721.387,1083.63 716.5,1076.48C711.613,1069.33 709.167,1059.01 709.16,1045.52ZM839.43,1039.05C843.4,1041.91 846.957,1045.3 850,1049.13C853.521,1053.35 855.419,1058.69 855.35,1064.19C855.514,1070.46 852.96,1076.5 848.35,1080.75C843.683,1085.12 837.77,1087.3 830.61,1087.31C825.557,1087.27 820.578,1086.08 816.05,1083.84L816.05,1065.84C821.59,1069.08 826.257,1070.7 830.05,1070.7C831.955,1070.8 833.825,1070.15 835.25,1068.88C836.547,1067.62 837.242,1065.86 837.16,1064.05C837.149,1062.47 836.606,1060.95 835.62,1059.72C834.075,1057.87 832.301,1056.22 830.34,1054.81C824.293,1050.18 819.91,1045.88 817.19,1041.89C814.496,1037.97 813.075,1033.32 813.12,1028.57C813.12,1021.9 815.22,1016.47 819.42,1012.27C823.62,1008.07 829.053,1005.97 835.72,1005.97C840.781,1006 845.781,1007.08 850.4,1009.15L850.4,1026.43C845.2,1023.58 840.97,1022.15 837.74,1022.15C835.898,1022.05 834.08,1022.61 832.62,1023.74C831.361,1024.83 830.67,1026.44 830.75,1028.1C830.723,1031.37 833.617,1035.02 839.43,1039.05ZM940.69,1085.28L937.69,1072.4L919.25,1072.4L916.18,1085.28L898.33,1085.28L918.79,1008.13L938.44,1008.13L958.9,1085.28L940.69,1085.28ZM958.9,959.28L123.22,959.28L123.22,954.98L958.9,954.98L958.9,959.28ZM940.67,915.5L937.72,902.6L919.21,902.6L916.14,915.5L898.27,915.5L918.75,838.27L938.42,838.27L958.9,915.5L940.67,915.5Z" style="fill:rgb(34,31,31);fill-rule:nonzero;"/>
    <path d="M928.26,1025.75C926.88,1036.42 924.933,1047.34 922.42,1058.52L934.42,1058.52C931.8,1047.04 929.837,1036.12 928.53,1025.75L928.26,1025.75Z" style="fill:rgb(34,31,31);fill-rule:nonzero;"/>
    <path d="M928.24,855.91C926.847,866.577 924.897,877.513 922.39,888.72L934.39,888.72C931.757,877.22 929.79,866.283 928.49,855.91L928.24,855.91Z" style="fill:rgb(34,31,31);fill-rule:nonzero;"/>
</svg>
