<?xml version="1.0" encoding="UTF-8" standalone="no"?>
<!DOCTYPE svg PUBLIC "-//W3C//DTD SVG 1.1//EN" "http://www.w3.org/Graphics/SVG/1.1/DTD/svg11.dtd">
<svg width="100%" height="100%" viewBox="0 0 2000 514" version="1.1" xmlns="http://www.w3.org/2000/svg" xmlns:xlink="http://www.w3.org/1999/xlink" xml:space="preserve" xmlns:serif="http://www.serif.com/" style="fill-rule:evenodd;clip-rule:evenodd;stroke-linejoin:round;stroke-miterlimit:2;">
    <g>
        <g>
            <g transform="matrix(1.98061,0,0,1.98061,0,0)">
                <path d="M393.59,110.42L360,110.42C350.85,87.32 341.55,63.87 331.88,39.42C325.44,55.63 319.42,70.76 313.25,86.26L335.43,86.26L344.16,110.39L272.29,110.39C287.29,74.61 302.16,39.11 317.1,3.45L349.1,3.45C363.8,38.89 378.61,74.43 393.59,110.42Z" style="fill:rgb(233,33,37);fill-rule:nonzero;"/>
            </g>
            <g transform="matrix(1.98061,0,0,1.98061,0,0)">
                <path d="M569.18,106L569.18,0L597,0L597,26.32C608.08,24.5 618.29,25.11 628,30.06C639.85,36.06 646.51,45.88 648.93,58.66C650.679,67.523 649.91,76.702 646.71,85.15C641.59,98.57 631.57,106.65 617.95,110.42C609.405,112.68 600.486,113.153 591.75,111.81C586.159,111.155 580.628,110.058 575.21,108.53C573.092,107.973 571.062,107.121 569.18,106ZM597.18,88.18C606.67,91.27 615.39,87.56 619.43,78.9C622.516,72.54 622.68,65.141 619.88,58.65C617.369,52.399 611.278,48.281 604.541,48.281C601.994,48.281 599.482,48.869 597.2,50L597.18,88.18Z" style="fill:rgb(233,33,37);fill-rule:nonzero;"/>
            </g>
            <g transform="matrix(1.98061,0,0,1.98061,0,0)">
                <path d="M468.88,106.07C462.88,108.87 456.46,110.25 449.98,111.34C444.083,112.426 438.076,112.795 432.09,112.44C421.68,111.66 411.83,109.21 403.45,102.44C394.52,95.3 389.89,85.94 389,74.63C388.17,63.63 389.83,53.24 396,43.73C404.85,30.15 422.88,22.92 438.55,26.22C439.339,26.338 440.133,26.412 440.93,26.44L440.93,0.2L468.81,0.2L468.88,106.07ZM440.78,88.29L440.78,49.29C429.26,45.93 419.87,51.11 417.38,62.2C416.568,65.762 416.405,69.441 416.9,73.06C418.67,85.6 428.47,92 440.78,88.29Z" style="fill:rgb(233,33,37);fill-rule:nonzero;"/>
            </g>
            <g transform="matrix(1.98061,0,0,1.98061,0,0)">
                <path d="M562.12,69.15C562.52,77.995 560.123,86.744 555.27,94.15C549.51,102.88 541.33,108.15 531.27,110.75C518.79,114.03 506.84,112.66 495.73,106.19C483.26,98.93 477.3,87.45 476.12,73.38C475.429,66.413 476.237,59.378 478.49,52.75C482.96,40.15 491.63,31.75 504.27,27.75C516.65,23.8 528.93,24.53 540.51,30.59C554.18,37.72 560.84,49.59 562.07,64.67C562.23,66.14 562.12,67.65 562.12,69.15ZM534.32,68.61C534.32,64.76 533.95,61.01 532.21,57.46C529.56,52.04 525.3,48.89 519.32,48.78C513.632,48.467 508.344,51.84 506.23,57.13C502.888,64.493 502.844,72.943 506.11,80.34C508.53,86.05 512.87,89.08 519.41,89C525.73,88.92 530.71,85 532.91,78.92C533.981,75.593 534.458,72.103 534.32,68.61Z" style="fill:rgb(233,33,37);fill-rule:nonzero;"/>
            </g>
            <g transform="matrix(1.98061,0,0,1.98061,0,0)">
                <path d="M737.15,76.77L685.73,76.77C684.6,78.21 685.53,79.16 686.05,80.13C689.48,86.51 695.05,89.69 702.05,90.47C710.351,91.321 718.735,90.129 726.47,87C727.99,86.42 729.47,85.88 731.72,85.08C732.06,92.41 731.82,99.27 731.9,106.08C727.609,108.445 722.951,110.071 718.12,110.89C706.534,113.433 694.462,112.653 683.3,108.64C662.67,101.13 653.78,81.19 656.64,61.69C658.33,50.18 663.16,40.52 672.55,33.46C690.89,19.66 719.28,24.36 730.78,41.52C737.94,52.22 739.07,64 737.15,76.77ZM711,59.29C710.65,52.12 706,47.23 699,46.58C692,45.93 686.43,50.84 684.79,59.29L711,59.29Z" style="fill:rgb(233,33,37);fill-rule:nonzero;"/>
            </g>
        </g>
        <g>
            <g transform="matrix(1.98061,0,0,1.98061,0,0)">
                <path d="M982,172.73L982,146.73L1009.76,146.73L1009.76,252.51C1004.76,255.13 999.23,256.32 993.76,257.31C985.41,258.8 976.95,259.61 968.45,258.48C952.29,256.35 939.19,249.39 932.77,233.63C924.6,213.56 930.77,186.37 953.69,175.89C960.338,172.787 967.697,171.519 975,172.22C977.15,172.42 979.31,172.53 982,172.73ZM981.79,235L981.79,195.73C979.725,194.883 977.514,194.448 975.282,194.448C967.53,194.448 960.696,199.7 958.7,207.19C957.789,209.859 957.32,212.66 957.31,215.48C957.5,221.03 958.42,226.42 962.54,230.64C967.92,236.16 974.5,236.31 981.79,235Z" style="fill:rgb(8,8,8);fill-rule:nonzero;"/>
            </g>
            <g transform="matrix(1.98061,0,0,1.98061,0,0)">
                <path d="M699.86,153.18L699.86,180.52C696.92,179.32 694.23,178.07 691.44,177.13C682.13,173.99 672.92,173.87 663.84,178.13C653.01,183.23 647.22,195.31 648.45,206.99C650.58,227.36 668.97,234.22 683.78,232.05C689.458,231.151 694.943,229.295 700,226.56L700,253.27C695.545,255.911 690.584,257.587 685.44,258.19C668.44,260.6 652.26,258.19 637.87,248.19C624.49,238.92 617.43,225.93 615.99,209.75C614.99,198.06 616.53,186.85 622.28,176.53C630.56,161.67 643.58,153.07 659.96,149.53C670.876,147.057 682.238,147.335 693.02,150.34C695.396,151.036 697.689,151.989 699.86,153.18Z" style="fill:rgb(8,8,8);fill-rule:nonzero;"/>
            </g>
            <g transform="matrix(1.98061,0,0,1.98061,0,0)">
                <path d="M84.11,226.61L84.11,253.25C80.11,255.85 75.66,256.93 71.11,257.77C55,260.77 39.61,258.55 25.5,250.2C10.5,241.31 2.15,227.71 0.4,210.46C-1.27,194.09 2.49,179.06 13.81,166.56C21.347,158.272 31.265,152.514 42.2,150.08C56.26,146.73 70.2,146.85 83.96,152.72L83.96,180.38C81.84,179.44 79.87,178.44 77.81,177.69C66.11,173.38 54.7,173.19 44.09,180.64C37.3,185.4 33.79,192.17 33,200.39C32.09,210.39 34.48,219.3 42.69,225.77C49.98,231.52 58.45,233.26 67.58,232.09C73.392,231.346 79.005,229.485 84.11,226.61Z" style="fill:rgb(8,8,8);fill-rule:nonzero;"/>
            </g>
            <g transform="matrix(1.98061,0,0,1.98061,0,0)">
                <path d="M894.71,173.59L922.59,173.59L922.59,257.14L895.19,257.14L895.19,249.7C893.68,249.44 893.19,250.47 892.53,251.14C882.27,261.73 863.18,260.4 854.1,252.67C846.79,246.45 844.3,238.26 844.18,229.17C844,215.17 844.18,201.17 844.18,187.17L844.18,173.67L872.3,173.67L872.3,220.07C872.236,222.235 872.404,224.401 872.8,226.53C874.32,233.6 880.05,237.03 887.02,234.92C888.275,234.503 889.499,233.995 890.68,233.4C893.68,232 894.9,229.86 894.85,226.33C894.65,209.68 894.76,193.03 894.76,176.33L894.71,173.59Z" style="fill:rgb(8,8,8);fill-rule:nonzero;"/>
            </g>
            <g transform="matrix(1.98061,0,0,1.98061,0,0)">
                <path d="M794.13,258.53C776.84,258.12 762.99,251.47 755.75,235.14C748.88,219.63 749.48,203.88 759.02,189.56C768.14,175.86 782.08,171.25 798.02,172.03C806.543,172.302 814.776,175.209 821.58,180.35C834.86,190.52 839.06,204.49 837.73,220.49C837.237,228.496 834.379,236.178 829.52,242.56C821.52,252.74 810.93,257.75 798.17,258.56C796.79,258.6 795.46,258.53 794.13,258.53ZM810.03,215.43C810.192,211.948 809.598,208.471 808.29,205.24C805.78,198.7 800.98,195.31 794.34,195.38C788.01,195.44 783.4,198.81 781.02,205.38C778.509,212.115 778.602,219.55 781.28,226.22C783.356,231.791 788.706,235.507 794.652,235.507C800.636,235.507 806.012,231.743 808.06,226.12C809.486,222.743 810.149,219.093 810,215.43L810.03,215.43Z" style="fill:rgb(8,8,8);fill-rule:nonzero;"/>
            </g>
            <g transform="matrix(1.98061,0,0,1.98061,0,0)">
                <path d="M582.19,223.41L530,223.41C532.55,230.86 537.59,234.72 544.54,236.46C553.48,238.69 562,236.58 570.44,233.88C572.44,233.22 574.44,232.39 576.77,231.53L576.77,252.71C571.56,255.71 565.61,257.24 559.54,257.97C547.54,259.4 535.68,258.89 524.49,253.44C507.07,244.95 499.94,228.05 501.49,210.74C502.19,202.74 504.49,195.1 509.34,188.5C518.39,176.2 530.9,171.26 545.79,172.01C554.502,172.28 562.879,175.448 569.59,181.01C578.25,188.26 582.27,197.9 582.99,208.92C583.31,213.63 583.67,218.49 582.19,223.41ZM556.33,205.41C555.11,197.26 550.52,193.16 542.85,193.22C536.09,193.27 531.27,197.83 530.17,205.41L556.33,205.41Z" style="fill:rgb(8,8,8);fill-rule:nonzero;"/>
            </g>
            <g transform="matrix(1.98061,0,0,1.98061,0,0)">
                <path d="M228.8,223.53L176.71,223.53C177.824,228.243 181.019,232.204 185.39,234.29C190.466,236.846 196.191,237.831 201.83,237.12C209.143,236.317 216.286,234.377 223,231.37L223,252.67C217.12,256.09 210.62,257.5 204.07,258.16C192.02,259.37 180.22,258.48 169.25,252.48C156.25,245.38 149.31,234.48 148.02,219.82C147.18,210.38 148.36,201.3 153.02,192.82C159.46,181.1 169.31,174.41 182.48,172.36C192.043,170.747 201.875,172.448 210.34,177.18C221.7,183.44 227.42,193.48 229.04,206.03C229.79,211.65 229.41,217.27 228.8,223.53ZM203,205.13C200.5,196.26 195.92,192.56 188.38,193.13C182.01,193.62 177.6,198.13 176.49,205.69L199.31,205.69C200.44,205.67 201.63,206 203,205.13Z" style="fill:rgb(8,8,8);fill-rule:nonzero;"/>
            </g>
            <g transform="matrix(1.98061,0,0,1.98061,0,0)">
                <path d="M307.94,252.08C293.64,257.89 279.08,259.56 264.16,258.42C257.684,257.991 251.405,256.016 245.85,252.66C237.94,247.82 233.97,240.66 234.34,231.45C234.73,221.64 239.6,214.56 248.51,210.34C257.71,205.98 267.43,205.77 277.29,206.95C278.42,207.09 279.54,207.36 280.67,207.56C281.67,201.75 279.74,197.93 274.58,195.41C270.06,193.21 265.29,193.23 260.45,193.85C253.16,194.79 246.38,197.41 239.37,200.6L239.37,178.92C245.12,175.51 251.68,173.84 258.37,172.72C267.81,171.15 277.21,171.29 286.43,174.4C299.52,178.82 307.91,189.72 308.13,203.48C308.37,219.13 308.24,234.78 308.26,250.48C308.192,251.02 308.085,251.555 307.94,252.08ZM281.57,225.18C275.75,224.18 270.37,223.36 265.12,225.55C260.88,227.32 259.53,231.88 261.88,235.37C263.096,236.957 264.843,238.054 266.8,238.46C271.586,239.846 276.691,239.671 281.37,237.96C281.87,233.81 281.61,229.86 281.57,225.18Z" style="fill:rgb(8,8,8);fill-rule:nonzero;"/>
            </g>
            <g transform="matrix(1.98061,0,0,1.98061,0,0)">
                <path d="M413,173.53L443.62,173.53C446.22,181.93 448.84,190.42 451.49,198.9C454.14,207.38 456.82,215.83 459.78,225.21L475.9,173.65L504.53,173.65C494.79,201.6 485.14,229.28 475.41,257.17L442.29,257.17C432.637,229.683 422.873,201.803 413,173.53Z" style="fill:rgb(8,8,8);fill-rule:nonzero;"/>
            </g>
            <g transform="matrix(1.98061,0,0,1.98061,0,0)">
                <path d="M328.1,196.32L312.16,196.32C312.1,188.66 312.16,181.32 312.16,173.47L328,173.47L328,151.76L355.7,149.94C356.79,153.68 356.04,157.5 356.17,161.25C356.3,165 356.17,168.88 356.17,173.19L376.24,173.19L376.24,196.32L356.16,196.32L356.16,207C356.16,212.83 356.06,218.66 356.16,224.49C356.32,231.79 359.38,234.76 366.61,234.83C370.025,234.923 373.417,234.239 376.53,232.83C376.58,237.07 376.64,240.63 376.66,244.19C376.68,247.75 376.66,251.19 376.66,254.8C373.82,256.93 370.47,257.3 367.27,257.8C360.046,259.174 352.588,258.646 345.63,256.27C335,252.57 328.38,243 328.16,231C327.99,221.17 328.11,211.34 328.1,201.51L328.1,196.32Z" style="fill:rgb(8,8,8);fill-rule:nonzero;"/>
            </g>
            <g transform="matrix(1.98061,0,0,1.98061,0,0)">
                <path d="M708.09,146.54L736,146.54C737.18,147.93 736.65,149.54 736.65,150.91C736.69,174.723 736.69,198.53 736.65,222.33L736.65,225.33C736.29,233.86 741.24,235.57 747.78,234.04C748.39,233.9 749.01,233.73 749.89,233.5L749.89,256.15C740.72,259.51 731.67,259.48 722.8,255.5C712.9,251.05 709.13,242.5 708.16,232.36C708,230.71 708.09,229.04 708.09,227.36L708.09,146.54Z" style="fill:rgb(8,8,8);fill-rule:nonzero;"/>
            </g>
            <g transform="matrix(1.98061,0,0,1.98061,0,0)">
                <path d="M121.09,184.1C127.19,175.1 135.02,171.15 145.4,171.65L145.4,198.14C142.05,198.33 138.68,197.28 135.23,198.14C132.48,198.7 129.821,199.639 127.33,200.93C123.09,203.3 120.43,206.1 120.7,211.93C121.3,225.21 120.9,238.54 120.87,251.85C120.87,253.49 121.2,255.16 120.43,257.1L93,257.1L93,173.71L120.32,173.71C121.2,176.7 120.3,179.9 121.09,184.1Z" style="fill:rgb(8,8,8);fill-rule:nonzero;"/>
            </g>
            <g transform="matrix(1.98061,0,0,1.98061,0,0)">
                <path d="M382.39,173.66L410.08,173.66L410.08,257.39C405.62,257.53 401.02,257.39 396.44,257.44C391.86,257.49 387.44,257.44 383.01,257.44C381.88,253.41 381.46,193.51 382.39,173.66Z" style="fill:rgb(8,8,8);fill-rule:nonzero;"/>
            </g>
            <g transform="matrix(1.98061,0,0,1.98061,0,0)">
                <path d="M396.53,135.38C403.32,135.72 408.62,138.44 411.63,144.84C416.06,154.29 409.48,164.45 400.41,166.35C394.09,167.68 388.12,166.45 383.66,161.26C379.38,156.26 378.54,150.52 381.22,144.59C384.12,138.14 389.69,135.63 396.53,135.38Z" style="fill:rgb(8,8,8);fill-rule:nonzero;"/>
            </g>
        </g>
    </g>
</svg>
