<?xml version="1.0" encoding="UTF-8" standalone="no"?>
<!DOCTYPE svg PUBLIC "-//W3C//DTD SVG 1.1//EN" "http://www.w3.org/Graphics/SVG/1.1/DTD/svg11.dtd">
<svg width="100%" height="100%" viewBox="0 0 2500 453" version="1.1" xmlns="http://www.w3.org/2000/svg" xmlns:xlink="http://www.w3.org/1999/xlink" xml:space="preserve" xmlns:serif="http://www.serif.com/" style="fill-rule:evenodd;clip-rule:evenodd;stroke-linejoin:round;stroke-miterlimit:2;">
    <g transform="matrix(6.18429,0,0,6.18429,0,0)">
        <g>
            <g transform="matrix(1,0,0,1,0,-0.21)">
                <path d="M404.25,20.25C403.76,20.56 403.88,21.15 403.81,21.56C403.139,25.372 401.592,28.977 399.29,32.09C397.046,35.17 394.137,37.707 390.78,39.51C388.04,41.028 385.076,42.101 382,42.69C380.179,43.059 378.328,43.253 376.47,43.27L359.27,43.27C359.13,42.11 359.65,41.05 359.78,39.94C359.953,38.768 360.19,37.606 360.49,36.46C360.73,35.35 361,34.24 361.29,33.01L377.11,33.01C379.171,33.004 381.217,32.666 383.17,32.01C385.992,31.11 388.383,29.196 389.88,26.64C391.31,24.396 392.047,21.78 392,19.12C391.994,15.703 389.589,12.726 386.25,12C384.897,11.64 383.5,11.471 382.1,11.5L377.54,11.5C376.43,16.79 375.33,22.02 374.24,27.25L362.49,27.25C364.32,18.45 366.13,9.75 368,1L369.36,1C374.69,1 380.03,0.93 385.36,1C389.022,0.969 392.645,1.762 395.96,3.32C399.918,5.171 402.812,8.744 403.8,13C403.9,13.42 403.8,14 404.25,14.3L404.25,20.25Z" style="fill:rgb(250,218,32);fill-rule:nonzero;"/>
            </g>
            <g transform="matrix(1,0,0,1,0,-0.21)">
                <path d="M0,43C0.182,42.523 0.335,42.035 0.46,41.54C1.01,38.9 1.52,36.26 2.06,33.54L13.77,33.54C13.67,34.18 13.61,34.81 13.48,35.43C12.99,37.83 12.48,40.23 11.99,42.63C11.977,42.983 11.684,43.266 11.33,43.266C11.3,43.266 11.27,43.264 11.24,43.26L0,43.26L0,43Z" style="fill:rgb(250,218,32);fill-rule:nonzero;"/>
            </g>
            <g transform="matrix(1,0,0,1,0,-0.21)">
                <path d="M357.13,27.22L344.67,27.22C345,26.54 345.27,25.95 345.55,25.37C346.617,23.365 347.118,21.108 347,18.84C346.72,15.41 345.25,12.66 341.82,11.44C340.321,10.891 338.711,10.72 337.13,10.94C333.963,11.355 331.05,12.901 328.93,15.29C326.973,17.407 325.682,20.054 325.22,22.9C324.822,24.883 325.035,26.941 325.83,28.8C326.824,31.158 328.958,32.85 331.48,33.28C332.537,33.458 333.609,33.531 334.68,33.5L353.32,33.5C353.12,33.846 352.9,34.18 352.66,34.5C350.935,36.398 348.984,38.077 346.85,39.5C344.706,40.939 342.374,42.076 339.92,42.88C338.082,43.467 336.183,43.843 334.26,44C332.99,44.165 331.709,44.225 330.43,44.18C325.37,43.84 320.77,42.34 317.2,38.51C315.243,36.439 313.864,33.891 313.2,31.12C312.703,29.07 312.551,26.95 312.75,24.85C312.965,22.196 313.641,19.601 314.75,17.18C315.795,14.845 317.139,12.657 318.75,10.67C321.396,7.46 324.692,4.846 328.42,3C330.761,1.848 333.247,1.017 335.81,0.53C337.901,0.214 340.019,0.116 342.13,0.24C345.762,0.31 349.293,1.459 352.27,3.54C355.527,5.782 357.841,9.154 358.76,13C359.309,15.253 359.458,17.585 359.2,19.89C359.056,22.456 358.349,24.958 357.13,27.22Z" style="fill:rgb(250,218,32);fill-rule:nonzero;"/>
            </g>
            <g transform="matrix(1,0,0,1,0,-0.21)">
                <path d="M264.7,33.52L284.61,33.52C287.18,33.48 289.672,32.63 291.73,31.09C293.725,29.665 295.312,27.741 296.33,25.51C297.415,23.417 297.89,21.06 297.7,18.71C297.34,15.33 295.8,12.71 292.48,11.4C290.506,10.659 288.349,10.55 286.31,11.09C283.906,11.684 281.718,12.946 280,14.73C277.895,16.835 276.496,19.544 276,22.48C275.765,24.021 275.765,25.589 276,27.13C271.884,27.372 267.759,27.405 263.64,27.23C263.474,26.301 263.474,25.349 263.64,24.42C263.871,22.678 264.262,20.96 264.81,19.29C265.815,16.406 267.28,13.705 269.15,11.29C272.323,7.224 276.515,4.067 281.3,2.14C283.349,1.304 285.496,0.736 287.69,0.45C289.539,0.204 291.409,0.147 293.27,0.28C297.793,0.45 302.094,2.305 305.32,5.48C307.414,7.602 308.86,10.277 309.49,13.19C309.917,14.871 310.083,16.608 309.98,18.34C309.737,22.277 308.602,26.107 306.66,29.54C305.095,32.272 303.103,34.736 300.76,36.84C298.459,38.913 295.838,40.601 293,41.84C291.173,42.663 289.257,43.27 287.29,43.65C286.29,43.82 285.29,43.93 284.36,44.05C283.63,44.14 282.89,44.24 282.16,44.26C281.67,44.26 281.16,44.09 280.7,44.08C276.844,44.047 273.096,42.789 270,40.49C267.58,38.746 265.734,36.318 264.7,33.52Z" style="fill:rgb(250,218,32);fill-rule:nonzero;"/>
            </g>
            <g transform="matrix(1,0,0,1,0,-0.21)">
                <path d="M204.41,11.28L190.88,11.28C189.72,11.28 189.69,11.28 189.44,12.4C188.94,14.63 188.44,16.87 188,19.11C187.49,21.59 187,24.11 186.47,26.56C186.398,26.793 186.293,27.015 186.16,27.22L174.55,27.22C175.65,21.92 176.74,16.69 177.84,11.4C176.782,11.265 175.714,11.228 174.65,11.29L165.2,11.29C165.93,7.81 166.62,4.47 167.33,1.07L214.67,1.07C214.79,2.41 214.88,3.72 215.02,5.07C215.16,6.42 215.33,7.76 215.48,9.07C215.58,10.07 215.66,11.07 215.73,12.07C215.84,13.47 215.89,14.87 216.03,16.27C216.24,18.48 216.51,20.68 216.73,22.88C216.86,24.32 216.94,25.75 217.04,27.27L206.52,27.27C206.35,26.2 206.16,25.08 206.01,23.95C205.75,22.037 205.503,20.123 205.27,18.21C205.07,16.54 204.92,14.86 204.73,13.21C204.66,12.55 204.54,12 204.41,11.28Z" style="fill:rgb(250,218,32);fill-rule:nonzero;"/>
            </g>
            <g transform="matrix(1,0,0,1,0,-0.21)">
                <path d="M233.3,27.19C232.93,24.61 232.56,22.1 232.17,19.44C231.42,20.75 230.72,21.95 230.04,23.16C229.36,24.37 228.82,25.3 228.28,26.41C228.06,26.999 227.465,27.367 226.84,27.3L217.21,27.3C217.84,26.08 218.41,24.96 218.99,23.85L223.49,15.35C225.89,10.81 228.283,6.263 230.67,1.71C230.9,1.27 231.1,0.99 231.67,0.99L240.79,0.99C240.79,0.99 240.86,1.04 240.96,1.12C241.06,2.12 241.15,3.17 241.26,4.23C241.41,5.57 241.58,6.92 241.72,8.23C241.83,9.23 241.91,10.23 241.98,11.23C242.08,12.55 242.15,13.87 242.27,15.18C242.39,16.49 242.59,17.71 242.72,18.97C242.83,19.97 242.91,20.97 242.98,21.97C243.09,23.41 243.17,24.85 243.29,26.3C243.346,26.594 243.429,26.882 243.54,27.16C244.01,26.31 244.41,25.63 244.76,24.93C247.61,19.27 250.43,13.6 253.29,7.93C254.44,5.66 255.65,3.42 256.88,1.08L268.83,1.08C268.07,2.52 267.38,3.86 266.65,5.19C265.92,6.52 265.08,7.98 264.32,9.39C262.32,13.16 260.32,16.93 258.26,20.7C257.19,22.7 256.08,24.7 255.04,26.7C254.884,27.108 254.476,27.369 254.04,27.34L233.67,27.34C233.539,27.311 233.414,27.26 233.3,27.19Z" style="fill:rgb(250,218,32);fill-rule:nonzero;"/>
            </g>
            <g transform="matrix(1,0,0,1,0,-0.21)">
                <path d="M86.84,1.05L120.71,1.05C120.02,4.37 119.33,7.63 118.64,10.96L96.34,10.96C95.72,13.08 95.4,15.23 94.95,17.48L109,17.48C108.3,20.81 107.63,24.03 107,27.25L81.43,27.25L81.32,27.16C81.312,27.124 81.312,27.086 81.32,27.05C83.08,18.57 84.843,10.09 86.61,1.61C86.665,1.415 86.742,1.227 86.84,1.05Z" style="fill:rgb(250,218,32);fill-rule:nonzero;"/>
            </g>
            <g transform="matrix(1,0,0,1,0,-0.21)">
                <path d="M136,17.46L149.73,17.46C149.776,17.889 149.776,18.321 149.73,18.75C149.19,21.26 148.61,23.75 148.05,26.28C148.009,26.558 147.982,26.839 147.97,27.12C146.97,27.33 125.04,27.41 122.35,27.22C122,26.43 122.45,25.68 122.59,24.96C123.25,21.38 124.03,17.83 124.8,14.27C125.6,10.52 126.43,6.77 127.24,3.02C127.38,2.39 127.46,1.74 127.58,1.02L161.58,1.02C161.39,2.76 160.88,4.39 160.58,6.02C160.28,7.65 159.94,9.29 159.51,10.95L138.53,10.95C138.241,10.91 137.949,10.91 137.66,10.95C137.43,11.02 137.08,11.22 137.04,11.41C136.66,13.13 136.33,14.86 136.04,16.58C136.002,16.872 135.989,17.166 136,17.46Z" style="fill:rgb(250,218,32);fill-rule:nonzero;"/>
            </g>
            <g transform="matrix(1,0,0,1,0,-0.21)">
                <path d="M17.34,17.49L31.08,17.49C30.66,20.84 29.72,23.97 29.2,27.22L3.6,27.22C3.54,26.27 5,19.45 6.16,14.13C7.16,9.83 7.95,5.49 8.83,1.13C9.83,0.91 38.47,0.82 42.69,1.03C42.795,1.828 42.695,2.641 42.4,3.39C42,5.7 41.47,8 41,10.25C40.86,10.93 40.82,11 40.12,11.01L19.75,11.01C19.461,10.98 19.169,10.98 18.88,11.01C18.67,11.06 18.34,11.24 18.33,11.4C18.11,13.35 17.33,15.2 17.26,17.19C17.25,17.25 17.28,17.28 17.34,17.49Z" style="fill:rgb(250,218,32);fill-rule:nonzero;"/>
            </g>
            <g transform="matrix(1,0,0,1,0,-0.21)">
                <path d="M77.93,43.24C78.05,42.54 78.14,41.94 78.26,41.35C78.75,38.95 79.26,36.56 79.74,34.15C79.85,33.63 80.09,33.44 80.59,33.48L114.24,33.48C113.54,36.81 112.87,40.02 112.24,43.24L77.93,43.24Z" style="fill:rgb(250,218,32);fill-rule:nonzero;"/>
            </g>
            <g transform="matrix(1,0,0,1,0,-0.21)">
                <path d="M118.77,43.27L120.77,33.54L155,33.54C155.03,33.816 155.03,34.094 155,34.37C154.43,37.09 153.83,39.8 153.29,42.52C153.18,43.1 152.93,43.31 152.38,43.27L118.76,43.27L118.77,43.27Z" style="fill:rgb(250,218,32);fill-rule:nonzero;"/>
            </g>
            <g transform="matrix(1,0,0,1,0,-0.21)">
                <path d="M39.69,43.21C39.92,42 40.13,40.89 40.36,39.78C40.74,37.94 41.13,36.1 41.5,34.25C41.64,33.57 41.68,33.52 42.37,33.49L73.66,33.49C73.789,34.342 73.686,35.213 73.36,36.01C72.92,38.38 72.36,40.73 71.89,43.11C70.93,43.34 44.2,43.45 39.69,43.21Z" style="fill:rgb(250,218,32);fill-rule:nonzero;"/>
            </g>
            <g transform="matrix(1,0,0,1,0,-0.21)">
                <path d="M48.46,1.05L60.22,1.05L54.75,27.23L43,27.23C44.82,18.46 46.64,9.76 48.46,1.05Z" style="fill:rgb(250,218,32);fill-rule:nonzero;"/>
            </g>
            <g transform="matrix(1,0,0,1,0,-0.21)">
                <path d="M207.22,33.33L224.22,33.33C224.185,33.569 224.125,33.804 224.04,34.03C222.35,37.09 220.65,40.14 218.97,43.2C218.825,43.545 218.473,43.759 218.1,43.73L208.57,43.73C208.428,43.476 208.324,43.204 208.26,42.92C208.07,39.72 207.4,36.58 207.22,33.33Z" style="fill:rgb(250,218,32);fill-rule:nonzero;"/>
            </g>
            <g transform="matrix(1,0,0,1,0,-0.21)">
                <path d="M234.18,33.52L251.29,33.52C249.46,36.91 247.67,40.22 245.9,43.52L235.58,43.52C235.11,40.17 234.66,36.9 234.18,33.52Z" style="fill:rgb(250,218,32);fill-rule:nonzero;"/>
            </g>
            <g transform="matrix(1,0,0,1,0,-0.21)">
                <path d="M171.2,43.24L173.2,33.53L185,33.53C184.32,36.8 183.65,40.02 183,43.24L171.2,43.24Z" style="fill:rgb(250,218,32);fill-rule:nonzero;"/>
            </g>
        </g>
        <g>
            <g transform="matrix(1,0,0,1,0,-0.21)">
                <path d="M265.54,55.57L270.54,55.57C270.28,56.57 270.04,57.51 269.78,58.44C268.95,61.44 268.18,64.51 267.25,67.5C266.599,69.864 264.877,71.79 262.6,72.7C262.147,72.9 261.67,73.038 261.18,73.11C259.422,73.444 257.613,73.406 255.87,73C253.24,72.459 251.391,70.039 251.56,67.36C251.555,66.349 251.676,65.341 251.92,64.36C252.6,61.64 253.37,58.94 254.11,56.23C254.186,55.997 254.28,55.769 254.39,55.55L259.31,55.55C258.65,57.97 258.01,60.31 257.39,62.66C257.14,63.57 256.92,64.5 256.72,65.43C256.39,66.9 256.72,67.94 257.72,68.43C258.916,69.065 260.388,68.898 261.41,68.01C261.983,67.521 262.406,66.879 262.63,66.16C263.26,63.86 263.93,61.56 264.57,59.25C264.87,58.09 265.2,56.83 265.54,55.57Z" style="fill:rgb(8,10,11);fill-rule:nonzero;"/>
            </g>
            <g transform="matrix(1,0,0,1,0,-0.21)">
                <path d="M270,70.1L273.39,67.1L274.2,67.71C275.307,68.542 276.622,69.054 278,69.19C278.607,69.265 279.222,69.2 279.8,69C280.205,68.863 280.48,68.48 280.48,68.053C280.48,67.684 280.276,67.343 279.95,67.17C279.146,66.733 278.318,66.343 277.47,66C276.83,65.71 276.19,65.43 275.57,65.11C272.26,63.41 272.68,59.8 274.22,57.93C275.477,56.404 277.308,55.46 279.28,55.32C281.852,54.969 284.466,55.566 286.63,57L287.14,57.35L287.71,57.7C286.888,58.866 285.961,59.954 284.94,60.95C284.65,61.25 284.34,61 284.04,60.83C283.35,60.386 282.624,60.002 281.87,59.68C281.079,59.311 280.181,59.237 279.34,59.47C279.103,59.537 278.878,59.638 278.67,59.77C278.388,59.91 278.209,60.199 278.209,60.514C278.209,60.848 278.411,61.152 278.72,61.28C279.4,61.67 280.14,61.95 280.85,62.28C281.56,62.61 282.59,63.03 283.41,63.5C285.81,64.88 286.17,67.35 285.15,69.65C284.415,71.314 282.927,72.53 281.15,72.92C277.791,73.897 274.164,73.277 271.32,71.24C270.88,70.92 270.52,70.53 270,70.1Z" style="fill:rgb(8,10,11);fill-rule:nonzero;"/>
            </g>
            <g transform="matrix(1,0,0,1,0,-0.21)">
                <path d="M305.17,59.91L300.17,59.91C299.692,60.764 299.38,61.7 299.25,62.67C298.35,65.92 297.49,69.18 296.61,72.44C296.61,72.59 296.5,72.74 296.43,72.95L291.51,72.95L295,60C294.1,59.91 293.24,60 292.39,60L289.81,60L291,55.58L306.2,55.58C305.954,57.045 305.61,58.491 305.17,59.91Z" style="fill:rgb(8,10,11);fill-rule:nonzero;"/>
            </g>
            <g transform="matrix(1,0,0,1,0,-0.21)">
                <path d="M359,73L345.71,73C347.25,67.17 348.81,61.43 350.37,55.62L355.31,55.62C354.13,60.03 352.98,64.35 351.79,68.78L360.07,68.78C359.69,70.21 359.33,71.55 359,73Z" style="fill:rgb(8,10,11);fill-rule:nonzero;"/>
            </g>
            <g transform="matrix(1,0,0,1,0,-0.21)">
                <path d="M367.82,73L362.91,73C364.43,67.16 366,61.42 367.55,55.64L372.48,55.64C370.93,61.4 369.39,67.12 367.82,73Z" style="fill:rgb(8,10,11);fill-rule:nonzero;"/>
            </g>
            <g transform="matrix(1,0,0,1,0,-0.21)">
                <path d="M323.8,60.54C323.785,58.631 322.588,56.919 320.8,56.25C319.558,55.775 318.239,55.534 316.91,55.54L309.93,55.54C308.36,61.4 306.81,67.15 305.25,72.98L310.18,72.98C310.66,71.22 311.18,69.49 311.61,67.82L313.67,67.82L315.92,73L318.56,73C319.474,73.042 320.39,73.016 321.3,72.92L318.69,67.17C319.01,67.06 319.24,66.98 319.46,66.89C322.55,65.72 323.82,63.79 323.8,60.54ZM318.25,62.9C317.546,63.545 316.625,63.902 315.67,63.9C315.38,63.915 315.09,63.915 314.8,63.9L312.54,63.9C312.94,62.46 313.29,61.16 313.68,59.74C314.955,59.631 316.239,59.688 317.5,59.91C318.308,60.043 318.907,60.749 318.907,61.568C318.907,62.089 318.664,62.582 318.25,62.9Z" style="fill:rgb(8,10,11);fill-rule:nonzero;"/>
            </g>
            <g transform="matrix(1,0,0,1,0,-0.21)">
                <path d="M340.08,55.46C338.79,55.46 337.59,55.52 336.39,55.46C335.639,55.385 334.916,55.785 334.58,56.46C331.58,60.81 328.58,65.13 325.58,69.46C324.79,70.61 324.02,71.78 323.16,73.06L328.01,73.06C328.349,73.067 328.662,72.875 328.81,72.57C329.261,71.977 329.678,71.359 330.06,70.72C330.315,70.178 330.913,69.879 331.5,70L337.2,70C337.35,71.06 337.49,72 337.63,73L342.78,73C341.88,67.08 341,61.3 340.08,55.46ZM333.13,66.11C334.072,64.445 335.104,62.833 336.22,61.28C336.44,63.02 336.62,64.53 336.82,66.11L333.13,66.11Z" style="fill:rgb(8,10,11);fill-rule:nonzero;"/>
            </g>
            <g transform="matrix(1,0,0,1,0,-0.21)">
                <path d="M246.27,55.46L242.68,55.46C241.44,55.46 241.45,55.46 240.78,56.46L230.59,71.16C230.2,71.72 229.84,72.3 229.39,73L234.64,73L236.23,70.79L236.28,70.68C236.518,70.181 237.066,69.901 237.61,70L242.61,70C242.88,70 243.16,70 243.42,70.07C243.57,71.07 243.71,72.02 243.84,72.96L249,72.96C248.08,67.07 247.18,61.3 246.27,55.46ZM239.27,66.12C240.33,64.48 241.35,62.92 242.45,61.21C242.67,62.97 242.86,64.51 243.06,66.12L239.27,66.12Z" style="fill:rgb(8,10,11);fill-rule:nonzero;"/>
            </g>
            <g transform="matrix(1,0,0,1,0,-0.21)">
                <path d="M387.94,55.49L383.11,55.49L371.05,73L376.42,73L378.42,70.07L385.09,70.07C385.26,71.07 385.42,72.07 385.58,73.07L388.14,73.07C388.991,73.134 389.847,73.097 390.69,72.96C389.757,67.067 388.84,61.243 387.94,55.49ZM381.12,66.14C381.901,64.466 382.911,62.907 384.12,61.51C384.32,63.05 384.51,64.51 384.71,66.14L381.12,66.14Z" style="fill:rgb(8,10,11);fill-rule:nonzero;"/>
            </g>
        </g>
    </g>
</svg>
