<?xml version="1.0" encoding="UTF-8" standalone="no"?>
<!DOCTYPE svg PUBLIC "-//W3C//DTD SVG 1.1//EN" "http://www.w3.org/Graphics/SVG/1.1/DTD/svg11.dtd">
<svg width="100%" height="100%" viewBox="0 0 1968 1933" version="1.1" xmlns="http://www.w3.org/2000/svg" xmlns:xlink="http://www.w3.org/1999/xlink" xml:space="preserve" xmlns:serif="http://www.serif.com/" style="fill-rule:evenodd;clip-rule:evenodd;stroke-linejoin:round;stroke-miterlimit:2;">
    <g id="Layer-1" serif:id="Layer 1" transform="matrix(124.329,0,0,124.329,10553.7,-24006.6)">
        <rect id="rect24292" x="-83.768" y="193.09" width="13.726" height="15.543" style="fill:white;"/>
        <g id="polygon24294" transform="matrix(0.264583,0,0,0.264583,-84.8858,192.968)">
            <path d="M54.396,2.207L5.983,2.207L5.983,57.297L54.396,57.297L54.396,2.207Z" style="fill:rgb(0,73,135);"/>
        </g>
        <path id="path24296" d="M-76.976,205.323C-72.606,205.323 -69.064,203.285 -69.064,200.771C-69.064,198.257 -72.606,196.219 -76.976,196.219C-81.345,196.219 -84.886,198.257 -84.886,200.771C-84.886,203.285 -81.345,205.323 -76.976,205.323Z" style="fill:white;"/>
        <path id="path24298" d="M-76.976,204.9C-73.012,204.9 -69.8,203.052 -69.8,200.771C-69.8,198.491 -73.012,196.643 -76.976,196.643C-80.938,196.643 -84.15,198.491 -84.15,200.771C-84.15,203.052 -80.938,204.9 -76.976,204.9Z" style="fill:rgb(142,144,144);"/>
        <path id="path24300" d="M-79.56,199.27C-79.405,199.491 -79.263,199.8 -79.281,200.119L-80.487,200.114C-80.494,199.844 -80.667,199.598 -80.912,199.467C-81.117,199.401 -81.322,199.475 -81.486,199.59C-81.83,199.975 -81.764,200.557 -81.739,201.065C-81.739,201.418 -81.592,201.761 -81.29,201.942C-80.978,202.023 -80.65,201.925 -80.51,201.638C-80.494,201.548 -80.446,201.475 -80.461,201.368L-81.109,201.368L-81.109,200.516L-79.29,200.516L-79.29,202.834L-79.863,202.834C-79.953,202.703 -79.962,202.523 -80.06,202.392C-80.494,202.893 -81.264,202.99 -81.887,202.785C-82.698,202.523 -83.042,201.672 -83.083,200.893C-83.108,200.106 -82.912,199.394 -82.288,198.894C-81.478,198.345 -80.184,198.468 -79.56,199.27L-79.56,199.27Z" style="fill:white;"/>
        <path id="path24302" d="M-72.907,198.626C-72.195,198.633 -71.53,198.751 -71.146,199.418C-70.638,200.155 -70.655,201.359 -71.171,202.088C-71.648,202.734 -72.329,202.827 -73.085,202.83C-73.423,202.841 -74.513,202.847 -74.498,202.834L-74.498,198.631C-74.013,198.631 -73.445,198.62 -72.907,198.626L-72.907,198.626Z" style="fill:white;"/>
        <g id="polygon24304" transform="matrix(0.264583,0,0,0.264583,-84.8858,192.968)">
            <path d="M32.108,37.288L32.108,31.046L28.136,31.064L28.148,37.288L23.411,37.288L23.411,21.433L28.148,21.433L28.148,27.193L32.097,27.208L32.108,21.433L36.726,21.433L36.726,37.288L32.108,37.288Z" style="fill:white;"/>
        </g>
        <path id="path24306" d="M-72.425,199.795C-72.162,200.081 -72.088,200.458 -72.096,200.868C-72.121,201.17 -72.219,201.442 -72.4,201.687C-72.629,201.875 -72.9,201.95 -73.219,201.917L-73.219,199.541C-72.9,199.491 -72.645,199.606 -72.425,199.795Z" style="fill:rgb(142,144,144);"/>
    </g>
</svg>
