<?xml version="1.0" encoding="UTF-8" standalone="no"?>
<!DOCTYPE svg PUBLIC "-//W3C//DTD SVG 1.1//EN" "http://www.w3.org/Graphics/SVG/1.1/DTD/svg11.dtd">
<svg width="100%" height="100%" viewBox="0 0 576 585" version="1.1" xmlns="http://www.w3.org/2000/svg" xmlns:xlink="http://www.w3.org/1999/xlink" xml:space="preserve" xmlns:serif="http://www.serif.com/" style="fill-rule:evenodd;clip-rule:evenodd;stroke-linejoin:round;stroke-miterlimit:2;">
    <g id="Layer-1">
        <path d="M287.69,107C395.24,107 490.27,137.79 547.69,184.88L547.69,0L34,0L34,179.92C91.85,135.61 183.94,107 287.69,107Z" style="fill:white;"/>
        <path d="M287.69,472C183.94,472 91.85,443.34 33.97,399L33.97,584.52L547.65,584.52L547.65,394.17C490.27,441.25 395.24,472 287.69,472Z" style="fill:white;"/>
        <path d="M287.69,124C128.81,124 0,198.07 0,289.5C0,380.93 128.81,455.08 287.69,455.08C446.57,455.08 575.46,381 575.46,289.5C575.46,198 446.66,124 287.69,124ZM195.26,263.35L146.89,263.15C146.61,252.32 139.68,242.46 129.89,237.21C121.67,234.56 113.45,237.53 106.89,242.14C93,257.58 95.68,280.92 96.69,301.29C96.69,315.44 102.58,329.2 114.69,336.46C127.2,339.71 140.36,335.78 145.97,324.27C146.61,320.66 148.54,317.73 147.97,313.44L122,313.44L122,279.27L195,279.27L195,372.27L172,372.27C168.39,367.02 168,359.8 164.1,354.54C146.69,374.64 115.81,378.54 90.83,370.3C58.31,359.8 44.51,325.67 42.83,294.43C41.83,262.87 49.69,234.32 74.71,214.27C107.19,192.27 159.08,197.18 184.11,229.35C190.28,238.17 196,250.56 195.26,263.35ZM360.17,372.22L311.17,372.22L311.17,306L269.02,306.19L269.15,372.19L218.89,372.19L218.89,204L269.15,204L269.15,265.12L311.05,265.28L311.17,204L360.17,204L360.17,372.22ZM520.48,342.31C501.35,368.22 474.05,371.95 443.73,372.07C430.17,372.51 386.46,372.75 387.06,372.23L387.06,203.68C406.51,203.68 429.29,203.24 450.87,203.48C479.42,203.76 506.09,208.48 521.49,235.24C541.86,264.8 541.18,313.08 520.48,342.31Z" style="fill:white;"/>
        <path id="path24306" d="M470.2,250.36C480.74,261.83 483.71,276.95 483.39,293.36C482.534,305.242 478.304,316.637 471.2,326.2C462.01,333.74 451.15,336.75 438.35,335.43L438.35,240.17C451.15,238.17 461.37,242.78 470.2,250.36Z" style="fill:white;"/>
    </g>
</svg>
