<?xml version="1.0" encoding="UTF-8" standalone="no"?>
<!DOCTYPE svg PUBLIC "-//W3C//DTD SVG 1.1//EN" "http://www.w3.org/Graphics/SVG/1.1/DTD/svg11.dtd">
<svg width="100%" height="100%" viewBox="0 0 1042 254" version="1.1" xmlns="http://www.w3.org/2000/svg" xmlns:xlink="http://www.w3.org/1999/xlink" xml:space="preserve" xmlns:serif="http://www.serif.com/" style="fill-rule:evenodd;clip-rule:evenodd;stroke-linejoin:round;stroke-miterlimit:2;">
    <g transform="matrix(2.40549,0,0,2.40549,-389.943,-547.714)">
        <g>
            <path d="M168.238,229.844L162.106,229.844L162.106,267.544L183.422,267.544L183.422,263.644L168.238,263.644L168.238,229.844Z" style="fill-rule:nonzero;"/>
            <path d="M189.481,267.544L218.024,267.544L218.024,263.644L195.613,263.644L195.613,248.844L217.367,248.844L217.367,244.944L195.613,244.944L195.613,233.744L218.024,233.744L218.024,229.844L189.481,229.844L189.481,267.544Z" style="fill-rule:nonzero;"/>
            <path d="M253.502,233.744L253.502,229.844L228.463,229.844L228.463,267.544L234.595,267.544L234.595,248.844L252.918,248.844L252.918,244.944L234.595,244.944L234.595,233.744L253.502,233.744Z" style="fill-rule:nonzero;"/>
            <path d="M288.396,233.744L288.396,229.844L263.357,229.844L263.357,267.544L269.489,267.544L269.489,248.844L287.812,248.844L287.812,244.944L269.489,244.944L269.489,233.744L288.396,233.744Z" style="fill-rule:nonzero;"/>
            <path d="M304.383,229.844L298.251,229.844L298.251,267.544L319.567,267.544L319.567,263.644L304.383,263.644L304.383,229.844Z" style="fill-rule:nonzero;"/>
            <path d="M325.626,267.544L354.169,267.544L354.169,263.644L331.758,263.644L331.758,248.844L353.512,248.844L353.512,244.944L331.758,244.944L331.758,233.744L354.169,233.744L354.169,229.844L325.626,229.844L325.626,267.544Z" style="fill-rule:nonzero;"/>
            <path d="M370.74,233.744L372.565,233.744C374.755,233.744 376.641,233.819 378.222,233.969C379.804,234.119 381.228,234.419 382.493,234.869C383.758,235.319 384.756,236.002 385.486,236.919C386.216,237.835 386.581,239.044 386.581,240.544C386.581,241.944 386.204,243.094 385.449,243.994C384.695,244.894 383.661,245.585 382.347,246.069C381.033,246.552 379.585,246.877 378.003,247.044C376.422,247.21 374.633,247.294 372.638,247.294L370.74,247.294L370.74,233.744ZM370.74,250.994L372.273,250.994L388.917,267.544L396.436,267.544L378.916,250.644C383.15,250.377 386.508,249.302 388.99,247.419C391.472,245.535 392.713,243.144 392.713,240.244C392.713,238.21 392.178,236.502 391.107,235.119C390.036,233.735 388.576,232.669 386.727,231.919C384.878,231.169 382.761,230.635 380.376,230.319C377.991,230.002 375.388,229.844 372.565,229.844L364.608,229.844L364.608,267.544L370.74,267.544L370.74,250.994Z" style="fill-rule:nonzero;"/>
            <path d="M447.366,235.044C446.066,233.177 444.311,231.735 442.101,230.719C439.891,229.702 437.421,229.194 434.691,229.194C432.871,229.194 431.138,229.419 429.491,229.869C427.844,230.319 426.371,230.969 425.071,231.819C423.771,232.669 422.763,233.685 422.048,234.869C421.333,236.052 420.976,237.36 420.976,238.794C420.976,240.094 421.247,241.235 421.788,242.219C422.33,243.202 423.088,244.069 424.063,244.819C425.038,245.569 426.122,246.21 427.313,246.744C428.505,247.277 429.946,247.844 431.636,248.444L434.626,249.444L434.886,249.544C436.316,250.044 437.497,250.485 438.428,250.869C439.36,251.252 440.227,251.719 441.028,252.269C441.83,252.819 442.469,253.477 442.946,254.244C443.423,255.01 443.661,255.91 443.661,256.944C443.661,257.977 443.39,258.944 442.848,259.844C442.307,260.744 441.559,261.527 440.606,262.194C439.653,262.86 438.569,263.377 437.356,263.744C436.143,264.11 434.886,264.294 433.586,264.294C431.029,264.294 428.852,263.619 427.053,262.269C425.255,260.919 424.161,259.26 423.771,257.294L418.441,258.444C419.221,261.377 420.987,263.735 423.738,265.519C426.49,267.302 429.816,268.194 433.716,268.194C435.839,268.194 437.833,267.902 439.696,267.319C441.559,266.735 443.206,265.91 444.636,264.844C446.066,263.777 447.171,262.535 447.951,261.119C448.731,259.702 449.121,258.177 449.121,256.544C449.121,255.11 448.818,253.844 448.211,252.744C447.604,251.644 446.77,250.685 445.708,249.869C444.647,249.052 443.455,248.352 442.133,247.769C440.812,247.185 439.219,246.577 437.356,245.944L434.106,244.844C433.023,244.477 432.069,244.127 431.246,243.794C430.423,243.46 429.643,243.069 428.906,242.619C428.169,242.169 427.573,241.635 427.118,241.019C426.663,240.402 426.436,239.71 426.436,238.944C426.436,237.244 427.238,235.844 428.841,234.744C430.444,233.644 432.351,233.094 434.561,233.094C436.554,233.094 438.201,233.427 439.501,234.094C440.801,234.76 441.971,235.794 443.011,237.194L447.366,235.044Z" style="fill-rule:nonzero;"/>
            <rect x="457.571" y="229.844" width="5.46" height="37.7" style="fill-rule:nonzero;"/>
            <path d="M469.726,267.544L475.316,267.544L481.621,242.044L481.751,242.044L497.481,269.094L513.276,242.044L513.406,242.044L519.711,267.544L525.301,267.544L515.356,227.694L497.481,259.344L479.671,227.694L469.726,267.544Z" style="fill-rule:nonzero;"/>
            <path d="M531.866,267.544L557.281,267.544L557.281,263.644L537.326,263.644L537.326,248.844L556.696,248.844L556.696,244.944L537.326,244.944L537.326,233.744L557.281,233.744L557.281,229.844L531.866,229.844L531.866,267.544Z" style="fill-rule:nonzero;"/>
            <path d="M593.486,235.044C592.186,233.177 590.431,231.735 588.221,230.719C586.011,229.702 583.541,229.194 580.811,229.194C578.991,229.194 577.258,229.419 575.611,229.869C573.964,230.319 572.491,230.969 571.191,231.819C569.891,232.669 568.883,233.685 568.168,234.869C567.453,236.052 567.096,237.36 567.096,238.794C567.096,240.094 567.367,241.235 567.908,242.219C568.45,243.202 569.208,244.069 570.183,244.819C571.158,245.569 572.242,246.21 573.433,246.744C574.625,247.277 576.066,247.844 577.756,248.444L580.746,249.444L581.006,249.544C582.436,250.044 583.617,250.485 584.548,250.869C585.48,251.252 586.347,251.719 587.148,252.269C587.95,252.819 588.589,253.477 589.066,254.244C589.543,255.01 589.781,255.91 589.781,256.944C589.781,257.977 589.51,258.944 588.968,259.844C588.427,260.744 587.679,261.527 586.726,262.194C585.773,262.86 584.689,263.377 583.476,263.744C582.263,264.11 581.006,264.294 579.706,264.294C577.149,264.294 574.972,263.619 573.173,262.269C571.375,260.919 570.281,259.26 569.891,257.294L564.561,258.444C565.341,261.377 567.107,263.735 569.858,265.519C572.61,267.302 575.936,268.194 579.836,268.194C581.959,268.194 583.953,267.902 585.816,267.319C587.679,266.735 589.326,265.91 590.756,264.844C592.186,263.777 593.291,262.535 594.071,261.119C594.851,259.702 595.241,258.177 595.241,256.544C595.241,255.11 594.938,253.844 594.331,252.744C593.724,251.644 592.89,250.685 591.828,249.869C590.767,249.052 589.575,248.352 588.253,247.769C586.932,247.185 585.339,246.577 583.476,245.944L580.226,244.844C579.143,244.477 578.189,244.127 577.366,243.794C576.543,243.46 575.763,243.069 575.026,242.619C574.289,242.169 573.693,241.635 573.238,241.019C572.783,240.402 572.556,239.71 572.556,238.944C572.556,237.244 573.358,235.844 574.961,234.744C576.564,233.644 578.471,233.094 580.681,233.094C582.674,233.094 584.321,233.427 585.621,234.094C586.921,234.76 588.091,235.794 589.131,237.194L593.486,235.044Z" style="fill-rule:nonzero;"/>
        </g>
        <g transform="matrix(1.15276,0,0,1.15276,-550.075,23.9021)">
            <path d="M651.638,256.844L657.601,267.544L663.832,267.544L641.119,228.044L617.803,267.544L623.967,267.544L630.064,256.844L651.638,256.844ZM649.427,252.944L632.342,252.944L640.985,237.844L649.427,252.944Z" style="fill:rgb(177,170,20);fill-rule:nonzero;"/>
            <path d="M674.954,233.744L676.629,233.744C678.639,233.744 680.37,233.819 681.821,233.969C683.273,234.119 684.58,234.419 685.741,234.869C686.902,235.319 687.818,236.002 688.488,236.919C689.158,237.835 689.493,239.044 689.493,240.544C689.493,241.944 689.147,243.094 688.454,243.994C687.762,244.894 686.813,245.585 685.607,246.069C684.401,246.552 683.072,246.877 681.62,247.044C680.169,247.21 678.527,247.294 676.696,247.294L674.954,247.294L674.954,233.744ZM674.954,250.994L676.361,250.994L691.637,267.544L698.538,267.544L682.458,250.644C686.344,250.377 689.426,249.302 691.704,247.419C693.982,245.535 695.121,243.144 695.121,240.244C695.121,238.21 694.63,236.502 693.647,235.119C692.664,233.735 691.324,232.669 689.627,231.919C687.93,231.169 685.987,230.635 683.798,230.319C681.609,230.002 679.22,229.844 676.629,229.844L669.326,229.844L669.326,267.544L674.954,267.544L674.954,250.994Z" style="fill:rgb(177,170,20);fill-rule:nonzero;"/>
            <path d="M744.165,232.894C739.743,230.427 734.718,229.194 729.09,229.194C725.517,229.194 722.133,229.702 718.939,230.719C715.746,231.735 712.932,233.152 710.497,234.969C708.063,236.785 706.165,238.885 704.802,241.269C703.44,243.652 702.759,246.177 702.759,248.844C702.759,251.477 703.451,253.969 704.836,256.319C706.221,258.669 708.13,260.735 710.564,262.519C712.999,264.302 715.813,265.694 719.006,266.694C722.2,267.694 725.561,268.194 729.09,268.194C731.725,268.194 734.349,267.869 736.962,267.219C739.575,266.569 741.976,265.66 744.165,264.494L744.165,259.294C742.11,260.827 739.743,262.044 737.063,262.944C734.383,263.844 731.658,264.294 728.889,264.294C726.12,264.294 723.484,263.877 720.983,263.044C718.482,262.21 716.282,261.069 714.383,259.619C712.485,258.169 711.011,256.494 709.961,254.594C708.912,252.694 708.387,250.727 708.387,248.694C708.387,246.66 708.912,244.694 709.961,242.794C711.011,240.894 712.485,239.219 714.383,237.769C716.282,236.319 718.459,235.177 720.916,234.344C723.373,233.51 725.986,233.094 728.755,233.094C731.614,233.094 734.383,233.535 737.063,234.419C739.743,235.302 742.11,236.527 744.165,238.094L744.165,232.894Z" style="fill:rgb(177,170,20);fill-rule:nonzero;"/>
            <path d="M759.575,245.144L759.575,229.844L753.947,229.844L753.947,267.544L759.575,267.544L759.575,249.044L785.437,249.044L785.437,267.544L791.065,267.544L791.065,229.844L785.437,229.844L785.437,245.144L759.575,245.144Z" style="fill:rgb(177,170,20);fill-rule:nonzero;"/>
            <rect x="801.651" y="229.844" width="5.628" height="37.7" style="fill:rgb(177,170,20);fill-rule:nonzero;"/>
            <path d="M830.93,233.744L843.258,233.744L843.258,229.844L813.108,229.844L813.108,233.744L825.302,233.744L825.302,267.544L830.93,267.544L830.93,233.744Z" style="fill:rgb(177,170,20);fill-rule:nonzero;"/>
            <path d="M849.02,267.544L875.217,267.544L875.217,263.644L854.648,263.644L854.648,248.844L874.614,248.844L874.614,244.944L854.648,244.944L854.648,233.744L875.217,233.744L875.217,229.844L849.02,229.844L849.02,267.544Z" style="fill:rgb(177,170,20);fill-rule:nonzero;"/>
            <path d="M923.323,232.894C918.901,230.427 913.876,229.194 908.248,229.194C904.675,229.194 901.291,229.702 898.097,230.719C894.904,231.735 892.09,233.152 889.655,234.969C887.221,236.785 885.323,238.885 883.96,241.269C882.598,243.652 881.917,246.177 881.917,248.844C881.917,251.477 882.609,253.969 883.994,256.319C885.379,258.669 887.288,260.735 889.722,262.519C892.157,264.302 894.971,265.694 898.164,266.694C901.358,267.694 904.719,268.194 908.248,268.194C910.883,268.194 913.507,267.869 916.12,267.219C918.733,266.569 921.134,265.66 923.323,264.494L923.323,259.294C921.268,260.827 918.901,262.044 916.221,262.944C913.541,263.844 910.816,264.294 908.047,264.294C905.278,264.294 902.642,263.877 900.141,263.044C897.64,262.21 895.44,261.069 893.541,259.619C891.643,258.169 890.169,256.494 889.119,254.594C888.07,252.694 887.545,250.727 887.545,248.694C887.545,246.66 888.07,244.694 889.119,242.794C890.169,240.894 891.643,239.219 893.541,237.769C895.44,236.319 897.617,235.177 900.074,234.344C902.531,233.51 905.144,233.094 907.913,233.094C910.772,233.094 913.541,233.535 916.221,234.419C918.901,235.302 921.268,236.527 923.323,238.094L923.323,232.894Z" style="fill:rgb(177,170,20);fill-rule:nonzero;"/>
            <path d="M946.237,233.744L958.565,233.744L958.565,229.844L928.415,229.844L928.415,233.744L940.609,233.744L940.609,267.544L946.237,267.544L946.237,233.744Z" style="fill:rgb(177,170,20);fill-rule:nonzero;"/>
            <path d="M991.73,235.044C990.39,233.177 988.581,231.735 986.303,230.719C984.025,229.702 981.479,229.194 978.665,229.194C976.789,229.194 975.002,229.419 973.305,229.869C971.608,230.319 970.089,230.969 968.749,231.819C967.409,232.669 966.37,233.685 965.633,234.869C964.896,236.052 964.528,237.36 964.528,238.794C964.528,240.094 964.807,241.235 965.365,242.219C965.924,243.202 966.705,244.069 967.71,244.819C968.715,245.569 969.832,246.21 971.06,246.744C972.289,247.277 973.774,247.844 975.516,248.444L978.598,249.444L978.866,249.544C980.34,250.044 981.557,250.485 982.517,250.869C983.478,251.252 984.371,251.719 985.197,252.269C986.024,252.819 986.683,253.477 987.174,254.244C987.665,255.01 987.911,255.91 987.911,256.944C987.911,257.977 987.632,258.944 987.073,259.844C986.515,260.744 985.745,261.527 984.762,262.194C983.779,262.86 982.663,263.377 981.412,263.744C980.161,264.11 978.866,264.294 977.526,264.294C974.891,264.294 972.646,263.619 970.792,262.269C968.939,260.919 967.811,259.26 967.409,257.294L961.915,258.444C962.719,261.377 964.539,263.735 967.375,265.519C970.212,267.302 973.64,268.194 977.66,268.194C979.849,268.194 981.903,267.902 983.824,267.319C985.745,266.735 987.442,265.91 988.916,264.844C990.39,263.777 991.529,262.535 992.333,261.119C993.137,259.702 993.539,258.177 993.539,256.544C993.539,255.11 993.226,253.844 992.601,252.744C991.976,251.644 991.116,250.685 990.021,249.869C988.927,249.052 987.699,248.352 986.336,247.769C984.974,247.185 983.333,246.577 981.412,245.944L978.062,244.844C976.945,244.477 975.963,244.127 975.114,243.794C974.265,243.46 973.461,243.069 972.702,242.619C971.943,242.169 971.328,241.635 970.859,241.019C970.39,240.402 970.156,239.71 970.156,238.944C970.156,237.244 970.982,235.844 972.635,234.744C974.288,233.644 976.253,233.094 978.531,233.094C980.586,233.094 982.283,233.427 983.623,234.094C984.963,234.76 986.169,235.794 987.241,237.194L991.73,235.044Z" style="fill:rgb(177,170,20);fill-rule:nonzero;"/>
        </g>
    </g>
</svg>
