<?xml version="1.0" encoding="UTF-8" standalone="no"?>
<!DOCTYPE svg PUBLIC "-//W3C//DTD SVG 1.1//EN" "http://www.w3.org/Graphics/SVG/1.1/DTD/svg11.dtd">
<svg width="100%" height="100%" viewBox="0 0 2446 1429" version="1.1" xmlns="http://www.w3.org/2000/svg" xmlns:xlink="http://www.w3.org/1999/xlink" xml:space="preserve" xmlns:serif="http://www.serif.com/" style="fill-rule:evenodd;clip-rule:evenodd;stroke-linejoin:round;stroke-miterlimit:2;">
    <g transform="matrix(14.881,0,0,14.881,-29.7619,0)">
        <path d="M50.779,60.989L71.33,60.989L71.33,33.097L58.284,22.023L58.284,58.121L53.714,58.121L53.714,18.242L58.236,21.984L58.236,17.982L50.779,11.671L50.779,60.989Z" style="fill:rgb(188,149,92);fill-rule:nonzero;"/>
    </g>
    <g transform="matrix(14.881,0,0,14.881,-29.7619,0)">
        <path d="M104.1,5.484L84.233,23.389L64.374,5.484L58.284,0L58.284,17.982L71.331,29.066L71.35,29.085L81.856,38.09L84.233,40.12L86.609,38.09L94.777,31.086L95.133,30.788L97.106,29.104L97.106,29.123L110.19,17.963L110.19,0L104.1,5.484Z" style="fill:rgb(188,149,92);fill-rule:nonzero;"/>
    </g>
    <g transform="matrix(14.881,0,0,14.881,-29.7619,0)">
        <rect x="110.181" y="21.975" width="0.029" height="0.01" style="fill:rgb(188,149,92);fill-rule:nonzero;"/>
    </g>
    <g transform="matrix(14.881,0,0,14.881,-29.7619,0)">
        <path d="M110.21,17.963L110.21,21.975L114.78,18.223L114.78,58.121L110.19,58.121L110.19,21.994L97.106,33.174L97.106,60.989L117.627,60.989L117.627,11.69L110.21,17.963Z" style="fill:rgb(188,149,92);fill-rule:nonzero;"/>
    </g>
    <g transform="matrix(14.881,0,0,14.881,-29.7619,0)">
        <path d="M24.004,69.272L13.834,80.597L3.655,69.272L2,69.272L2,95.461L7.234,95.461L7.234,81.068L13.834,87.995L20.434,81.068L20.396,95.461L25.63,95.461L25.63,69.272L24.004,69.272Z" style="fill:rgb(14,59,96);fill-rule:nonzero;"/>
    </g>
    <g transform="matrix(14.881,0,0,14.881,-29.7619,0)">
        <path d="M34.539,95.461L34.539,69.667L47.451,69.667L47.451,74.824L39.696,74.824L39.696,79.99L46.479,79.99L46.479,85.147L39.696,85.147L39.696,90.304L47.884,90.304L47.884,95.461L34.539,95.461Z" style="fill:rgb(14,59,96);fill-rule:nonzero;"/>
    </g>
    <g transform="matrix(14.881,0,0,14.881,-29.7619,0)">
        <path d="M61.074,80.645L65.615,80.645C69.117,80.645 69.117,74.872 65.615,74.872L61.074,74.872L61.074,80.645ZM68.771,95.509L63.575,85.657L61.074,85.657L61.074,95.509L55.917,95.509L55.917,69.667L66.087,69.667C75.284,69.667 76.189,82.627 68.617,84.82L74.601,95.471L68.771,95.509Z" style="fill:rgb(14,59,96);fill-rule:nonzero;"/>
    </g>
    <g transform="matrix(14.881,0,0,14.881,-29.7619,0)">
        <rect x="81.24" y="69.667" width="5.157" height="25.794" style="fill:rgb(14,59,96);fill-rule:nonzero;"/>
    </g>
    <g transform="matrix(14.881,0,0,14.881,-29.7619,0)">
        <path d="M98.558,95.461L98.558,74.824L92.141,74.824L92.141,69.705L110.142,69.705L110.142,74.824L103.715,74.824L103.715,95.461L98.558,95.461Z" style="fill:rgb(14,59,96);fill-rule:nonzero;"/>
    </g>
    <g transform="matrix(14.881,0,0,14.881,-29.7619,0)">
        <path d="M127.441,74.545C117.127,74.545 117.127,90.487 127.441,90.487C137.755,90.487 137.765,74.545 127.441,74.545ZM127.441,69.234C145.192,69.234 145.192,95.827 127.441,95.827C109.69,95.827 109.69,69.234 127.441,69.234Z" style="fill:rgb(14,59,96);fill-rule:nonzero;"/>
    </g>
    <g transform="matrix(14.881,0,0,14.881,-29.7619,0)">
        <path d="M146.741,69.128L146.741,95.461L151.908,95.461L151.908,81.434L164.964,96L166.34,96L166.34,69.705L161.144,69.705L161.144,84.281L148.117,69.128L146.741,69.128Z" style="fill:rgb(14,59,96);fill-rule:nonzero;"/>
    </g>
</svg>
