<?xml version="1.0" encoding="UTF-8" standalone="no"?>
<!DOCTYPE svg PUBLIC "-//W3C//DTD SVG 1.1//EN" "http://www.w3.org/Graphics/SVG/1.1/DTD/svg11.dtd">
<svg width="100%" height="100%" viewBox="0 0 1894 315" version="1.1" xmlns="http://www.w3.org/2000/svg" xmlns:xlink="http://www.w3.org/1999/xlink" xml:space="preserve" xmlns:serif="http://www.serif.com/" style="fill-rule:evenodd;clip-rule:evenodd;stroke-linejoin:round;stroke-miterlimit:2;">
    <g transform="matrix(1,0,0,1,-438.609,246)">
        <path d="M468.669,-237C447.789,-237 438.609,-225.48 438.609,-208.38L438.609,-195.24C438.609,-176.34 448.689,-165.72 468.489,-165.72L538.689,-165.72C546.789,-165.72 550.389,-161.4 550.389,-153.12L550.389,-144.12C550.389,-136.38 547.149,-131.52 538.509,-131.52L442.029,-131.52C439.869,-131.52 438.789,-130.44 438.789,-128.1L438.789,-114.24C438.789,-112.08 439.869,-111 442.029,-111L542.649,-111C563.709,-111 572.889,-122.52 572.889,-139.44L572.889,-154.2C572.889,-173.1 562.809,-183.72 543.009,-183.72L472.809,-183.72C464.529,-183.72 460.929,-188.04 460.929,-196.32L460.929,-203.88C460.929,-211.62 464.169,-216.48 472.809,-216.48L564.969,-216.48C567.129,-216.48 568.209,-217.56 568.209,-219.9L568.209,-233.76C568.209,-235.92 567.129,-237 564.969,-237L468.669,-237Z" style="fill:white;fill-rule:nonzero;"/>
        <path d="M631.929,-208.38C599.709,-208.38 589.629,-198.3 589.629,-172.56L589.629,-146.82C589.629,-121.26 599.709,-111 631.929,-111L703.929,-111C705.909,-111 706.629,-111.9 706.629,-113.7L706.629,-126.12C706.629,-127.92 705.909,-128.82 703.929,-128.82L633.909,-128.82C615.549,-128.82 610.509,-134.22 610.509,-150.78L610.509,-168.6C610.509,-185.16 615.549,-190.56 633.909,-190.56L703.929,-190.56C705.909,-190.56 706.629,-191.46 706.629,-193.26L706.629,-205.68C706.629,-207.48 705.909,-208.38 703.929,-208.38L631.929,-208.38Z" style="fill:white;fill-rule:nonzero;"/>
        <path d="M728.229,-246C725.889,-246 724.989,-244.92 724.989,-242.76L724.989,-114.24C724.989,-112.08 725.889,-111 728.229,-111L742.449,-111C744.789,-111 745.869,-112.08 745.869,-114.24L745.869,-189.66L815.709,-189.66C834.069,-189.66 838.209,-184.08 838.209,-167.7L838.209,-114.24C838.209,-112.08 839.289,-111 841.449,-111L855.849,-111C858.009,-111 859.089,-112.08 859.089,-114.24L859.089,-172.56C859.089,-198.12 848.829,-208.38 816.789,-208.38L745.869,-208.38L745.869,-242.76C745.869,-244.92 744.789,-246 742.449,-246L728.229,-246Z" style="fill:white;fill-rule:nonzero;"/>
        <path d="M883.929,-208.38C882.129,-208.38 881.229,-207.48 881.229,-205.68L881.229,-193.26C881.229,-191.46 882.129,-190.56 883.929,-190.56L959.169,-190.56C977.529,-190.56 982.569,-185.34 982.569,-171.66L982.569,-167.34L905.709,-167.34C884.649,-167.34 878.169,-159.06 878.169,-144.3L878.169,-136.2C878.169,-118.56 884.649,-111 905.709,-111L990.489,-111C1000.75,-111 1003.63,-113.7 1003.63,-125.22L1003.63,-172.56C1003.63,-198.3 993.189,-208.38 961.149,-208.38L883.929,-208.38ZM976.449,-127.38L911.469,-127.38C901.929,-127.38 898.689,-130.98 898.689,-139.08L898.689,-143.22C898.689,-150.24 901.929,-154.02 911.469,-154.02L982.569,-154.02L982.569,-134.22C982.569,-129 981.129,-127.38 976.449,-127.38Z" style="fill:white;fill-rule:nonzero;"/>
        <path d="M1027.21,-246C1024.87,-246 1023.97,-244.92 1023.97,-242.76L1023.97,-114.24C1023.97,-112.08 1024.87,-111 1027.21,-111L1041.43,-111C1043.77,-111 1044.85,-112.08 1044.85,-114.24L1044.85,-242.76C1044.85,-244.92 1043.77,-246 1041.43,-246L1027.21,-246Z" style="fill:white;fill-rule:nonzero;"/>
        <path d="M1063.03,-208.38C1061.23,-208.38 1060.33,-207.48 1060.33,-205.68L1060.33,-193.62C1060.33,-191.82 1061.23,-190.92 1063.03,-190.92L1080.49,-190.92L1080.49,-146.28C1080.49,-121.26 1088.05,-111 1116.49,-111L1137.37,-111C1139.17,-111 1140.07,-111.9 1140.07,-113.7L1140.07,-125.76C1140.07,-127.56 1139.17,-128.46 1137.37,-128.46L1119.91,-128.46C1105.33,-128.46 1101.37,-133.86 1101.37,-146.28L1101.37,-190.92L1136.29,-190.92C1138.09,-190.92 1138.99,-191.82 1138.99,-193.62L1138.99,-205.68C1138.99,-207.48 1138.09,-208.38 1136.29,-208.38L1101.37,-208.38L1101.37,-232.5C1101.37,-234.84 1100.29,-235.92 1098.13,-235.92L1083.73,-235.92C1081.57,-235.92 1080.49,-234.84 1080.49,-232.5L1080.49,-208.38L1063.03,-208.38Z" style="fill:white;fill-rule:nonzero;"/>
        <path d="M1193.89,-208.38C1161.67,-208.38 1151.41,-198.3 1151.41,-172.56L1151.41,-146.82C1151.41,-121.26 1161.67,-111 1193.89,-111L1271.11,-111C1272.91,-111 1273.81,-111.9 1273.81,-113.7L1273.81,-126.12C1273.81,-127.92 1272.91,-128.82 1271.11,-128.82L1195.87,-128.82C1177.51,-128.82 1172.29,-134.22 1172.29,-147.72L1172.29,-153.3L1266.61,-153.3C1273.63,-153.3 1276.87,-155.82 1276.87,-163.38L1276.87,-179.4C1276.87,-200.82 1270.39,-208.38 1246.09,-208.38L1193.89,-208.38ZM1172.29,-172.92C1172.29,-186.6 1177.51,-192 1195.87,-192L1242.13,-192C1253.11,-192 1256.35,-188.4 1256.35,-178.68L1256.35,-170.4C1256.35,-167.52 1255.09,-166.62 1252.57,-166.62L1172.29,-166.62L1172.29,-172.92Z" style="fill:white;fill-rule:nonzero;"/>
        <path d="M1338.79,-208.38C1306.75,-208.38 1296.49,-198.12 1296.49,-172.56L1296.49,-114.24C1296.49,-112.08 1297.57,-111 1299.73,-111L1314.13,-111C1316.29,-111 1317.37,-112.08 1317.37,-114.24L1317.37,-167.7C1317.37,-184.08 1322.59,-189.66 1340.77,-189.66L1388.83,-189.66C1407.19,-189.66 1411.33,-184.08 1411.33,-167.7L1411.33,-114.24C1411.33,-112.08 1412.41,-111 1414.57,-111L1428.97,-111C1431.13,-111 1432.21,-112.08 1432.21,-114.24L1432.21,-172.56C1432.21,-198.12 1421.95,-208.38 1389.91,-208.38L1338.79,-208.38Z" style="fill:white;fill-rule:nonzero;"/>
        <path d="M1543.45,-237C1522.57,-237 1513.39,-225.48 1513.39,-208.38L1513.39,-195.24C1513.39,-176.34 1523.47,-165.72 1543.27,-165.72L1613.47,-165.72C1621.57,-165.72 1625.17,-161.4 1625.17,-153.12L1625.17,-144.12C1625.17,-136.38 1621.93,-131.52 1613.29,-131.52L1516.81,-131.52C1514.65,-131.52 1513.57,-130.44 1513.57,-128.1L1513.57,-114.24C1513.57,-112.08 1514.65,-111 1516.81,-111L1617.43,-111C1638.49,-111 1647.67,-122.52 1647.67,-139.44L1647.67,-154.2C1647.67,-173.1 1637.59,-183.72 1617.79,-183.72L1547.59,-183.72C1539.31,-183.72 1535.71,-188.04 1535.71,-196.32L1535.71,-203.88C1535.71,-211.62 1538.95,-216.48 1547.59,-216.48L1639.75,-216.48C1641.91,-216.48 1642.99,-217.56 1642.99,-219.9L1642.99,-233.76C1642.99,-235.92 1641.91,-237 1639.75,-237L1543.45,-237Z" style="fill:white;fill-rule:nonzero;"/>
        <path d="M1672.15,-208.38C1669.81,-208.38 1668.91,-207.3 1668.91,-205.14L1668.91,-114.24C1668.91,-112.08 1669.81,-111 1672.15,-111L1686.37,-111C1688.71,-111 1689.79,-112.08 1689.79,-114.24L1689.79,-205.14C1689.79,-207.3 1688.71,-208.38 1686.37,-208.38L1672.15,-208.38ZM1672.15,-244.2C1669.99,-244.2 1668.91,-243.12 1668.91,-240.96L1668.91,-224.22C1668.91,-221.88 1669.99,-220.8 1672.15,-220.8L1686.55,-220.8C1688.71,-220.8 1689.79,-221.88 1689.79,-224.22L1689.79,-240.96C1689.79,-243.12 1688.71,-244.2 1686.55,-244.2L1672.15,-244.2Z" style="fill:white;fill-rule:nonzero;"/>
        <path d="M1751.89,-208.38C1719.67,-208.38 1709.41,-198.3 1709.41,-172.56L1709.41,-146.82C1709.41,-121.26 1719.67,-111 1751.89,-111L1829.11,-111C1830.91,-111 1831.81,-111.9 1831.81,-113.7L1831.81,-126.12C1831.81,-127.92 1830.91,-128.82 1829.11,-128.82L1753.87,-128.82C1735.51,-128.82 1730.29,-134.22 1730.29,-147.72L1730.29,-153.3L1824.61,-153.3C1831.63,-153.3 1834.87,-155.82 1834.87,-163.38L1834.87,-179.4C1834.87,-200.82 1828.39,-208.38 1804.09,-208.38L1751.89,-208.38ZM1730.29,-172.92C1730.29,-186.6 1735.51,-192 1753.87,-192L1800.13,-192C1811.11,-192 1814.35,-188.4 1814.35,-178.68L1814.35,-170.4C1814.35,-167.52 1813.09,-166.62 1810.57,-166.62L1730.29,-166.62L1730.29,-172.92Z" style="fill:white;fill-rule:nonzero;"/>
        <path d="M1955.29,-208.38C1923.25,-208.38 1912.99,-198.3 1912.99,-172.56L1912.99,-146.82C1912.99,-121.26 1923.25,-111 1955.29,-111L2005.15,-111C2037.19,-111 2047.45,-121.26 2047.45,-146.82L2047.45,-242.76C2047.45,-244.92 2046.37,-246 2044.21,-246L2029.81,-246C2027.65,-246 2026.57,-244.92 2026.57,-242.76L2026.57,-208.38L1955.29,-208.38ZM2003.17,-128.82L1957.27,-128.82C1939.09,-128.82 1933.87,-134.22 1933.87,-150.78L1933.87,-168.6C1933.87,-185.16 1939.09,-190.56 1957.27,-190.56L2026.57,-190.56L2026.57,-150.78C2026.57,-134.22 2021.53,-128.82 2003.17,-128.82Z" style="fill:white;fill-rule:nonzero;"/>
        <path d="M2072.47,-208.38C2070.67,-208.38 2069.77,-207.48 2069.77,-205.68L2069.77,-193.26C2069.77,-191.46 2070.67,-190.56 2072.47,-190.56L2147.71,-190.56C2166.07,-190.56 2171.11,-185.34 2171.11,-171.66L2171.11,-167.34L2094.25,-167.34C2073.19,-167.34 2066.71,-159.06 2066.71,-144.3L2066.71,-136.2C2066.71,-118.56 2073.19,-111 2094.25,-111L2179.03,-111C2189.29,-111 2192.17,-113.7 2192.17,-125.22L2192.17,-172.56C2192.17,-198.3 2181.73,-208.38 2149.69,-208.38L2072.47,-208.38ZM2164.99,-127.38L2100.01,-127.38C2090.47,-127.38 2087.23,-130.98 2087.23,-139.08L2087.23,-143.22C2087.23,-150.24 2090.47,-154.02 2100.01,-154.02L2171.11,-154.02L2171.11,-134.22C2171.11,-129 2169.67,-127.38 2164.99,-127.38Z" style="fill:white;fill-rule:nonzero;"/>
        <path d="M2237.89,-208.38C2216.83,-208.38 2209.99,-199.2 2209.99,-184.44L2209.99,-177.42C2209.99,-162.3 2217.55,-153.84 2237.71,-153.84L2299.27,-153.84C2308.81,-153.84 2312.05,-150.06 2312.05,-144.3L2312.05,-139.08C2312.05,-131.52 2308.81,-128.1 2299.27,-128.1L2212.69,-128.1C2210.89,-128.1 2209.99,-127.2 2209.99,-125.4L2209.99,-113.7C2209.99,-111.9 2210.89,-111 2212.69,-111L2304.49,-111C2325.55,-111 2332.39,-119.82 2332.39,-135.84L2332.39,-145.02C2332.39,-159.96 2324.83,-168.24 2304.67,-168.24L2243.29,-168.24C2233.75,-168.24 2230.51,-172.02 2230.51,-178.14L2230.51,-181.02C2230.51,-187.68 2233.75,-191.28 2243.29,-191.28L2325.55,-191.28C2327.35,-191.28 2328.25,-192.18 2328.25,-193.98L2328.25,-205.68C2328.25,-207.48 2327.35,-208.38 2325.55,-208.38L2237.89,-208.38Z" style="fill:white;fill-rule:nonzero;"/>
        <path d="M527.799,-28.38C495.759,-28.38 485.499,-18.12 485.499,7.44L485.499,65.76C485.499,67.92 486.579,69 488.739,69L503.139,69C505.299,69 506.379,67.92 506.379,65.76L506.379,12.3C506.379,-4.08 511.599,-9.66 529.779,-9.66L577.839,-9.66C596.199,-9.66 600.339,-4.08 600.339,12.3L600.339,65.76C600.339,67.92 601.419,69 603.579,69L617.979,69C620.139,69 621.219,67.92 621.219,65.76L621.219,7.44C621.219,-18.12 610.959,-28.38 578.919,-28.38L527.799,-28.38Z" style="fill:white;fill-rule:nonzero;"/>
        <path d="M646.059,-28.38C644.259,-28.38 643.359,-27.48 643.359,-25.68L643.359,-13.26C643.359,-11.46 644.259,-10.56 646.059,-10.56L721.299,-10.56C739.659,-10.56 744.699,-5.34 744.699,8.34L744.699,12.66L667.839,12.66C646.779,12.66 640.299,20.94 640.299,35.7L640.299,43.8C640.299,61.44 646.779,69 667.839,69L752.619,69C762.879,69 765.759,66.3 765.759,54.78L765.759,7.44C765.759,-18.3 755.319,-28.38 723.279,-28.38L646.059,-28.38ZM738.579,52.62L673.599,52.62C664.059,52.62 660.819,49.02 660.819,40.92L660.819,36.78C660.819,29.76 664.059,25.98 673.599,25.98L744.699,25.98L744.699,45.78C744.699,51 743.259,52.62 738.579,52.62ZM720.759,-64.2C718.599,-64.2 717.519,-63.12 717.519,-60.96L717.519,-44.22C717.519,-41.88 718.599,-40.8 720.759,-40.8L735.159,-40.8C737.319,-40.8 738.399,-41.88 738.399,-44.22L738.399,-60.96C738.399,-63.12 737.319,-64.2 735.159,-64.2L720.759,-64.2ZM671.619,-64.2C669.459,-64.2 668.379,-63.12 668.379,-60.96L668.379,-44.22C668.379,-41.88 669.459,-40.8 671.619,-40.8L686.019,-40.8C688.179,-40.8 689.259,-41.88 689.259,-44.22L689.259,-60.96C689.259,-63.12 688.179,-64.2 686.019,-64.2L671.619,-64.2Z" style="fill:white;fill-rule:nonzero;"/>
        <path d="M823.899,-28.38C791.679,-28.38 781.599,-18.3 781.599,7.44L781.599,33.18C781.599,58.74 791.679,69 823.899,69L895.899,69C897.879,69 898.599,68.1 898.599,66.3L898.599,53.88C898.599,52.08 897.879,51.18 895.899,51.18L825.879,51.18C807.519,51.18 802.479,45.78 802.479,29.22L802.479,11.4C802.479,-5.16 807.519,-10.56 825.879,-10.56L895.899,-10.56C897.879,-10.56 898.599,-11.46 898.599,-13.26L898.599,-25.68C898.599,-27.48 897.879,-28.38 895.899,-28.38L823.899,-28.38Z" style="fill:white;fill-rule:nonzero;"/>
        <path d="M920.199,-66C917.859,-66 916.959,-64.92 916.959,-62.76L916.959,65.76C916.959,67.92 917.859,69 920.199,69L934.419,69C936.759,69 937.839,67.92 937.839,65.76L937.839,-9.66L1007.68,-9.66C1026.04,-9.66 1030.18,-4.08 1030.18,12.3L1030.18,65.76C1030.18,67.92 1031.26,69 1033.42,69L1047.82,69C1049.98,69 1051.06,67.92 1051.06,65.76L1051.06,7.44C1051.06,-18.12 1040.8,-28.38 1008.76,-28.38L937.839,-28.38L937.839,-62.76C937.839,-64.92 936.759,-66 934.419,-66L920.199,-66Z" style="fill:white;fill-rule:nonzero;"/>
        <path d="M1099.84,-28.38C1078.78,-28.38 1071.94,-19.2 1071.94,-4.44L1071.94,2.58C1071.94,17.7 1079.5,26.16 1099.66,26.16L1161.22,26.16C1170.76,26.16 1174,29.94 1174,35.7L1174,40.92C1174,48.48 1170.76,51.9 1161.22,51.9L1074.64,51.9C1072.84,51.9 1071.94,52.8 1071.94,54.6L1071.94,66.3C1071.94,68.1 1072.84,69 1074.64,69L1166.44,69C1187.5,69 1194.34,60.18 1194.34,44.16L1194.34,34.98C1194.34,20.04 1186.78,11.76 1166.62,11.76L1105.24,11.76C1095.7,11.76 1092.46,7.98 1092.46,1.86L1092.46,-1.02C1092.46,-7.68 1095.7,-11.28 1105.24,-11.28L1187.5,-11.28C1189.3,-11.28 1190.2,-12.18 1190.2,-13.98L1190.2,-25.68C1190.2,-27.48 1189.3,-28.38 1187.5,-28.38L1099.84,-28.38Z" style="fill:white;fill-rule:nonzero;"/>
        <path d="M1209.1,-28.38C1207.3,-28.38 1206.4,-27.48 1206.4,-25.68L1206.4,-13.62C1206.4,-11.82 1207.3,-10.92 1209.1,-10.92L1226.56,-10.92L1226.56,33.72C1226.56,58.74 1234.12,69 1262.56,69L1283.44,69C1285.24,69 1286.14,68.1 1286.14,66.3L1286.14,54.24C1286.14,52.44 1285.24,51.54 1283.44,51.54L1265.98,51.54C1251.4,51.54 1247.44,46.14 1247.44,33.72L1247.44,-10.92L1282.36,-10.92C1284.16,-10.92 1285.06,-11.82 1285.06,-13.62L1285.06,-25.68C1285.06,-27.48 1284.16,-28.38 1282.36,-28.38L1247.44,-28.38L1247.44,-52.5C1247.44,-54.84 1246.36,-55.92 1244.2,-55.92L1229.8,-55.92C1227.64,-55.92 1226.56,-54.84 1226.56,-52.5L1226.56,-28.38L1209.1,-28.38Z" style="fill:white;fill-rule:nonzero;"/>
        <path d="M1339.96,-28.38C1307.74,-28.38 1297.48,-18.3 1297.48,7.44L1297.48,33.18C1297.48,58.74 1307.74,69 1339.96,69L1417.18,69C1418.98,69 1419.88,68.1 1419.88,66.3L1419.88,53.88C1419.88,52.08 1418.98,51.18 1417.18,51.18L1341.94,51.18C1323.58,51.18 1318.36,45.78 1318.36,32.28L1318.36,26.7L1412.68,26.7C1419.7,26.7 1422.94,24.18 1422.94,16.62L1422.94,0.6C1422.94,-20.82 1416.46,-28.38 1392.16,-28.38L1339.96,-28.38ZM1318.36,7.08C1318.36,-6.6 1323.58,-12 1341.94,-12L1388.2,-12C1399.18,-12 1402.42,-8.4 1402.42,1.32L1402.42,9.6C1402.42,12.48 1401.16,13.38 1398.64,13.38L1318.36,13.38L1318.36,7.08Z" style="fill:white;fill-rule:nonzero;"/>
        <path d="M1516.72,-57C1506.1,-57 1503.22,-52.68 1503.22,-41.16L1503.22,65.76C1503.22,67.92 1504.3,69 1506.46,69L1521.4,69C1523.56,69 1524.64,67.92 1524.64,65.76L1524.64,-33.78C1524.64,-35.04 1525.18,-35.58 1526.26,-35.58L1528.06,-35.58C1529.5,-35.58 1530.04,-35.22 1530.58,-34.14L1574.68,54.42C1579.9,65.04 1584.04,69 1594.12,69L1601.14,69C1611.22,69 1615.36,65.04 1620.58,54.42L1664.68,-34.14C1665.22,-35.22 1665.94,-35.58 1667.2,-35.58L1669.18,-35.58C1670.26,-35.58 1670.62,-35.04 1670.62,-33.78L1670.62,65.76C1670.62,67.92 1671.7,69 1673.86,69L1688.8,69C1691.14,69 1692.22,67.92 1692.22,65.76L1692.22,-41.16C1692.22,-52.68 1689.16,-57 1678.54,-57L1662.88,-57C1653.7,-57 1651,-55.02 1646.5,-45.48L1601.68,47.4C1600.96,48.66 1600.24,49.2 1598.8,49.2L1597,49.2C1595.74,49.2 1595.02,48.66 1594.3,47.4L1549.3,-45.48C1544.62,-55.02 1542.1,-57 1532.92,-57L1516.72,-57Z" style="fill:white;fill-rule:nonzero;"/>
        <path d="M1717.96,-28.38C1716.16,-28.38 1715.26,-27.48 1715.26,-25.68L1715.26,-13.26C1715.26,-11.46 1716.16,-10.56 1717.96,-10.56L1793.2,-10.56C1811.56,-10.56 1816.6,-5.34 1816.6,8.34L1816.6,12.66L1739.74,12.66C1718.68,12.66 1712.2,20.94 1712.2,35.7L1712.2,43.8C1712.2,61.44 1718.68,69 1739.74,69L1824.52,69C1834.78,69 1837.66,66.3 1837.66,54.78L1837.66,7.44C1837.66,-18.3 1827.22,-28.38 1795.18,-28.38L1717.96,-28.38ZM1810.48,52.62L1745.5,52.62C1735.96,52.62 1732.72,49.02 1732.72,40.92L1732.72,36.78C1732.72,29.76 1735.96,25.98 1745.5,25.98L1816.6,25.98L1816.6,45.78C1816.6,51 1815.16,52.62 1810.48,52.62Z" style="fill:white;fill-rule:nonzero;"/>
        <path d="M1861.24,-66C1858.9,-66 1858,-64.92 1858,-62.76L1858,65.76C1858,67.92 1858.9,69 1861.24,69L1875.46,69C1877.8,69 1878.88,67.92 1878.88,65.76L1878.88,-62.76C1878.88,-64.92 1877.8,-66 1875.46,-66L1861.24,-66Z" style="fill:white;fill-rule:nonzero;"/>
        <path d="M2000.56,-28.38C1968.34,-28.38 1958.08,-18.3 1958.08,7.44L1958.08,33.18C1958.08,58.74 1968.34,69 2000.56,69L2077.78,69C2079.58,69 2080.48,68.1 2080.48,66.3L2080.48,53.88C2080.48,52.08 2079.58,51.18 2077.78,51.18L2002.54,51.18C1984.18,51.18 1978.96,45.78 1978.96,32.28L1978.96,26.7L2073.28,26.7C2080.3,26.7 2083.54,24.18 2083.54,16.62L2083.54,0.6C2083.54,-20.82 2077.06,-28.38 2052.76,-28.38L2000.56,-28.38ZM1978.96,7.08C1978.96,-6.6 1984.18,-12 2002.54,-12L2048.8,-12C2059.78,-12 2063.02,-8.4 2063.02,1.32L2063.02,9.6C2063.02,12.48 2061.76,13.38 2059.24,13.38L1978.96,13.38L1978.96,7.08Z" style="fill:white;fill-rule:nonzero;"/>
        <path d="M2107.12,-28.38C2104.78,-28.38 2103.88,-27.3 2103.88,-25.14L2103.88,65.76C2103.88,67.92 2104.78,69 2107.12,69L2121.34,69C2123.68,69 2124.76,67.92 2124.76,65.76L2124.76,-25.14C2124.76,-27.3 2123.68,-28.38 2121.34,-28.38L2107.12,-28.38ZM2107.12,-64.2C2104.96,-64.2 2103.88,-63.12 2103.88,-60.96L2103.88,-44.22C2103.88,-41.88 2104.96,-40.8 2107.12,-40.8L2121.52,-40.8C2123.68,-40.8 2124.76,-41.88 2124.76,-44.22L2124.76,-60.96C2124.76,-63.12 2123.68,-64.2 2121.52,-64.2L2107.12,-64.2Z" style="fill:white;fill-rule:nonzero;"/>
        <path d="M2190.28,-28.38C2158.24,-28.38 2147.98,-18.12 2147.98,7.44L2147.98,65.76C2147.98,67.92 2149.06,69 2151.22,69L2165.62,69C2167.78,69 2168.86,67.92 2168.86,65.76L2168.86,12.3C2168.86,-4.08 2174.08,-9.66 2192.26,-9.66L2240.32,-9.66C2258.68,-9.66 2262.82,-4.08 2262.82,12.3L2262.82,65.76C2262.82,67.92 2263.9,69 2266.06,69L2280.46,69C2282.62,69 2283.7,67.92 2283.7,65.76L2283.7,7.44C2283.7,-18.12 2273.44,-28.38 2241.4,-28.38L2190.28,-28.38Z" style="fill:white;fill-rule:nonzero;"/>
    </g>
</svg>
