<?xml version="1.0" encoding="UTF-8" standalone="no"?>
<!DOCTYPE svg PUBLIC "-//W3C//DTD SVG 1.1//EN" "http://www.w3.org/Graphics/SVG/1.1/DTD/svg11.dtd">
<svg width="100%" height="100%" viewBox="0 0 1894 315" version="1.1" xmlns="http://www.w3.org/2000/svg" xmlns:xlink="http://www.w3.org/1999/xlink" xml:space="preserve" xmlns:serif="http://www.serif.com/" style="fill-rule:evenodd;clip-rule:evenodd;stroke-linejoin:round;stroke-miterlimit:2;">
    <g transform="matrix(1.08837,0,0,1.08837,101.233,-36.4176)">
        <g transform="matrix(165.386,0,0,165.386,-4.26595,157.5)">
            <path d="M0.029,-0.7C0.02,-0.7 0.018,-0.691 0.022,-0.68L0.22,-0.064C0.236,-0.013 0.252,-0 0.292,-0L0.384,-0C0.419,-0 0.433,-0.014 0.451,-0.064L0.635,-0.577C0.636,-0.583 0.639,-0.584 0.644,-0.584L0.649,-0.584C0.654,-0.584 0.656,-0.583 0.657,-0.577L0.84,-0.064C0.858,-0.014 0.872,-0 0.907,-0L1.001,-0C1.035,-0 1.052,-0.014 1.068,-0.064L1.272,-0.68C1.275,-0.691 1.274,-0.7 1.264,-0.7L1.156,-0.7C1.151,-0.7 1.145,-0.698 1.143,-0.689L0.966,-0.123C0.964,-0.117 0.961,-0.116 0.956,-0.116L0.951,-0.116C0.946,-0.116 0.943,-0.117 0.941,-0.123L0.752,-0.651C0.739,-0.687 0.722,-0.7 0.683,-0.7L0.604,-0.7C0.571,-0.7 0.552,-0.689 0.539,-0.651L0.353,-0.123C0.351,-0.117 0.348,-0.116 0.344,-0.116L0.338,-0.116C0.333,-0.116 0.33,-0.117 0.329,-0.123L0.149,-0.689C0.146,-0.697 0.143,-0.7 0.136,-0.7L0.029,-0.7Z" style="fill:white;fill-rule:nonzero;"/>
        </g>
        <g transform="matrix(165.386,0,0,165.386,209.908,157.5)">
            <path d="M0.085,-0.541C0.072,-0.541 0.067,-0.535 0.067,-0.523L0.067,-0.018C0.067,-0.006 0.072,-0 0.085,-0L0.164,-0C0.177,-0 0.183,-0.006 0.183,-0.018L0.183,-0.523C0.183,-0.535 0.177,-0.541 0.164,-0.541L0.085,-0.541ZM0.085,-0.74C0.073,-0.74 0.067,-0.734 0.067,-0.722L0.067,-0.629C0.067,-0.616 0.073,-0.61 0.085,-0.61L0.165,-0.61C0.177,-0.61 0.183,-0.616 0.183,-0.629L0.183,-0.722C0.183,-0.734 0.177,-0.74 0.165,-0.74L0.085,-0.74Z" style="fill:white;fill-rule:nonzero;"/>
        </g>
        <g transform="matrix(165.386,0,0,165.386,251.089,157.5)">
            <path d="M0.298,-0.541C0.12,-0.541 0.063,-0.484 0.063,-0.342L0.063,-0.018C0.063,-0.006 0.069,-0 0.081,-0L0.161,-0C0.173,-0 0.179,-0.006 0.179,-0.018L0.179,-0.32C0.179,-0.412 0.208,-0.442 0.309,-0.442L0.578,-0.442C0.588,-0.442 0.593,-0.447 0.593,-0.457L0.593,-0.526C0.593,-0.536 0.588,-0.541 0.578,-0.541L0.298,-0.541Z" style="fill:white;fill-rule:nonzero;"/>
        </g>
        <g transform="matrix(165.386,0,0,165.386,407.213,157.5)">
            <path d="M0.208,-0.541C0.091,-0.541 0.053,-0.49 0.053,-0.408L0.053,-0.369C0.053,-0.285 0.095,-0.238 0.207,-0.238L0.549,-0.238C0.602,-0.238 0.62,-0.217 0.62,-0.185L0.62,-0.156C0.62,-0.114 0.602,-0.095 0.549,-0.095L0.068,-0.095C0.058,-0.095 0.053,-0.09 0.053,-0.08L0.053,-0.015C0.053,-0.005 0.058,-0 0.068,-0L0.578,-0C0.695,-0 0.733,-0.049 0.733,-0.138L0.733,-0.189C0.733,-0.272 0.691,-0.318 0.579,-0.318L0.238,-0.318C0.185,-0.318 0.167,-0.339 0.167,-0.373L0.167,-0.389C0.167,-0.426 0.185,-0.446 0.238,-0.446L0.695,-0.446C0.705,-0.446 0.71,-0.451 0.71,-0.461L0.71,-0.526C0.71,-0.536 0.705,-0.541 0.695,-0.541L0.208,-0.541Z" style="fill:white;fill-rule:nonzero;"/>
        </g>
        <g transform="matrix(165.386,0,0,165.386,536.214,157.5)">
            <path d="M0.279,-0.541C0.1,-0.541 0.043,-0.485 0.043,-0.342L0.043,-0.199C0.043,-0.057 0.1,-0 0.279,-0L0.708,-0C0.718,-0 0.723,-0.005 0.723,-0.015L0.723,-0.084C0.723,-0.094 0.718,-0.099 0.708,-0.099L0.29,-0.099C0.188,-0.099 0.159,-0.129 0.159,-0.204L0.159,-0.235L0.683,-0.235C0.722,-0.235 0.74,-0.249 0.74,-0.291L0.74,-0.38C0.74,-0.499 0.704,-0.541 0.569,-0.541L0.279,-0.541ZM0.159,-0.344C0.159,-0.42 0.188,-0.45 0.29,-0.45L0.547,-0.45C0.608,-0.45 0.626,-0.43 0.626,-0.376L0.626,-0.33C0.626,-0.314 0.619,-0.309 0.605,-0.309L0.159,-0.309L0.159,-0.344Z" style="fill:white;fill-rule:nonzero;"/>
        </g>
        <g transform="matrix(165.386,0,0,165.386,666.207,157.5)">
            <path d="M0.085,-0.75C0.072,-0.75 0.067,-0.744 0.067,-0.732L0.067,-0.018C0.067,-0.006 0.072,-0 0.085,-0L0.164,-0C0.177,-0 0.183,-0.006 0.183,-0.018L0.183,-0.437L0.571,-0.437C0.673,-0.437 0.696,-0.406 0.696,-0.315L0.696,-0.018C0.696,-0.006 0.702,-0 0.714,-0L0.794,-0C0.806,-0 0.812,-0.006 0.812,-0.018L0.812,-0.342C0.812,-0.484 0.755,-0.541 0.577,-0.541L0.183,-0.541L0.183,-0.732C0.183,-0.744 0.177,-0.75 0.164,-0.75L0.085,-0.75Z" style="fill:white;fill-rule:nonzero;"/>
        </g>
        <g transform="matrix(165.386,0,0,165.386,810.92,157.5)">
            <path d="M0.279,-0.541C0.1,-0.541 0.043,-0.485 0.043,-0.342L0.043,-0.199C0.043,-0.057 0.1,-0 0.279,-0L0.708,-0C0.718,-0 0.723,-0.005 0.723,-0.015L0.723,-0.084C0.723,-0.094 0.718,-0.099 0.708,-0.099L0.29,-0.099C0.188,-0.099 0.159,-0.129 0.159,-0.204L0.159,-0.235L0.683,-0.235C0.722,-0.235 0.74,-0.249 0.74,-0.291L0.74,-0.38C0.74,-0.499 0.704,-0.541 0.569,-0.541L0.279,-0.541ZM0.159,-0.344C0.159,-0.42 0.188,-0.45 0.29,-0.45L0.547,-0.45C0.608,-0.45 0.626,-0.43 0.626,-0.376L0.626,-0.33C0.626,-0.314 0.619,-0.309 0.605,-0.309L0.159,-0.309L0.159,-0.344Z" style="fill:white;fill-rule:nonzero;"/>
        </g>
        <g transform="matrix(165.386,0,0,165.386,940.913,157.5)">
            <path d="M0.298,-0.541C0.12,-0.541 0.063,-0.484 0.063,-0.342L0.063,-0.018C0.063,-0.006 0.069,-0 0.081,-0L0.161,-0C0.173,-0 0.179,-0.006 0.179,-0.018L0.179,-0.315C0.179,-0.406 0.208,-0.437 0.309,-0.437L0.576,-0.437C0.678,-0.437 0.701,-0.406 0.701,-0.315L0.701,-0.018C0.701,-0.006 0.707,-0 0.719,-0L0.799,-0C0.811,-0 0.817,-0.006 0.817,-0.018L0.817,-0.342C0.817,-0.484 0.76,-0.541 0.582,-0.541L0.298,-0.541Z" style="fill:white;fill-rule:nonzero;"/>
        </g>
        <g transform="matrix(165.386,0,0,165.386,1141.19,157.5)">
            <path d="M0.081,-0.541C0.069,-0.541 0.063,-0.535 0.063,-0.523L0.063,-0.199C0.063,-0.057 0.12,-0 0.298,-0L0.574,-0C0.752,-0 0.809,-0.057 0.809,-0.199L0.809,-0.523C0.809,-0.535 0.803,-0.541 0.791,-0.541L0.711,-0.541C0.699,-0.541 0.693,-0.535 0.693,-0.523L0.693,-0.226C0.693,-0.135 0.665,-0.104 0.563,-0.104L0.304,-0.104C0.203,-0.104 0.179,-0.135 0.179,-0.226L0.179,-0.523C0.179,-0.535 0.173,-0.541 0.161,-0.541L0.081,-0.541Z" style="fill:white;fill-rule:nonzero;"/>
        </g>
        <g transform="matrix(165.386,0,0,165.386,1285.41,157.5)">
            <path d="M0.298,-0.541C0.12,-0.541 0.063,-0.484 0.063,-0.342L0.063,-0.018C0.063,-0.006 0.069,-0 0.081,-0L0.161,-0C0.173,-0 0.179,-0.006 0.179,-0.018L0.179,-0.315C0.179,-0.406 0.208,-0.437 0.309,-0.437L0.576,-0.437C0.678,-0.437 0.701,-0.406 0.701,-0.315L0.701,-0.018C0.701,-0.006 0.707,-0 0.719,-0L0.799,-0C0.811,-0 0.817,-0.006 0.817,-0.018L0.817,-0.342C0.817,-0.484 0.76,-0.541 0.582,-0.541L0.298,-0.541Z" style="fill:white;fill-rule:nonzero;"/>
        </g>
        <g transform="matrix(165.386,0,0,165.386,1430.95,157.5)">
            <path d="M0.208,-0.541C0.091,-0.541 0.053,-0.49 0.053,-0.408L0.053,-0.369C0.053,-0.285 0.095,-0.238 0.207,-0.238L0.549,-0.238C0.602,-0.238 0.62,-0.217 0.62,-0.185L0.62,-0.156C0.62,-0.114 0.602,-0.095 0.549,-0.095L0.068,-0.095C0.058,-0.095 0.053,-0.09 0.053,-0.08L0.053,-0.015C0.053,-0.005 0.058,-0 0.068,-0L0.578,-0C0.695,-0 0.733,-0.049 0.733,-0.138L0.733,-0.189C0.733,-0.272 0.691,-0.318 0.579,-0.318L0.238,-0.318C0.185,-0.318 0.167,-0.339 0.167,-0.373L0.167,-0.389C0.167,-0.426 0.185,-0.446 0.238,-0.446L0.695,-0.446C0.705,-0.446 0.71,-0.451 0.71,-0.461L0.71,-0.526C0.71,-0.536 0.705,-0.541 0.695,-0.541L0.208,-0.541Z" style="fill:white;fill-rule:nonzero;"/>
        </g>
        <g transform="matrix(165.386,0,0,165.386,-101.595,322.886)">
            <path d="M0.292,-0.541C0.114,-0.541 0.057,-0.485 0.057,-0.342L0.057,-0.199C0.057,-0.057 0.114,-0 0.292,-0L0.569,-0C0.747,-0 0.804,-0.057 0.804,-0.199L0.804,-0.732C0.804,-0.744 0.798,-0.75 0.786,-0.75L0.706,-0.75C0.694,-0.75 0.688,-0.744 0.688,-0.732L0.688,-0.541L0.292,-0.541ZM0.558,-0.099L0.303,-0.099C0.202,-0.099 0.173,-0.129 0.173,-0.221L0.173,-0.32C0.173,-0.412 0.202,-0.442 0.303,-0.442L0.688,-0.442L0.688,-0.221C0.688,-0.129 0.66,-0.099 0.558,-0.099Z" style="fill:white;fill-rule:nonzero;"/>
        </g>
        <g transform="matrix(165.386,0,0,165.386,41.9593,322.886)">
            <path d="M0.075,-0.541C0.065,-0.541 0.06,-0.536 0.06,-0.526L0.06,-0.457C0.06,-0.447 0.065,-0.442 0.075,-0.442L0.493,-0.442C0.595,-0.442 0.623,-0.413 0.623,-0.337L0.623,-0.313L0.196,-0.313C0.079,-0.313 0.043,-0.267 0.043,-0.185L0.043,-0.14C0.043,-0.042 0.079,-0 0.196,-0L0.667,-0C0.724,-0 0.74,-0.015 0.74,-0.079L0.74,-0.342C0.74,-0.485 0.682,-0.541 0.504,-0.541L0.075,-0.541ZM0.589,-0.091L0.228,-0.091C0.175,-0.091 0.157,-0.111 0.157,-0.156L0.157,-0.179C0.157,-0.218 0.175,-0.239 0.228,-0.239L0.623,-0.239L0.623,-0.129C0.623,-0.1 0.615,-0.091 0.589,-0.091Z" style="fill:white;fill-rule:nonzero;"/>
        </g>
        <g transform="matrix(165.386,0,0,165.386,171.952,322.886)">
            <path d="M0.208,-0.541C0.091,-0.541 0.053,-0.49 0.053,-0.408L0.053,-0.369C0.053,-0.285 0.095,-0.238 0.207,-0.238L0.549,-0.238C0.602,-0.238 0.62,-0.217 0.62,-0.185L0.62,-0.156C0.62,-0.114 0.602,-0.095 0.549,-0.095L0.068,-0.095C0.058,-0.095 0.053,-0.09 0.053,-0.08L0.053,-0.015C0.053,-0.005 0.058,-0 0.068,-0L0.578,-0C0.695,-0 0.733,-0.049 0.733,-0.138L0.733,-0.189C0.733,-0.272 0.691,-0.318 0.579,-0.318L0.238,-0.318C0.185,-0.318 0.167,-0.339 0.167,-0.373L0.167,-0.389C0.167,-0.426 0.185,-0.446 0.238,-0.446L0.695,-0.446C0.705,-0.446 0.71,-0.451 0.71,-0.461L0.71,-0.526C0.71,-0.536 0.705,-0.541 0.695,-0.541L0.208,-0.541Z" style="fill:white;fill-rule:nonzero;"/>
        </g>
        <g transform="matrix(165.386,0,0,165.386,355.696,322.886)">
            <path d="M0.298,-0.541C0.12,-0.541 0.063,-0.484 0.063,-0.342L0.063,-0.018C0.063,-0.006 0.069,-0 0.081,-0L0.161,-0C0.173,-0 0.179,-0.006 0.179,-0.018L0.179,-0.315C0.179,-0.406 0.208,-0.437 0.309,-0.437L0.576,-0.437C0.678,-0.437 0.701,-0.406 0.701,-0.315L0.701,-0.018C0.701,-0.006 0.707,-0 0.719,-0L0.799,-0C0.811,-0 0.817,-0.006 0.817,-0.018L0.817,-0.342C0.817,-0.484 0.76,-0.541 0.582,-0.541L0.298,-0.541Z" style="fill:white;fill-rule:nonzero;"/>
        </g>
        <g transform="matrix(165.386,0,0,165.386,501.235,322.886)">
            <path d="M0.075,-0.541C0.065,-0.541 0.06,-0.536 0.06,-0.526L0.06,-0.457C0.06,-0.447 0.065,-0.442 0.075,-0.442L0.493,-0.442C0.595,-0.442 0.623,-0.413 0.623,-0.337L0.623,-0.313L0.196,-0.313C0.079,-0.313 0.043,-0.267 0.043,-0.185L0.043,-0.14C0.043,-0.042 0.079,-0 0.196,-0L0.667,-0C0.724,-0 0.74,-0.015 0.74,-0.079L0.74,-0.342C0.74,-0.485 0.682,-0.541 0.504,-0.541L0.075,-0.541ZM0.589,-0.091L0.228,-0.091C0.175,-0.091 0.157,-0.111 0.157,-0.156L0.157,-0.179C0.157,-0.218 0.175,-0.239 0.228,-0.239L0.623,-0.239L0.623,-0.129C0.623,-0.1 0.615,-0.091 0.589,-0.091ZM0.49,-0.74C0.478,-0.74 0.472,-0.734 0.472,-0.722L0.472,-0.629C0.472,-0.616 0.478,-0.61 0.49,-0.61L0.57,-0.61C0.582,-0.61 0.588,-0.616 0.588,-0.629L0.588,-0.722C0.588,-0.734 0.582,-0.74 0.57,-0.74L0.49,-0.74ZM0.217,-0.74C0.205,-0.74 0.199,-0.734 0.199,-0.722L0.199,-0.629C0.199,-0.616 0.205,-0.61 0.217,-0.61L0.297,-0.61C0.309,-0.61 0.315,-0.616 0.315,-0.629L0.315,-0.722C0.315,-0.734 0.309,-0.74 0.297,-0.74L0.217,-0.74Z" style="fill:white;fill-rule:nonzero;"/>
        </g>
        <g transform="matrix(165.386,0,0,165.386,631.228,322.886)">
            <path d="M0.277,-0.541C0.098,-0.541 0.042,-0.485 0.042,-0.342L0.042,-0.199C0.042,-0.057 0.098,-0 0.277,-0L0.677,-0C0.688,-0 0.692,-0.005 0.692,-0.015L0.692,-0.084C0.692,-0.094 0.688,-0.099 0.677,-0.099L0.288,-0.099C0.186,-0.099 0.158,-0.129 0.158,-0.221L0.158,-0.32C0.158,-0.412 0.186,-0.442 0.288,-0.442L0.677,-0.442C0.688,-0.442 0.692,-0.447 0.692,-0.457L0.692,-0.526C0.692,-0.536 0.688,-0.541 0.677,-0.541L0.277,-0.541Z" style="fill:white;fill-rule:nonzero;"/>
        </g>
        <g transform="matrix(165.386,0,0,165.386,751.464,322.886)">
            <path d="M0.085,-0.75C0.072,-0.75 0.067,-0.744 0.067,-0.732L0.067,-0.018C0.067,-0.006 0.072,-0 0.085,-0L0.164,-0C0.177,-0 0.183,-0.006 0.183,-0.018L0.183,-0.437L0.571,-0.437C0.673,-0.437 0.696,-0.406 0.696,-0.315L0.696,-0.018C0.696,-0.006 0.702,-0 0.714,-0L0.794,-0C0.806,-0 0.812,-0.006 0.812,-0.018L0.812,-0.342C0.812,-0.484 0.755,-0.541 0.577,-0.541L0.183,-0.541L0.183,-0.732C0.183,-0.744 0.177,-0.75 0.164,-0.75L0.085,-0.75Z" style="fill:white;fill-rule:nonzero;"/>
        </g>
        <g transform="matrix(165.386,0,0,165.386,896.176,322.886)">
            <path d="M0.208,-0.541C0.091,-0.541 0.053,-0.49 0.053,-0.408L0.053,-0.369C0.053,-0.285 0.095,-0.238 0.207,-0.238L0.549,-0.238C0.602,-0.238 0.62,-0.217 0.62,-0.185L0.62,-0.156C0.62,-0.114 0.602,-0.095 0.549,-0.095L0.068,-0.095C0.058,-0.095 0.053,-0.09 0.053,-0.08L0.053,-0.015C0.053,-0.005 0.058,-0 0.068,-0L0.578,-0C0.695,-0 0.733,-0.049 0.733,-0.138L0.733,-0.189C0.733,-0.272 0.691,-0.318 0.579,-0.318L0.238,-0.318C0.185,-0.318 0.167,-0.339 0.167,-0.373L0.167,-0.389C0.167,-0.426 0.185,-0.446 0.238,-0.446L0.695,-0.446C0.705,-0.446 0.71,-0.451 0.71,-0.461L0.71,-0.526C0.71,-0.536 0.705,-0.541 0.695,-0.541L0.208,-0.541Z" style="fill:white;fill-rule:nonzero;"/>
        </g>
        <g transform="matrix(165.386,0,0,165.386,1025.18,322.886)">
            <path d="M0.035,-0.541C0.025,-0.541 0.02,-0.536 0.02,-0.526L0.02,-0.459C0.02,-0.449 0.025,-0.444 0.035,-0.444L0.132,-0.444L0.132,-0.196C0.132,-0.057 0.174,-0 0.332,-0L0.448,-0C0.458,-0 0.463,-0.005 0.463,-0.015L0.463,-0.082C0.463,-0.092 0.458,-0.097 0.448,-0.097L0.351,-0.097C0.27,-0.097 0.248,-0.127 0.248,-0.196L0.248,-0.444L0.442,-0.444C0.452,-0.444 0.457,-0.449 0.457,-0.459L0.457,-0.526C0.457,-0.536 0.452,-0.541 0.442,-0.541L0.248,-0.541L0.248,-0.675C0.248,-0.688 0.242,-0.694 0.23,-0.694L0.15,-0.694C0.138,-0.694 0.132,-0.688 0.132,-0.675L0.132,-0.541L0.035,-0.541Z" style="fill:white;fill-rule:nonzero;"/>
        </g>
        <g transform="matrix(165.386,0,0,165.386,1105.06,322.886)">
            <path d="M0.279,-0.541C0.1,-0.541 0.043,-0.485 0.043,-0.342L0.043,-0.199C0.043,-0.057 0.1,-0 0.279,-0L0.708,-0C0.718,-0 0.723,-0.005 0.723,-0.015L0.723,-0.084C0.723,-0.094 0.718,-0.099 0.708,-0.099L0.29,-0.099C0.188,-0.099 0.159,-0.129 0.159,-0.204L0.159,-0.235L0.683,-0.235C0.722,-0.235 0.74,-0.249 0.74,-0.291L0.74,-0.38C0.74,-0.499 0.704,-0.541 0.569,-0.541L0.279,-0.541ZM0.159,-0.344C0.159,-0.42 0.188,-0.45 0.29,-0.45L0.547,-0.45C0.608,-0.45 0.626,-0.43 0.626,-0.376L0.626,-0.33C0.626,-0.314 0.619,-0.309 0.605,-0.309L0.159,-0.309L0.159,-0.344Z" style="fill:white;fill-rule:nonzero;"/>
        </g>
        <g transform="matrix(165.386,0,0,165.386,1289.79,322.886)">
            <path d="M0.144,-0.7C0.085,-0.7 0.069,-0.676 0.069,-0.612L0.069,-0.018C0.069,-0.006 0.075,-0 0.087,-0L0.17,-0C0.182,-0 0.188,-0.006 0.188,-0.018L0.188,-0.571C0.188,-0.578 0.191,-0.581 0.197,-0.581L0.207,-0.581C0.215,-0.581 0.218,-0.579 0.221,-0.573L0.466,-0.081C0.495,-0.022 0.518,-0 0.574,-0L0.613,-0C0.669,-0 0.692,-0.022 0.721,-0.081L0.966,-0.573C0.969,-0.579 0.973,-0.581 0.98,-0.581L0.991,-0.581C0.997,-0.581 0.999,-0.578 0.999,-0.571L0.999,-0.018C0.999,-0.006 1.005,-0 1.017,-0L1.1,-0C1.113,-0 1.119,-0.006 1.119,-0.018L1.119,-0.612C1.119,-0.676 1.102,-0.7 1.043,-0.7L0.956,-0.7C0.905,-0.7 0.89,-0.689 0.865,-0.636L0.616,-0.12C0.612,-0.113 0.608,-0.11 0.6,-0.11L0.59,-0.11C0.583,-0.11 0.579,-0.113 0.575,-0.12L0.325,-0.636C0.299,-0.689 0.285,-0.7 0.234,-0.7L0.144,-0.7Z" style="fill:white;fill-rule:nonzero;"/>
        </g>
        <g transform="matrix(165.386,0,0,165.386,1486.11,322.886)">
            <path d="M0.075,-0.541C0.065,-0.541 0.06,-0.536 0.06,-0.526L0.06,-0.457C0.06,-0.447 0.065,-0.442 0.075,-0.442L0.493,-0.442C0.595,-0.442 0.623,-0.413 0.623,-0.337L0.623,-0.313L0.196,-0.313C0.079,-0.313 0.043,-0.267 0.043,-0.185L0.043,-0.14C0.043,-0.042 0.079,-0 0.196,-0L0.667,-0C0.724,-0 0.74,-0.015 0.74,-0.079L0.74,-0.342C0.74,-0.485 0.682,-0.541 0.504,-0.541L0.075,-0.541ZM0.589,-0.091L0.228,-0.091C0.175,-0.091 0.157,-0.111 0.157,-0.156L0.157,-0.179C0.157,-0.218 0.175,-0.239 0.228,-0.239L0.623,-0.239L0.623,-0.129C0.623,-0.1 0.615,-0.091 0.589,-0.091Z" style="fill:white;fill-rule:nonzero;"/>
        </g>
        <g transform="matrix(165.386,0,0,165.386,1616.1,322.886)">
            <path d="M0.085,-0.75C0.072,-0.75 0.067,-0.744 0.067,-0.732L0.067,-0.018C0.067,-0.006 0.072,-0 0.085,-0L0.164,-0C0.177,-0 0.183,-0.006 0.183,-0.018L0.183,-0.732C0.183,-0.744 0.177,-0.75 0.164,-0.75L0.085,-0.75Z" style="fill:white;fill-rule:nonzero;"/>
        </g>
    </g>
</svg>
