<?xml version="1.0" encoding="UTF-8" standalone="no"?>
<!DOCTYPE svg PUBLIC "-//W3C//DTD SVG 1.1//EN" "http://www.w3.org/Graphics/SVG/1.1/DTD/svg11.dtd">
<svg width="100%" height="100%" viewBox="0 0 3731 287" version="1.1" xmlns="http://www.w3.org/2000/svg" xmlns:xlink="http://www.w3.org/1999/xlink" xml:space="preserve" xmlns:serif="http://www.serif.com/" style="fill-rule:evenodd;clip-rule:evenodd;stroke-linejoin:round;stroke-miterlimit:2;">
    <g transform="matrix(1.19437,0,0,1.19437,-278.526,-1684)">
        <g transform="matrix(281.303,0,0,281.303,252.248,1632.5)">
            <path d="M0.043,-0.7C0.033,-0.7 0.029,-0.695 0.029,-0.686L0.029,-0.624C0.029,-0.615 0.033,-0.61 0.043,-0.61L0.385,-0.61L0.385,-0.014C0.385,-0.005 0.389,-0 0.399,-0L0.466,-0C0.476,-0 0.481,-0.005 0.481,-0.014L0.481,-0.61L0.823,-0.61C0.833,-0.61 0.837,-0.615 0.837,-0.624L0.837,-0.686C0.837,-0.695 0.833,-0.7 0.823,-0.7L0.043,-0.7Z" style="fill:white;fill-rule:nonzero;"/>
        </g>
        <g transform="matrix(281.303,0,0,281.303,495.857,1632.5)">
            <path d="M0.079,-0.533C0.07,-0.533 0.065,-0.529 0.065,-0.519L0.065,-0.197C0.065,-0.056 0.122,-0 0.298,-0L0.571,-0C0.747,-0 0.804,-0.056 0.804,-0.197L0.804,-0.519C0.804,-0.529 0.799,-0.533 0.789,-0.533L0.728,-0.533C0.718,-0.533 0.714,-0.529 0.714,-0.519L0.714,-0.216C0.714,-0.116 0.679,-0.081 0.563,-0.081L0.302,-0.081C0.186,-0.081 0.155,-0.116 0.155,-0.216L0.155,-0.519C0.155,-0.529 0.15,-0.533 0.141,-0.533L0.079,-0.533Z" style="fill:white;fill-rule:nonzero;"/>
        </g>
        <g transform="matrix(281.303,0,0,281.303,740.309,1632.5)">
            <path d="M0.298,-0.533C0.122,-0.533 0.065,-0.477 0.065,-0.337L0.065,-0.014C0.065,-0.005 0.07,-0 0.079,-0L0.141,-0C0.15,-0 0.155,-0.005 0.155,-0.014L0.155,-0.317C0.155,-0.417 0.189,-0.452 0.306,-0.452L0.574,-0.452C0.691,-0.452 0.722,-0.417 0.722,-0.317L0.722,-0.014C0.722,-0.005 0.726,-0 0.736,-0L0.797,-0C0.807,-0 0.812,-0.005 0.812,-0.014L0.812,-0.337C0.812,-0.477 0.755,-0.533 0.579,-0.533L0.298,-0.533Z" style="fill:white;fill-rule:nonzero;"/>
        </g>
        <g transform="matrix(281.303,0,0,281.303,987.012,1632.5)">
            <path d="M0.278,-0.533C0.102,-0.533 0.046,-0.478 0.046,-0.337L0.046,-0.197C0.046,-0.056 0.102,-0 0.278,-0L0.706,-0C0.714,-0 0.718,-0.004 0.718,-0.012L0.718,-0.065C0.718,-0.073 0.714,-0.077 0.706,-0.077L0.286,-0.077C0.17,-0.077 0.136,-0.112 0.136,-0.2L0.136,-0.237L0.679,-0.237C0.717,-0.237 0.735,-0.251 0.735,-0.292L0.735,-0.374C0.735,-0.492 0.699,-0.533 0.565,-0.533L0.278,-0.533ZM0.136,-0.338C0.136,-0.427 0.17,-0.462 0.286,-0.462L0.55,-0.462C0.625,-0.462 0.646,-0.438 0.646,-0.372L0.646,-0.32C0.646,-0.303 0.638,-0.297 0.622,-0.297L0.136,-0.297L0.136,-0.338Z" style="fill:white;fill-rule:nonzero;"/>
        </g>
        <g transform="matrix(281.303,0,0,281.303,1299.54,1632.5)">
            <path d="M0.084,-0.533C0.074,-0.533 0.069,-0.529 0.069,-0.519L0.069,-0.014C0.069,-0.005 0.074,-0 0.084,-0L0.145,-0C0.155,-0 0.159,-0.005 0.159,-0.014L0.159,-0.519C0.159,-0.529 0.155,-0.533 0.145,-0.533L0.084,-0.533ZM0.083,-0.728C0.074,-0.728 0.069,-0.723 0.069,-0.713L0.069,-0.622C0.069,-0.613 0.074,-0.608 0.083,-0.608L0.145,-0.608C0.154,-0.608 0.159,-0.613 0.159,-0.622L0.159,-0.713C0.159,-0.723 0.154,-0.728 0.145,-0.728L0.083,-0.728Z" style="fill:white;fill-rule:nonzero;"/>
        </g>
        <g transform="matrix(281.303,0,0,281.303,1363.96,1632.5)">
            <path d="M0.298,-0.533C0.122,-0.533 0.065,-0.477 0.065,-0.337L0.065,-0.014C0.065,-0.005 0.07,-0 0.079,-0L0.141,-0C0.15,-0 0.155,-0.005 0.155,-0.014L0.155,-0.317C0.155,-0.417 0.189,-0.452 0.306,-0.452L0.574,-0.452C0.691,-0.452 0.722,-0.417 0.722,-0.317L0.722,-0.014C0.722,-0.005 0.726,-0 0.736,-0L0.797,-0C0.807,-0 0.812,-0.005 0.812,-0.014L0.812,-0.337C0.812,-0.477 0.755,-0.533 0.579,-0.533L0.298,-0.533Z" style="fill:white;fill-rule:nonzero;"/>
        </g>
        <g transform="matrix(281.303,0,0,281.303,1702.93,1632.5)">
            <path d="M0.298,-0.533C0.122,-0.533 0.065,-0.477 0.065,-0.337L0.065,-0.014C0.065,-0.005 0.07,-0 0.079,-0L0.141,-0C0.15,-0 0.155,-0.005 0.155,-0.014L0.155,-0.317C0.155,-0.417 0.189,-0.452 0.306,-0.452L0.574,-0.452C0.691,-0.452 0.722,-0.417 0.722,-0.317L0.722,-0.014C0.722,-0.005 0.726,-0 0.736,-0L0.797,-0C0.807,-0 0.812,-0.005 0.812,-0.014L0.812,-0.337C0.812,-0.477 0.755,-0.533 0.579,-0.533L0.298,-0.533Z" style="fill:white;fill-rule:nonzero;"/>
        </g>
        <g transform="matrix(281.303,0,0,281.303,1949.63,1632.5)">
            <path d="M0.278,-0.533C0.102,-0.533 0.046,-0.478 0.046,-0.337L0.046,-0.197C0.046,-0.056 0.102,-0 0.278,-0L0.706,-0C0.714,-0 0.718,-0.004 0.718,-0.012L0.718,-0.065C0.718,-0.073 0.714,-0.077 0.706,-0.077L0.286,-0.077C0.17,-0.077 0.136,-0.112 0.136,-0.2L0.136,-0.237L0.679,-0.237C0.717,-0.237 0.735,-0.251 0.735,-0.292L0.735,-0.374C0.735,-0.492 0.699,-0.533 0.565,-0.533L0.278,-0.533ZM0.136,-0.338C0.136,-0.427 0.17,-0.462 0.286,-0.462L0.55,-0.462C0.625,-0.462 0.646,-0.438 0.646,-0.372L0.646,-0.32C0.646,-0.303 0.638,-0.297 0.622,-0.297L0.136,-0.297L0.136,-0.338Z" style="fill:white;fill-rule:nonzero;"/>
        </g>
        <g transform="matrix(281.303,0,0,281.303,2169.89,1632.5)">
            <path d="M0.054,-0.533C0.042,-0.533 0.04,-0.522 0.047,-0.515L0.333,-0.275L0.024,-0.018C0.016,-0.011 0.019,-0 0.031,-0L0.103,-0C0.113,-0 0.118,-0.004 0.123,-0.008L0.392,-0.226L0.654,-0.008C0.659,-0.003 0.664,-0 0.674,-0L0.755,-0C0.766,-0 0.769,-0.012 0.761,-0.018L0.459,-0.27L0.755,-0.515C0.763,-0.522 0.76,-0.533 0.749,-0.533L0.676,-0.533C0.666,-0.533 0.662,-0.53 0.657,-0.526L0.401,-0.319L0.154,-0.526C0.149,-0.531 0.144,-0.533 0.134,-0.533L0.054,-0.533Z" style="fill:white;fill-rule:nonzero;"/>
        </g>
        <g transform="matrix(281.303,0,0,281.303,2390.72,1632.5)">
            <path d="M0.035,-0.533C0.027,-0.533 0.023,-0.53 0.023,-0.521L0.023,-0.469C0.023,-0.461 0.027,-0.457 0.035,-0.457L0.134,-0.457L0.134,-0.194C0.134,-0.056 0.175,-0 0.332,-0L0.441,-0C0.449,-0 0.453,-0.004 0.453,-0.012L0.453,-0.064C0.453,-0.072 0.449,-0.076 0.441,-0.076L0.345,-0.076C0.25,-0.076 0.224,-0.111 0.224,-0.194L0.224,-0.457L0.435,-0.457C0.443,-0.457 0.447,-0.461 0.447,-0.469L0.447,-0.521C0.447,-0.53 0.443,-0.533 0.435,-0.533L0.224,-0.533L0.224,-0.67C0.224,-0.679 0.219,-0.684 0.209,-0.684L0.148,-0.684C0.138,-0.684 0.134,-0.679 0.134,-0.67L0.134,-0.533L0.035,-0.533Z" style="fill:white;fill-rule:nonzero;"/>
        </g>
        <g transform="matrix(281.303,0,0,281.303,2616.88,1632.5)">
            <path d="M0.035,-0.533C0.027,-0.533 0.023,-0.53 0.023,-0.521L0.023,-0.469C0.023,-0.461 0.027,-0.457 0.035,-0.457L0.134,-0.457L0.134,-0.194C0.134,-0.056 0.175,-0 0.332,-0L0.441,-0C0.449,-0 0.453,-0.004 0.453,-0.012L0.453,-0.064C0.453,-0.072 0.449,-0.076 0.441,-0.076L0.345,-0.076C0.25,-0.076 0.224,-0.111 0.224,-0.194L0.224,-0.457L0.435,-0.457C0.443,-0.457 0.447,-0.461 0.447,-0.469L0.447,-0.521C0.447,-0.53 0.443,-0.533 0.435,-0.533L0.224,-0.533L0.224,-0.67C0.224,-0.679 0.219,-0.684 0.209,-0.684L0.148,-0.684C0.138,-0.684 0.134,-0.679 0.134,-0.67L0.134,-0.533L0.035,-0.533Z" style="fill:white;fill-rule:nonzero;"/>
        </g>
        <g transform="matrix(281.303,0,0,281.303,2750.78,1632.5)">
            <path d="M0.084,-0.533C0.074,-0.533 0.069,-0.529 0.069,-0.519L0.069,-0.014C0.069,-0.005 0.074,-0 0.084,-0L0.145,-0C0.155,-0 0.159,-0.005 0.159,-0.014L0.159,-0.519C0.159,-0.529 0.155,-0.533 0.145,-0.533L0.084,-0.533ZM0.083,-0.728C0.074,-0.728 0.069,-0.723 0.069,-0.713L0.069,-0.622C0.069,-0.613 0.074,-0.608 0.083,-0.608L0.145,-0.608C0.154,-0.608 0.159,-0.613 0.159,-0.622L0.159,-0.713C0.159,-0.723 0.154,-0.728 0.145,-0.728L0.083,-0.728Z" style="fill:white;fill-rule:nonzero;"/>
        </g>
        <g transform="matrix(281.303,0,0,281.303,2815.2,1632.5)">
            <path d="M0.298,-0.533C0.122,-0.533 0.065,-0.477 0.065,-0.337L0.065,-0.014C0.065,-0.005 0.07,-0 0.079,-0L0.141,-0C0.15,-0 0.155,-0.005 0.155,-0.014L0.155,-0.317C0.155,-0.417 0.189,-0.452 0.306,-0.452L0.502,-0.452L0.502,-0.014C0.502,-0.005 0.507,-0 0.517,-0L0.578,-0C0.588,-0 0.592,-0.005 0.592,-0.014L0.592,-0.452L0.793,-0.452C0.909,-0.452 0.94,-0.417 0.94,-0.317L0.94,-0.014C0.94,-0.005 0.945,-0 0.954,-0L1.016,-0C1.025,-0 1.03,-0.005 1.03,-0.014L1.03,-0.337C1.03,-0.477 0.973,-0.533 0.797,-0.533L0.298,-0.533Z" style="fill:white;fill-rule:nonzero;"/>
        </g>
        <g transform="matrix(281.303,0,0,281.303,3123.23,1632.5)">
            <path d="M0.278,-0.533C0.102,-0.533 0.046,-0.478 0.046,-0.337L0.046,-0.197C0.046,-0.056 0.102,-0 0.278,-0L0.706,-0C0.714,-0 0.718,-0.004 0.718,-0.012L0.718,-0.065C0.718,-0.073 0.714,-0.077 0.706,-0.077L0.286,-0.077C0.17,-0.077 0.136,-0.112 0.136,-0.2L0.136,-0.237L0.679,-0.237C0.717,-0.237 0.735,-0.251 0.735,-0.292L0.735,-0.374C0.735,-0.492 0.699,-0.533 0.565,-0.533L0.278,-0.533ZM0.136,-0.338C0.136,-0.427 0.17,-0.462 0.286,-0.462L0.55,-0.462C0.625,-0.462 0.646,-0.438 0.646,-0.372L0.646,-0.32C0.646,-0.303 0.638,-0.297 0.622,-0.297L0.136,-0.297L0.136,-0.338Z" style="fill:white;fill-rule:nonzero;"/>
        </g>
    </g>
</svg>
