<?xml version="1.0" encoding="UTF-8" standalone="no"?>
<!DOCTYPE svg PUBLIC "-//W3C//DTD SVG 1.1//EN" "http://www.w3.org/Graphics/SVG/1.1/DTD/svg11.dtd">
<svg width="100%" height="100%" viewBox="0 0 2000 644" version="1.1" xmlns="http://www.w3.org/2000/svg" xmlns:xlink="http://www.w3.org/1999/xlink" xml:space="preserve" xmlns:serif="http://www.serif.com/" style="fill-rule:evenodd;clip-rule:evenodd;stroke-linejoin:round;stroke-miterlimit:2;">
    <g transform="matrix(13.5051,0,0,13.5051,-6340.69,-8546.25)">
        <path d="M469.87,671.03L469.87,642.51L495.099,633.186L508.81,637.574L508.81,675.966L495.099,680.099L469.87,671.03L495.099,674.066L495.099,640.865L478.645,644.704L478.645,667.191L469.87,671.03Z" style="fill:rgb(235,60,0);fill-rule:nonzero;"/>
        <g>
            <path d="M535.68,671.23C531.709,671.23 528.528,669.921 526.139,667.304C523.75,664.687 522.555,661.282 522.555,657.089C522.555,652.584 523.772,648.99 526.207,646.308C528.642,643.626 531.956,642.285 536.149,642.285C540.016,642.285 543.131,643.587 545.494,646.191C547.858,648.795 549.039,652.2 549.039,656.406C549.039,660.976 547.828,664.59 545.406,667.246C542.985,669.902 539.742,671.23 535.68,671.23L535.68,671.23ZM535.914,645.253C532.972,645.253 530.582,646.314 528.746,648.437C526.91,650.559 525.992,653.346 525.992,656.796C525.992,660.247 526.888,663.023 528.678,665.126C530.468,667.229 532.802,668.28 535.68,668.28C538.753,668.28 541.175,667.278 542.946,665.273C544.716,663.267 545.602,660.461 545.602,656.855C545.602,653.157 544.742,650.299 543.024,648.28C541.305,646.262 538.935,645.253 535.914,645.253L535.914,645.253Z" style="fill:rgb(235,60,0);fill-rule:nonzero;"/>
            <path d="M560.71,640.72C558.9,640.72 557.396,641.336 556.185,642.554C554.974,643.771 554.368,645.428 554.368,647.524L554.368,650.764L550.958,650.764L550.958,653.506L554.368,653.506L554.368,670.765L557.556,670.765L557.556,653.506L565.355,653.506L565.355,670.765L568.543,670.765L568.543,653.506L573.222,653.506L573.222,650.764L568.543,650.764L568.543,647.679C568.543,644.853 569.662,643.445 571.902,643.445C572.696,643.445 573.402,643.608 574.027,643.959L574.027,641.08C573.454,640.846 572.69,640.72 571.713,640.72C569.904,640.72 568.382,641.336 567.172,642.554C565.961,643.771 565.355,645.428 565.355,647.524L565.355,650.764L557.556,650.764L557.556,647.678C557.556,644.853 558.676,643.445 560.916,643.445C561.71,643.445 562.416,643.608 563.041,643.959L563.041,641.08C562.468,640.845 561.687,640.72 560.71,640.72L560.71,640.72Z" style="fill:rgb(235,60,0);fill-rule:nonzero;"/>
            <path d="M577.88,645.68C577.307,645.68 576.819,645.485 576.415,645.094C576.012,644.703 575.81,644.209 575.81,643.61C575.81,643.011 576.012,642.513 576.415,642.116C576.819,641.718 577.307,641.52 577.88,641.52C578.466,641.52 578.964,641.718 579.374,642.116C579.784,642.513 579.989,643.011 579.989,643.61C579.989,644.183 579.784,644.671 579.374,645.074C578.964,645.478 578.466,645.68 577.88,645.68L577.88,645.68ZM579.443,670.758L576.239,670.758L576.239,650.758L579.443,650.758L579.443,670.758Z" style="fill:rgb(235,60,0);fill-rule:nonzero;"/>
            <path d="M597.64,669.84C596.103,670.764 594.281,671.227 592.171,671.227C589.32,671.227 587.018,670.299 585.267,668.444C583.516,666.588 582.64,664.182 582.64,661.227C582.64,657.932 583.584,655.286 585.472,653.287C587.36,651.289 589.879,650.289 593.031,650.289C594.788,650.289 596.338,650.615 597.679,651.266L597.679,654.547C596.194,653.505 594.606,652.984 592.913,652.984C590.869,652.984 589.193,653.717 587.884,655.182C586.575,656.647 585.921,658.57 585.921,660.953C585.921,663.297 586.536,665.146 587.767,666.5C588.997,667.854 590.648,668.531 592.718,668.531C594.463,668.531 596.103,667.952 597.64,666.793L597.64,669.84Z" style="fill:rgb(235,60,0);fill-rule:nonzero;"/>
            <path d="M617.22,661.56L603.099,661.56C603.151,663.787 603.75,665.505 604.896,666.716C606.042,667.927 607.617,668.533 609.623,668.533C611.875,668.533 613.945,667.79 615.833,666.306L615.833,669.314C614.076,670.59 611.751,671.228 608.861,671.228C606.035,671.228 603.815,670.32 602.201,668.503C600.586,666.687 599.779,664.132 599.779,660.837C599.779,657.725 600.661,655.189 602.425,653.23C604.19,651.27 606.38,650.29 608.998,650.29C611.615,650.291 613.639,651.137 615.072,652.83C616.504,654.522 617.22,656.873 617.22,659.88L617.22,661.56ZM613.939,658.845C613.926,656.996 613.48,655.558 612.601,654.529C611.722,653.5 610.501,652.986 608.939,652.986C607.428,652.986 606.146,653.526 605.091,654.607C604.036,655.688 603.385,657.1 603.138,658.845L613.939,658.845Z" style="fill:rgb(235,60,0);fill-rule:nonzero;"/>
        </g>
    </g>
</svg>
