<?xml version="1.0" encoding="UTF-8" standalone="no"?>
<!DOCTYPE svg PUBLIC "-//W3C//DTD SVG 1.1//EN" "http://www.w3.org/Graphics/SVG/1.1/DTD/svg11.dtd">
<svg width="100%" height="100%" viewBox="0 0 2500 3047" version="1.1" xmlns="http://www.w3.org/2000/svg" xmlns:xlink="http://www.w3.org/1999/xlink" xml:space="preserve" xmlns:serif="http://www.serif.com/" style="fill-rule:evenodd;clip-rule:evenodd;stroke-linejoin:round;stroke-miterlimit:2;">
    <g transform="matrix(1.21872,0,0,1.21872,0.00123656,-0.0399659)">
        <g transform="matrix(26.0409,0,0,26.0409,0,0.0348989)">
            <path d="M19.143,75.558C16.419,75.558 14.198,77.679 14.198,80.311C14.198,82.1 15.229,83.633 16.763,84.451L35.881,94.697C37.397,95.552 39.109,96.001 40.85,96C42.014,96 43.125,95.796 44.156,95.438L50.687,93.624L50.687,75.533C50.714,75.558 19.168,75.558 19.142,75.558L19.143,75.558Z" style="fill:url(#_Linear1);fill-rule:nonzero;"/>
        </g>
        <g transform="matrix(26.0409,0,0,26.0409,0,0.0348989)">
            <path d="M19.143,75.558C16.419,75.558 14.198,77.679 14.198,80.311C14.198,82.1 15.229,83.633 16.763,84.451L35.881,94.697C37.397,95.552 39.109,96.001 40.85,96C42.014,96 43.125,95.796 44.156,95.438L50.687,93.624L50.687,75.533C50.714,75.558 19.168,75.558 19.142,75.558L19.143,75.558Z" style="fill:url(#_Linear2);fill-rule:nonzero;"/>
        </g>
        <g transform="matrix(26.0409,0,0,26.0409,0,0.0348989)">
            <path d="M43.736,0.383C42.833,0.125 41.898,-0.004 40.959,-0C39.399,0 37.839,0.307 36.437,1.022C36.147,1.15 5.341,17.886 5.341,17.886C4.918,18.091 4.521,18.346 4.151,18.602C4.099,18.627 4.072,18.653 4.019,18.679C3.781,18.857 3.569,19.036 3.332,19.215C3.226,19.292 3.12,19.395 3.041,19.471C2.909,19.598 2.776,19.726 2.671,19.854C2.301,20.237 1.666,21.054 1.666,21.054C0.577,22.603 -0.006,24.452 -0,26.345L-0,70.805C-0,73.438 2.221,75.559 4.945,75.559C5.632,75.559 6.267,75.431 6.849,75.175L15.654,70.397C17.24,69.631 18.51,68.327 19.171,66.717C19.329,66.385 19.461,65.977 19.541,65.567C19.567,65.465 19.594,65.337 19.594,65.235C19.594,65.185 19.62,65.108 19.62,65.057C19.647,64.877 19.673,64.673 19.673,64.495C19.673,64.341 19.7,64.213 19.7,64.06L19.7,33.013C19.7,30.943 20.625,29.078 22.08,27.775C22.08,27.775 21.392,28.388 22.08,27.775C22.767,27.162 23.666,26.625 24.724,26.268C25.781,25.884 50.796,17.146 50.796,17.146L50.796,2.402L43.736,0.383Z" style="fill:url(#_Linear3);fill-rule:nonzero;"/>
        </g>
        <g transform="matrix(26.0409,0,0,26.0409,0,0.0348989)">
            <path d="M43.736,0.383C42.833,0.125 41.898,-0.004 40.959,-0C39.399,0 37.839,0.307 36.437,1.022C36.147,1.15 5.341,17.886 5.341,17.886C4.918,18.091 4.521,18.346 4.151,18.602C4.099,18.627 4.072,18.653 4.019,18.679C3.781,18.857 3.569,19.036 3.332,19.215C3.226,19.292 3.12,19.395 3.041,19.471C2.909,19.598 2.776,19.726 2.671,19.854C2.301,20.237 1.666,21.054 1.666,21.054C0.577,22.603 -0.006,24.452 -0,26.345L-0,70.805C-0,73.438 2.221,75.559 4.945,75.559C5.632,75.559 6.267,75.431 6.849,75.175L15.654,70.397C17.24,69.631 18.51,68.327 19.171,66.717C19.329,66.385 19.461,65.977 19.541,65.567C19.567,65.465 19.594,65.337 19.594,65.235C19.594,65.185 19.62,65.108 19.62,65.057C19.647,64.877 19.673,64.673 19.673,64.495C19.673,64.341 19.7,64.213 19.7,64.06L19.7,33.013C19.7,30.943 20.625,29.078 22.08,27.775C22.08,27.775 21.392,28.388 22.08,27.775C22.767,27.162 23.666,26.625 24.724,26.268C25.781,25.884 50.796,17.146 50.796,17.146L50.796,2.402L43.736,0.383Z" style="fill:url(#_Linear4);fill-rule:nonzero;"/>
        </g>
        <g transform="matrix(26.0409,0,0,26.0409,0,0.0348989)">
            <path d="M71.898,8.35L44.16,0.507C48.179,2.015 50.69,5.413 50.69,9.553C50.69,9.553 50.665,84.753 50.69,86.567C50.717,90.655 48.02,94.156 44.16,95.459C45.006,95.229 71.898,87.742 71.898,87.742C75.89,86.516 78.773,82.938 78.773,78.672L78.773,17.42C78.799,13.18 75.89,9.576 71.898,8.35Z" style="fill:url(#_Linear5);fill-rule:nonzero;"/>
        </g>
    </g>
    <defs>
        <linearGradient id="_Linear1" x1="0" y1="0" x2="1" y2="0" gradientUnits="userSpaceOnUse" gradientTransform="matrix(68.729,6.223,-6.223,68.729,16.942,83.36)"><stop offset="0" style="stop-color:rgb(243,43,68);stop-opacity:1"/><stop offset="0.6" style="stop-color:rgb(164,7,10);stop-opacity:1"/><stop offset="1" style="stop-color:rgb(164,7,10);stop-opacity:1"/></linearGradient>
        <linearGradient id="_Linear2" x1="0" y1="0" x2="1" y2="0" gradientUnits="userSpaceOnUse" gradientTransform="matrix(-30.512,-2.763,2.763,-30.512,63.515,87.298)"><stop offset="0" style="stop-color:black;stop-opacity:0.4"/><stop offset="1" style="stop-color:black;stop-opacity:0"/></linearGradient>
        <linearGradient id="_Linear3" x1="0" y1="0" x2="1" y2="0" gradientUnits="userSpaceOnUse" gradientTransform="matrix(-50.639,74.839,-74.839,-50.639,44.738,-3.312)"><stop offset="0" style="stop-color:rgb(128,6,0);stop-opacity:1"/><stop offset="0.6" style="stop-color:rgb(199,33,39);stop-opacity:1"/><stop offset="0.73" style="stop-color:rgb(193,57,89);stop-opacity:1"/><stop offset="0.85" style="stop-color:rgb(188,75,129);stop-opacity:1"/><stop offset="0.94" style="stop-color:rgb(185,87,153);stop-opacity:1"/><stop offset="1" style="stop-color:rgb(184,91,162);stop-opacity:1"/></linearGradient>
        <linearGradient id="_Linear4" x1="0" y1="0" x2="1" y2="0" gradientUnits="userSpaceOnUse" gradientTransform="matrix(-10.724,15.849,-15.849,-10.724,45.823,-4.81)"><stop offset="0" style="stop-color:black;stop-opacity:0.4"/><stop offset="1" style="stop-color:black;stop-opacity:0"/></linearGradient>
        <linearGradient id="_Linear5" x1="0" y1="0" x2="1" y2="0" gradientUnits="userSpaceOnUse" gradientTransform="matrix(5.73551e-15,93.668,-93.668,5.73551e-15,61.486,-4.887)"><stop offset="0" style="stop-color:rgb(255,185,0);stop-opacity:1"/><stop offset="0.17" style="stop-color:rgb(239,132,0);stop-opacity:1"/><stop offset="0.31" style="stop-color:rgb(226,92,1);stop-opacity:1"/><stop offset="0.43" style="stop-color:rgb(219,68,1);stop-opacity:1"/><stop offset="0.5" style="stop-color:rgb(216,59,1);stop-opacity:1"/><stop offset="1" style="stop-color:rgb(216,59,1);stop-opacity:1"/></linearGradient>
    </defs>
</svg>
