<svg xmlns="http://www.w3.org/2000/svg" id="Layer_1" data-name="Layer 1" viewBox="0 0 67.23401 58.28661"><defs><style>.cls-1{fill:#fff;}</style></defs><path class="cls-1" d="M0,39.49461H67.234v-8.899H0ZM0,8.8996H67.234V.0006H0Z"></path><path class="cls-1" d="M44.9166,17.38661a5.00951,5.00951,0,0,0,0,4.721,4.31463,4.31463,0,0,0,1.611,1.668,4.43226,4.43226,0,0,0,2.292.602,4.66658,4.66658,0,0,0,1.884-.386,5.23434,5.23434,0,0,0,1.566-1.044l2.27,2.519a7.50025,7.50025,0,0,1-2.553,1.805,7.85583,7.85583,0,0,1-3.167.647,8.51419,8.51419,0,0,1-4.324-1.09,7.74981,7.74981,0,0,1-2.95-2.962,8.56317,8.56317,0,0,1,0-8.239,7.75669,7.75669,0,0,1,2.95-2.962,8.51419,8.51419,0,0,1,4.324-1.09,7.77135,7.77135,0,0,1,3.155.647,7.53851,7.53851,0,0,1,2.543,1.805l-2.248,2.519a5.27227,5.27227,0,0,0-1.566-1.044,4.66658,4.66658,0,0,0-1.884-.386,4.43226,4.43226,0,0,0-2.292.602,4.32148,4.32148,0,0,0-1.611,1.668m-27.395,34.136,1.767-4.756,1.766,4.756Zm1.823-9.351q-1.929,0-2.86,2.406l-5.265,13.709h3.79l1.315-3.541h5.927l1.315,3.541h3.904l-5.289-13.709q-.93-2.406-2.837-2.406m-15.739,12.774h6.367v3.341H-.0004v-15.889h3.606Zm27.188-34.018,1.766-4.757,1.767,4.757Zm1.823-9.352q-1.929,0-2.86,2.406l-5.266,13.71h3.791l1.315-3.541h5.927l1.315,3.541h3.904l-5.289-13.71q-.93-2.4045-2.837-2.406m23.882.226h10.736v3.341h-7.13v2.75h6.519v3.524h-6.519v2.934h7.13v3.341H56.4986Zm-43.227,0v15.89h9.973v-3.341h-6.367v-12.549Zm-9.666,7.028h2.017c.713,0,2.546,0,2.546-1.874,0-1.813-1.752-1.813-2.444-1.813H3.6056Zm0,8.862H-.0004v-15.89h6.336c.692,0,5.622,0,5.622,5.175,0,5.214-4.97,5.377-5.643,5.377H3.6056Zm31.121,27.254h-2.403v-3.137h2.525c.795,0,2.364.143,2.364,1.569,0,1.467-1.671,1.568-2.486,1.568m-2.403-9.207h2.261c.794,0,2.118.142,2.118,1.467,0,1.385-1.385,1.487-2.22,1.487h-2.159Zm5.744,4.4v-.041a3.64391,3.64391,0,0,0,2.424-3.605c0-2.384-1.711-4.095-4.767-4.095h-7.007v15.889h6.702c2.2,0,5.663-.753,5.663-4.379a3.60271,3.60271,0,0,0-3.015-3.769"></path></svg>