<?xml version="1.0" encoding="UTF-8" standalone="no"?>
<!DOCTYPE svg PUBLIC "-//W3C//DTD SVG 1.1//EN" "http://www.w3.org/Graphics/SVG/1.1/DTD/svg11.dtd">
<svg width="100%" height="100%" viewBox="0 0 2500 1035" version="1.1" xmlns="http://www.w3.org/2000/svg" xmlns:xlink="http://www.w3.org/1999/xlink" xml:space="preserve" xmlns:serif="http://www.serif.com/" style="fill-rule:evenodd;clip-rule:evenodd;stroke-linejoin:round;stroke-miterlimit:2;">
    <g transform="matrix(4.12736,0,0,4.12736,-86.6746,-479.477)">
        <g>
            <g transform="matrix(1,0,0,1,372.93,222.373)">
                <path d="M0,-4.631L12.203,-4.631C15.876,-4.421 19.515,-5.435 22.55,-7.514C25.045,-9.429 26.444,-12.444 26.298,-15.586L26.298,-20.55C26.462,-23.737 25.033,-26.798 22.485,-28.718C19.437,-30.794 15.79,-31.807 12.107,-31.601L0,-31.601L0,-4.631ZM12.203,6.196L0,6.196L0,38.227L-14.543,38.227L-14.543,-42.556L12.684,-42.556C19.964,-42.922 27.167,-40.922 33.216,-36.855C38.249,-33.269 41.147,-27.399 40.936,-21.223L40.936,-15.234C41.054,-11.051 39.68,-6.964 37.06,-3.702C34.222,-0.271 30.5,2.321 26.298,3.793L44.844,38.291L28.828,38.291L12.203,6.196Z" style="fill:rgb(35,31,32);fill-rule:nonzero;"/>
            </g>
            <g transform="matrix(1,0,0,1,466.558,234.643)">
                <path d="M0,-10.206C0.274,-14.55 -0.972,-18.853 -3.524,-22.378C-6.067,-25.287 -9.823,-26.839 -13.678,-26.574C-17.456,-26.823 -21.128,-25.266 -23.575,-22.378C-26.148,-18.616 -27.43,-14.119 -27.228,-9.565L0,-9.565L0,-10.206ZM12.492,-0.309L-27.228,-0.309C-27.533,4.338 -26.042,8.925 -23.063,12.504C-19.752,15.459 -15.381,16.939 -10.955,16.604C-8.154,16.637 -5.368,16.182 -2.723,15.258C0.094,14.251 2.816,12.997 5.413,11.511L10.506,20.063C7.412,22.273 4.013,24.021 0.416,25.252C-3.54,26.622 -7.698,27.315 -11.884,27.302C-17.363,27.444 -22.784,26.152 -27.611,23.555C-31.903,21.197 -35.411,17.633 -37.701,13.305C-40.07,8.691 -41.259,3.563 -41.161,-1.622L-41.161,-8.028C-41.278,-13.186 -40.181,-18.299 -37.958,-22.955C-35.814,-27.28 -32.48,-30.903 -28.349,-33.397C-23.95,-35.998 -18.914,-37.318 -13.806,-37.209C-6.466,-37.65 0.698,-34.852 5.797,-29.553C10.41,-24.428 12.716,-17.029 12.716,-7.355C12.797,-5.004 12.723,-2.65 12.492,-0.309" style="fill:rgb(35,31,32);fill-rule:nonzero;"/>
            </g>
            <g transform="matrix(1,0,0,1,525.015,199.164)">
                <path d="M0,61.372L-17.649,61.372L-37.573,0L-22.71,0L-8.521,49.936L5.669,0L19.955,0L0,61.372Z" style="fill:rgb(35,31,32);fill-rule:nonzero;"/>
            </g>
            <g transform="matrix(1,0,0,1,560.665,245.819)">
                <path d="M0,-58.699C-1.674,-60.262 -2.605,-62.463 -2.563,-64.753C-2.54,-69.547 1.364,-73.416 6.158,-73.394C8.421,-73.384 10.591,-72.49 12.204,-70.903C13.882,-69.304 14.802,-67.069 14.734,-64.753C14.791,-62.467 13.87,-60.265 12.204,-58.699C8.815,-55.374 3.389,-55.374 0,-58.699M13.838,14.717L-0.48,14.717L-0.48,-36.021L-9.705,-36.021L-9.705,-46.655L13.838,-46.655L13.838,14.717Z" style="fill:rgb(35,31,32);fill-rule:nonzero;"/>
            </g>
            <g transform="matrix(1,0,0,1,626.714,185.89)">
                <path d="M0,74.646C-3.479,75.638 -7.08,76.134 -10.698,76.12C-15.639,76.459 -20.537,75.016 -24.504,72.051C-27.838,68.722 -29.536,64.094 -29.148,59.399L-29.148,23.908L-38.758,23.908L-38.758,13.274L-29.148,13.274L-27.995,-1.813L-15.183,-1.813L-15.183,13.274L-1.922,13.274L-1.922,23.908L-15.183,23.908L-15.183,58.598C-15.31,60.444 -14.632,62.254 -13.324,63.563C-11.703,64.765 -9.698,65.334 -7.687,65.165C-5.667,65.156 -3.65,64.963 -1.665,64.588L0,74.646Z" style="fill:rgb(35,31,32);fill-rule:nonzero;"/>
            </g>
        </g>
        <g transform="matrix(1,0,0,1,290.096,164.409)">
            <path d="M0,202.407L-228.577,202.407C-236.343,202.407 -242.638,196.111 -242.638,188.345L-242.638,0L0,0L0,202.407Z" style="fill:rgb(11,60,143);fill-rule:nonzero;"/>
        </g>
        <g transform="matrix(1,0,0,1,64.8828,318.577)">
            <path d="M0,-202.407L193.694,-202.407C201.46,-202.407 207.756,-196.111 207.756,-188.345L207.756,0L0,0L0,-202.407Z" style="fill:rgb(26,106,254);fill-rule:nonzero;"/>
        </g>
        <g transform="matrix(0.838862,-0.544344,-0.544344,-0.838862,87.3752,340.395)">
            <path d="M-59.304,30.546L-6.991,30.546L103.187,200.336L50.874,200.336L-59.304,30.546Z" style="fill:rgb(105,155,234);fill-rule:nonzero;"/>
        </g>
        <g transform="matrix(1,0,0,1,146.691,222.162)">
            <path d="M0,-5.445L16.88,-5.445C22.044,-5.163 27.16,-6.569 31.455,-9.449C35.039,-12.129 37.056,-16.415 36.836,-20.884L36.836,-28.924C37.062,-33.386 35.042,-37.665 31.455,-40.327C27.164,-43.219 22.048,-44.636 16.88,-44.363L0,-44.363L0,-5.445ZM63.55,39.783L63.55,52.948C60.791,54.091 57.824,54.646 54.838,54.582C50.832,54.684 46.878,53.652 43.435,51.603C39.786,49.14 36.892,45.714 35.074,41.705L18.45,9.674L0,9.674L0,52.948L-20.276,52.948L-20.276,-59.642L17.681,-59.642C27.854,-60.129 37.908,-57.284 46.317,-51.538C53.342,-46.506 57.392,-38.298 57.112,-29.661L57.112,-20.34C57.178,-14.744 55.324,-9.295 51.859,-4.901C48.087,-0.149 43.125,3.52 37.477,5.734L52.436,34.37C54.27,37.939 58.039,40.088 62.045,39.847L63.55,39.783Z" style="fill:white;fill-rule:nonzero;"/>
        </g>
    </g>
</svg>
