<?xml version="1.0" encoding="UTF-8" standalone="no"?>
<!DOCTYPE svg PUBLIC "-//W3C//DTD SVG 1.1//EN" "http://www.w3.org/Graphics/SVG/1.1/DTD/svg11.dtd">
<svg width="100%" height="100%" viewBox="0 0 2500 2652" version="1.1" xmlns="http://www.w3.org/2000/svg" xmlns:xlink="http://www.w3.org/1999/xlink" xml:space="preserve" xmlns:serif="http://www.serif.com/" style="fill-rule:evenodd;clip-rule:evenodd;stroke-linejoin:round;stroke-miterlimit:2;">
    <g transform="matrix(26.3992,0,0,26.3992,-221.753,-137.276)">
        <path d="M21,105.65L103.1,105.65L103.1,20.88L16.87,20.88L16.87,101.49C16.868,101.544 16.867,101.598 16.867,101.652C16.867,103.847 18.672,105.652 20.867,105.652C20.911,105.652 20.956,105.651 21,105.65Z" style="fill:rgb(12,63,146);fill-rule:nonzero;"/>
        <path d="M91.69,5.2L23.63,5.2L23.69,75.79L96.14,75.79L96.14,9.58C96.102,7.165 94.105,5.2 91.69,5.2Z" style="fill:rgb(24,108,255);fill-rule:nonzero;"/>
        <path d="M8.4,85L23.63,75.79L23.63,5.2L8.4,14.41L8.4,85Z" style="fill:rgb(105,154,235);fill-rule:nonzero;"/>
        <path d="M77.49,54.83L77.49,60.55C76.239,61.424 74.698,61.782 73.19,61.55C69.76,61.572 66.639,59.512 65.31,56.35C63.9,53.5 62.41,50.6 61,47.7C60.85,47.4 60.63,47.03 60.48,46.7L56.39,46.7C56.39,48.26 56.32,49.75 56.32,51.23L56.32,60.67L46.44,60.67L46.44,21.18C46.907,21.115 47.379,21.089 47.85,21.1C52.23,21.1 56.54,21.03 60.93,21.1C63.805,21.024 66.664,21.556 69.32,22.66C72.339,23.852 74.607,26.425 75.41,29.57C75.565,30.202 75.642,30.85 75.64,31.5L75.64,35.14C75.79,38.71 74.08,41.24 71.33,43.24C70.81,43.61 70.21,43.99 69.54,44.43C70.06,45.43 70.54,46.36 71.03,47.33C71.92,49.04 72.89,50.67 73.71,52.38C74.243,53.652 75.454,54.517 76.83,54.61C77.05,54.68 77.2,54.76 77.49,54.83ZM56.39,39.75L60.48,39.75C60.951,39.762 61.422,39.738 61.89,39.68C63.757,39.589 65.289,38.122 65.46,36.26C65.558,34.775 65.582,33.287 65.53,31.8C65.494,30.167 64.313,28.769 62.71,28.46C60.71,27.79 58.62,28.09 56.47,28.09C56.39,32 56.39,35.81 56.39,39.75Z" style="fill:white;fill-rule:nonzero;"/>
        <g>
            <path d="M51.86,95.25L51.86,97.41C51.391,97.753 50.801,97.887 50.23,97.78C48.954,97.821 47.785,97.043 47.33,95.85C46.81,94.73 46.33,93.69 45.69,92.58C45.62,92.43 45.55,92.35 45.47,92.21L44,92.21L44,97.41L40.34,97.41L40.34,82.77C40.49,82.77 40.72,82.7 40.87,82.7L45.69,82.7C46.763,82.671 47.831,82.872 48.82,83.29C49.953,83.745 50.807,84.71 51.12,85.89C51.181,86.132 51.205,86.381 51.19,86.63L51.19,88C51.258,89.226 50.625,90.39 49.56,91L48.89,91.45C49.11,91.82 49.26,92.19 49.48,92.45C49.78,93.04 50.15,93.71 50.48,94.31C50.659,94.773 51.094,95.091 51.59,95.12C51.658,95.198 51.756,95.245 51.86,95.25ZM44,89.68L46,89.68C46.691,89.641 47.259,89.107 47.34,88.42C47.375,87.874 47.375,87.326 47.34,86.78C47.324,86.186 46.915,85.671 46.34,85.52C45.584,85.361 44.81,85.31 44.04,85.37L44,89.68Z" style="fill:white;fill-rule:nonzero;"/>
            <path d="M59.81,94.29C60.7,90.5 61.59,86.78 62.49,82.99C63.719,82.814 64.965,82.791 66.2,82.92C66.2,83.29 62.63,96.44 62.2,97.56L57.36,97.56C56.99,96.89 53.05,83.29 53.05,82.92L56.77,82.92C57.29,84.78 57.77,86.71 58.25,88.64C58.73,90.57 59.25,92.43 59.74,94.29L59.81,94.29Z" style="fill:white;fill-rule:nonzero;"/>
            <path d="M79.35,82.92L79.35,85.59L75.64,85.59L75.64,97.59C74.37,97.66 73.19,97.59 71.92,97.59C71.885,96.924 71.885,96.256 71.92,95.59L71.92,85.67L68.06,85.67C67.98,84.778 67.98,83.882 68.06,82.99C71.85,82.92 75.56,82.92 79.35,82.92Z" style="fill:white;fill-rule:nonzero;"/>
        </g>
    </g>
</svg>
