<?xml version="1.0" encoding="UTF-8" standalone="no"?>
<!DOCTYPE svg PUBLIC "-//W3C//DTD SVG 1.1//EN" "http://www.w3.org/Graphics/SVG/1.1/DTD/svg11.dtd">
<svg width="100%" height="100%" viewBox="0 0 2228 422" version="1.1" xmlns="http://www.w3.org/2000/svg" xmlns:xlink="http://www.w3.org/1999/xlink" xml:space="preserve" xmlns:serif="http://www.serif.com/" style="fill-rule:evenodd;clip-rule:evenodd;stroke-linejoin:round;stroke-miterlimit:2;">
    <g transform="matrix(3.125,0,0,3.125,-1.65401,-120.538)">
        <g id="Layer-1" serif:id="Layer 1">
            <g>
                <g transform="matrix(1.01269,0,0,1.01269,-1.12763,11.6304)">
                    <path d="M12.597,149.796C13.321,149.796 13.965,149.703 14.53,149.518C15.095,149.332 15.599,149.09 16.043,148.793C16.487,148.496 16.876,148.161 17.209,147.79C17.542,147.418 17.834,147.052 18.085,146.691C18.239,146.818 18.362,147.014 18.454,147.28C18.546,147.545 18.591,147.816 18.591,148.092C18.591,148.549 18.48,149.029 18.258,149.534C18.036,150.038 17.665,150.503 17.143,150.927C16.622,151.352 15.932,151.702 15.073,151.978C14.214,152.255 13.152,152.393 11.888,152.393C10.169,152.393 8.668,152.106 7.384,151.532C6.101,150.959 5.034,150.147 4.185,149.096C3.335,148.044 2.698,146.781 2.273,145.305C1.849,143.829 1.636,142.194 1.636,140.399C1.636,138.637 1.853,137.023 2.288,135.557C2.722,134.092 3.366,132.834 4.221,131.783C5.075,130.732 6.142,129.914 7.421,129.33C8.7,128.746 10.179,128.454 11.859,128.454C12.998,128.454 13.989,128.552 14.834,128.749C15.679,128.945 16.381,129.213 16.941,129.553C17.501,129.893 17.921,130.294 18.2,130.755C18.48,131.217 18.62,131.714 18.62,132.245C18.62,132.648 18.541,133.022 18.381,133.367C18.222,133.713 17.986,134.013 17.672,134.267C17.358,134.522 16.97,134.721 16.506,134.865C16.043,135.008 15.512,135.08 14.914,135.08C14.914,134.538 14.861,133.999 14.754,133.463C14.648,132.927 14.467,132.441 14.211,132.006C13.956,131.57 13.62,131.217 13.205,130.947C12.79,130.676 12.274,130.54 11.656,130.54C10.72,130.54 9.928,130.758 9.281,131.193C8.634,131.629 8.116,132.266 7.725,133.105C7.334,133.944 7.051,134.976 6.878,136.203C6.704,137.429 6.617,138.828 6.617,140.399C6.617,141.971 6.723,143.346 6.936,144.524C7.148,145.703 7.491,146.683 7.964,147.463C8.437,148.244 9.052,148.828 9.81,149.215C10.567,149.603 11.497,149.796 12.597,149.796Z" style="fill:white;"/>
                    <path d="M41.513,140.399C41.513,142.194 41.293,143.829 40.854,145.305C40.415,146.781 39.768,148.044 38.914,149.096C38.06,150.147 37.012,150.959 35.772,151.532C34.532,152.106 33.105,152.393 31.493,152.393C29.804,152.393 28.33,152.106 27.07,151.532C25.81,150.959 24.765,150.147 23.935,149.096C23.105,148.044 22.482,146.778 22.067,145.297C21.652,143.816 21.445,142.173 21.445,140.367C21.445,138.562 21.652,136.925 22.067,135.454C22.482,133.983 23.107,132.728 23.942,131.687C24.777,130.647 25.825,129.842 27.084,129.274C28.344,128.706 29.823,128.422 31.522,128.422C33.125,128.422 34.546,128.706 35.787,129.274C37.027,129.842 38.072,130.649 38.921,131.695C39.771,132.741 40.415,133.999 40.854,135.47C41.293,136.94 41.513,138.584 41.513,140.399ZM26.426,140.399C26.426,141.96 26.517,143.351 26.701,144.572C26.884,145.793 27.179,146.826 27.584,147.67C27.989,148.514 28.513,149.159 29.155,149.605C29.797,150.051 30.576,150.274 31.493,150.274C32.42,150.274 33.204,150.051 33.846,149.605C34.488,149.159 35.007,148.514 35.403,147.67C35.799,146.826 36.086,145.793 36.264,144.572C36.443,143.351 36.532,141.96 36.532,140.399C36.532,138.838 36.443,137.447 36.264,136.226C36.086,135.005 35.799,133.973 35.403,133.129C35.007,132.284 34.491,131.642 33.854,131.201C33.216,130.761 32.439,130.54 31.522,130.54C30.596,130.54 29.809,130.761 29.162,131.201C28.515,131.642 27.989,132.284 27.584,133.129C27.179,133.973 26.884,135.005 26.701,136.226C26.517,137.447 26.426,138.838 26.426,140.399Z" style="fill:white;"/>
                    <path d="M60.525,152.074L48.956,134.108L48.956,148.22C48.956,148.687 48.997,149.058 49.079,149.335C49.161,149.611 49.27,149.823 49.405,149.972C49.54,150.12 49.702,150.218 49.89,150.266C50.079,150.314 50.274,150.338 50.477,150.338L51.722,150.338L51.722,152.074L43.975,152.074L43.975,150.338L45.221,150.338C45.433,150.338 45.631,150.314 45.814,150.266C45.998,150.218 46.159,150.12 46.299,149.972C46.439,149.823 46.548,149.611 46.625,149.335C46.702,149.058 46.741,148.687 46.741,148.22L46.741,132.499C46.741,132.064 46.7,131.716 46.618,131.456C46.536,131.196 46.425,130.997 46.285,130.859C46.145,130.721 45.983,130.628 45.8,130.58C45.616,130.532 45.423,130.509 45.221,130.509L43.975,130.509L43.975,128.788L50.564,128.788L61.032,145.066L61.032,132.499C61.032,132.064 60.991,131.716 60.909,131.456C60.827,131.196 60.716,130.997 60.576,130.859C60.436,130.721 60.274,130.628 60.091,130.58C59.908,130.532 59.714,130.509 59.512,130.509L58.267,130.509L58.267,128.788L66.013,128.788L66.013,130.509L64.768,130.509C64.565,130.509 64.372,130.532 64.189,130.58C64.005,130.628 63.844,130.726 63.704,130.875C63.564,131.024 63.455,131.236 63.378,131.512C63.301,131.788 63.262,132.16 63.262,132.627L63.262,152.074L60.525,152.074Z" style="fill:white;"/>
                    <path d="M74.354,152.393C73.022,152.393 71.912,152.255 71.024,151.978C70.136,151.702 69.424,151.347 68.888,150.911C68.352,150.476 67.971,149.988 67.744,149.446C67.517,148.904 67.404,148.368 67.404,147.837C67.404,147.275 67.498,146.802 67.686,146.42C67.875,146.038 68.125,145.724 68.439,145.48C68.753,145.236 69.11,145.061 69.511,144.955C69.911,144.848 70.329,144.795 70.763,144.795C70.763,145.73 70.864,146.55 71.067,147.256C71.27,147.962 71.55,148.551 71.907,149.024C72.264,149.496 72.691,149.852 73.188,150.091C73.686,150.33 74.229,150.449 74.817,150.449C75.396,150.449 75.913,150.359 76.367,150.179C76.82,149.998 77.206,149.749 77.525,149.43C77.844,149.112 78.085,148.737 78.249,148.307C78.413,147.877 78.495,147.413 78.495,146.914C78.495,146.361 78.394,145.87 78.191,145.44C77.988,145.01 77.682,144.612 77.272,144.246C76.861,143.879 76.345,143.529 75.722,143.195C75.1,142.86 74.373,142.502 73.543,142.119C72.51,141.652 71.639,141.172 70.93,140.678C70.22,140.184 69.648,139.651 69.214,139.077C68.779,138.504 68.468,137.883 68.28,137.214C68.092,136.545 67.998,135.812 67.998,135.016C67.998,134.018 68.181,133.115 68.548,132.308C68.915,131.501 69.421,130.811 70.068,130.238C70.715,129.664 71.482,129.224 72.37,128.916C73.258,128.608 74.224,128.454 75.266,128.454C76.357,128.454 77.298,128.552 78.09,128.749C78.881,128.945 79.535,129.213 80.052,129.553C80.568,129.893 80.952,130.294 81.203,130.755C81.454,131.217 81.579,131.714 81.579,132.245C81.579,132.627 81.504,132.983 81.355,133.312C81.205,133.641 80.978,133.928 80.674,134.172C80.37,134.416 79.989,134.607 79.53,134.745C79.072,134.883 78.539,134.952 77.93,134.952C77.93,134.496 77.875,134.005 77.764,133.479C77.653,132.953 77.472,132.465 77.221,132.014C76.97,131.562 76.644,131.188 76.244,130.891C75.843,130.593 75.358,130.445 74.788,130.445C74.393,130.445 74.016,130.509 73.659,130.636C73.302,130.763 72.991,130.954 72.725,131.209C72.46,131.464 72.25,131.78 72.095,132.157C71.941,132.534 71.864,132.967 71.864,133.455C71.864,133.912 71.931,134.342 72.066,134.745C72.201,135.149 72.45,135.544 72.812,135.932C73.174,136.319 73.671,136.707 74.303,137.094C74.936,137.482 75.754,137.899 76.758,138.345C77.771,138.801 78.635,139.269 79.349,139.746C80.064,140.224 80.65,140.736 81.109,141.283C81.567,141.83 81.9,142.43 82.108,143.083C82.315,143.736 82.419,144.461 82.419,145.257C82.419,146.308 82.231,147.272 81.854,148.148C81.478,149.024 80.937,149.775 80.233,150.402C79.528,151.028 78.681,151.517 77.691,151.867C76.702,152.217 75.59,152.393 74.354,152.393Z" style="fill:white;"/>
                    <path d="M105.572,130.509L104.298,130.509C104.095,130.509 103.902,130.532 103.719,130.58C103.536,130.628 103.374,130.726 103.234,130.875C103.094,131.024 102.985,131.236 102.908,131.512C102.831,131.788 102.792,132.16 102.792,132.627L102.792,145.353C102.792,146.446 102.65,147.429 102.365,148.299C102.08,149.17 101.636,149.908 101.033,150.513C100.43,151.118 99.66,151.583 98.724,151.907C97.787,152.231 96.672,152.393 95.379,152.393C94.085,152.393 92.929,152.257 91.911,151.986C90.893,151.716 90.031,151.283 89.327,150.688C88.622,150.094 88.084,149.327 87.712,148.387C87.34,147.447 87.155,146.308 87.155,144.97L87.155,132.499C87.155,132.064 87.114,131.716 87.032,131.456C86.949,131.196 86.838,130.997 86.699,130.859C86.559,130.721 86.399,130.628 86.221,130.58C86.042,130.532 85.851,130.509 85.649,130.509L84.375,130.509L84.375,128.788L94.597,128.788L94.597,130.509L93.352,130.509C93.149,130.509 92.956,130.532 92.773,130.58C92.589,130.628 92.427,130.726 92.288,130.875C92.148,131.024 92.039,131.236 91.962,131.512C91.885,131.788 91.846,132.16 91.846,132.627L91.846,145.225C91.846,146.138 91.95,146.906 92.157,147.527C92.365,148.148 92.662,148.647 93.048,149.024C93.434,149.401 93.897,149.672 94.438,149.836C94.978,150.001 95.586,150.083 96.262,150.083C96.918,150.083 97.512,149.99 98.043,149.804C98.574,149.619 99.025,149.329 99.397,148.936C99.769,148.543 100.056,148.044 100.258,147.439C100.461,146.834 100.562,146.117 100.562,145.289L100.562,132.499C100.562,132.064 100.524,131.716 100.447,131.456C100.369,131.196 100.261,130.997 100.121,130.859C99.981,130.721 99.819,130.628 99.636,130.58C99.452,130.532 99.259,130.509 99.057,130.509L97.811,130.509L97.811,128.788L105.572,128.788L105.572,130.509Z" style="fill:white;"/>
                    <path d="M106.876,152.074L106.876,150.338L108.122,150.338C108.344,150.338 108.546,150.314 108.73,150.266C108.913,150.218 109.072,150.12 109.208,149.972C109.343,149.823 109.449,149.611 109.526,149.335C109.603,149.058 109.642,148.687 109.642,148.22L109.642,132.627C109.642,132.16 109.603,131.788 109.526,131.512C109.449,131.236 109.343,131.024 109.208,130.875C109.072,130.726 108.913,130.628 108.73,130.58C108.546,130.532 108.344,130.509 108.122,130.509L106.876,130.509L106.876,128.788L117.113,128.788L117.113,130.509L115.868,130.509C115.665,130.509 115.47,130.532 115.282,130.58C115.093,130.628 114.932,130.721 114.797,130.859C114.661,130.997 114.553,131.196 114.471,131.456C114.389,131.716 114.348,132.064 114.348,132.499L114.348,150.083L119.864,150.083C120.559,150.083 121.1,149.842 121.486,149.358C121.872,148.875 122.152,148.172 122.326,147.248L122.804,144.795L124.469,144.795L124.252,152.074L106.876,152.074Z" style="fill:white;"/>
                    <path d="M135.402,148.22C135.402,148.687 135.44,149.058 135.517,149.335C135.595,149.611 135.703,149.823 135.843,149.972C135.983,150.12 136.145,150.218 136.328,150.266C136.512,150.314 136.709,150.338 136.922,150.338L138.167,150.338L138.167,152.074L127.93,152.074L127.93,150.338L129.175,150.338C129.397,150.338 129.6,150.314 129.784,150.266C129.967,150.218 130.126,150.12 130.261,149.972C130.396,149.823 130.503,149.611 130.58,149.335C130.657,149.058 130.696,148.687 130.696,148.22L130.696,130.779L128.321,130.779C127.877,130.779 127.505,130.832 127.206,130.939C126.907,131.045 126.663,131.196 126.475,131.392C126.287,131.589 126.147,131.83 126.055,132.117C125.963,132.404 125.898,132.728 125.86,133.089L125.657,135.112L123.659,135.112L123.818,128.788L142.294,128.788L142.438,135.112L140.455,135.112L140.238,133.089C140.199,132.728 140.134,132.404 140.042,132.117C139.95,131.83 139.81,131.589 139.622,131.392C139.434,131.196 139.19,131.045 138.891,130.939C138.592,130.832 138.22,130.779 137.776,130.779L135.402,130.779L135.402,148.22Z" style="fill:white;"/>
                    <path d="M143.554,152.074L143.554,150.338L144.8,150.338C145.022,150.338 145.224,150.314 145.408,150.266C145.591,150.218 145.75,150.12 145.885,149.972C146.021,149.823 146.127,149.611 146.204,149.335C146.281,149.058 146.32,148.687 146.32,148.22L146.32,132.643C146.32,132.176 146.281,131.804 146.204,131.528C146.127,131.252 146.021,131.039 145.885,130.891C145.75,130.742 145.591,130.644 145.408,130.596C145.224,130.548 145.022,130.524 144.8,130.524L143.554,130.524L143.554,128.788L153.791,128.788L153.791,130.524L152.546,130.524C152.334,130.524 152.133,130.548 151.945,130.596C151.757,130.644 151.595,130.742 151.46,130.891C151.325,131.039 151.219,131.252 151.141,131.528C151.064,131.804 151.026,132.176 151.026,132.643L151.026,148.22C151.026,148.687 151.064,149.058 151.141,149.335C151.219,149.611 151.325,149.823 151.46,149.972C151.595,150.12 151.757,150.218 151.945,150.266C152.133,150.314 152.334,150.338 152.546,150.338L153.791,150.338L153.791,152.074L143.554,152.074Z" style="fill:white;"/>
                    <path d="M171.993,152.074L160.424,134.108L160.424,148.22C160.424,148.687 160.465,149.058 160.547,149.335C160.629,149.611 160.737,149.823 160.872,149.972C161.008,150.12 161.169,150.218 161.358,150.266C161.546,150.314 161.741,150.338 161.944,150.338L163.189,150.338L163.189,152.074L155.443,152.074L155.443,150.338L156.688,150.338C156.9,150.338 157.098,150.314 157.282,150.266C157.465,150.218 157.627,150.12 157.767,149.972C157.907,149.823 158.015,149.611 158.092,149.335C158.17,149.058 158.208,148.687 158.208,148.22L158.208,132.499C158.208,132.064 158.167,131.716 158.085,131.456C158.003,131.196 157.892,130.997 157.752,130.859C157.612,130.721 157.451,130.628 157.267,130.58C157.084,130.532 156.891,130.509 156.688,130.509L155.443,130.509L155.443,128.788L162.031,128.788L172.499,145.066L172.499,132.499C172.499,132.064 172.458,131.716 172.376,131.456C172.294,131.196 172.183,130.997 172.043,130.859C171.903,130.721 171.742,130.628 171.558,130.58C171.375,130.532 171.182,130.509 170.979,130.509L169.734,130.509L169.734,128.788L177.48,128.788L177.48,130.509L176.235,130.509C176.032,130.509 175.839,130.532 175.656,130.58C175.472,130.628 175.311,130.726 175.171,130.875C175.031,131.024 174.922,131.236 174.845,131.512C174.768,131.788 174.729,132.16 174.729,132.627L174.729,152.074L171.993,152.074Z" style="fill:white;"/>
                    <path d="M190.527,152.393C188.693,152.393 187.093,152.106 185.727,151.532C184.361,150.959 183.225,150.147 182.317,149.096C181.41,148.044 180.734,146.781 180.29,145.305C179.846,143.829 179.624,142.194 179.624,140.399C179.624,138.637 179.861,137.023 180.334,135.557C180.807,134.092 181.506,132.834 182.433,131.783C183.36,130.732 184.513,129.914 185.894,129.33C187.274,128.746 188.872,128.454 190.686,128.454C191.922,128.454 193.001,128.552 193.922,128.749C194.844,128.945 195.616,129.213 196.239,129.553C196.862,129.893 197.327,130.294 197.636,130.755C197.945,131.217 198.1,131.714 198.1,132.245C198.1,132.627 198.018,132.985 197.854,133.32C197.689,133.654 197.443,133.949 197.115,134.204C196.787,134.458 196.386,134.658 195.913,134.801C195.44,134.944 194.89,135.016 194.263,135.016C194.263,134.358 194.19,133.752 194.045,133.2C193.901,132.648 193.676,132.176 193.372,131.783C193.068,131.39 192.684,131.085 192.221,130.867C191.758,130.649 191.212,130.54 190.585,130.54C189.504,130.54 188.584,130.758 187.827,131.193C187.069,131.629 186.451,132.266 185.973,133.105C185.495,133.944 185.148,134.976 184.931,136.203C184.714,137.429 184.605,138.828 184.605,140.399C184.605,141.971 184.718,143.364 184.945,144.58C185.172,145.796 185.539,146.818 186.046,147.646C186.552,148.474 187.209,149.104 188.015,149.534C188.821,149.964 189.808,150.179 190.976,150.179C191.343,150.179 191.709,150.163 192.076,150.131C192.443,150.099 192.8,150.041 193.148,149.956L193.148,145.162C193.148,144.291 192.969,143.686 192.612,143.346C192.255,143.006 191.729,142.836 191.034,142.836L190.643,142.836L190.643,141.116L199.967,141.116L199.967,142.836L199.577,142.836C199.277,142.836 199.017,142.876 198.795,142.956C198.573,143.035 198.389,143.171 198.244,143.362C198.1,143.553 197.993,143.805 197.926,144.118C197.858,144.432 197.825,144.822 197.825,145.289L197.825,150.641C196.666,151.225 195.498,151.663 194.321,151.955C193.143,152.247 191.878,152.393 190.527,152.393Z" style="fill:white;"/>
                    <path d="M216.803,150.083L222.74,150.083C223.039,150.083 223.295,150.022 223.507,149.9C223.72,149.778 223.903,149.605 224.057,149.382C224.212,149.159 224.335,148.897 224.427,148.594C224.518,148.291 224.588,147.959 224.637,147.598L224.868,146.069L226.924,146.069L226.707,152.074L209.332,152.074L209.332,150.338L210.577,150.338C210.79,150.338 210.987,150.317 211.171,150.274C211.354,150.232 211.516,150.144 211.656,150.011C211.796,149.879 211.905,149.682 211.982,149.422C212.059,149.162 212.098,148.82 212.098,148.395L212.098,132.627C212.098,132.16 212.059,131.788 211.982,131.512C211.905,131.236 211.798,131.024 211.663,130.875C211.528,130.726 211.369,130.628 211.185,130.58C211.002,130.532 210.799,130.509 210.577,130.509L209.332,130.509L209.332,128.788L225.795,128.788L225.911,134.793L223.84,134.793L223.695,133.248C223.618,132.452 223.435,131.841 223.145,131.416C222.856,130.992 222.407,130.779 221.799,130.779L216.803,130.779L216.803,138.934L223.84,138.934L223.84,140.893L216.803,140.893L216.803,150.083Z" style="fill:white;"/>
                    <path d="M245.242,152.074L233.673,134.108L233.673,148.22C233.673,148.687 233.714,149.058 233.796,149.335C233.878,149.611 233.986,149.823 234.122,149.972C234.257,150.12 234.418,150.218 234.607,150.266C234.795,150.314 234.99,150.338 235.193,150.338L236.438,150.338L236.438,152.074L228.692,152.074L228.692,150.338L229.937,150.338C230.149,150.338 230.347,150.314 230.531,150.266C230.714,150.218 230.876,150.12 231.016,149.972C231.156,149.823 231.264,149.611 231.341,149.335C231.419,149.058 231.457,148.687 231.457,148.22L231.457,132.499C231.457,132.064 231.416,131.716 231.334,131.456C231.252,131.196 231.141,130.997 231.001,130.859C230.861,130.721 230.7,130.628 230.516,130.58C230.333,130.532 230.14,130.509 229.937,130.509L228.692,130.509L228.692,128.788L235.28,128.788L245.748,145.066L245.748,132.499C245.748,132.064 245.707,131.716 245.625,131.456C245.543,131.196 245.432,130.997 245.292,130.859C245.152,130.721 244.991,130.628 244.807,130.58C244.624,130.532 244.431,130.509 244.228,130.509L242.983,130.509L242.983,128.788L250.729,128.788L250.729,130.509L249.484,130.509C249.281,130.509 249.088,130.532 248.905,130.58C248.721,130.628 248.56,130.726 248.42,130.875C248.28,131.024 248.171,131.236 248.094,131.512C248.017,131.788 247.978,132.16 247.978,132.627L247.978,152.074L245.242,152.074Z" style="fill:white;"/>
                    <path d="M263.776,152.393C261.942,152.393 260.342,152.106 258.976,151.532C257.61,150.959 256.474,150.147 255.566,149.096C254.659,148.044 253.983,146.781 253.539,145.305C253.095,143.829 252.873,142.194 252.873,140.399C252.873,138.637 253.11,137.023 253.583,135.557C254.056,134.092 254.755,132.834 255.682,131.783C256.609,130.732 257.762,129.914 259.143,129.33C260.523,128.746 262.121,128.454 263.935,128.454C265.171,128.454 266.25,128.552 267.171,128.749C268.093,128.945 268.866,129.213 269.488,129.553C270.111,129.893 270.576,130.294 270.885,130.755C271.194,131.217 271.349,131.714 271.349,132.245C271.349,132.627 271.267,132.985 271.103,133.32C270.938,133.654 270.692,133.949 270.364,134.204C270.036,134.458 269.635,134.658 269.162,134.801C268.689,134.944 268.139,135.016 267.512,135.016C267.512,134.358 267.439,133.752 267.295,133.2C267.15,132.648 266.925,132.176 266.621,131.783C266.317,131.39 265.933,131.085 265.47,130.867C265.007,130.649 264.461,130.54 263.834,130.54C262.753,130.54 261.833,130.758 261.076,131.193C260.318,131.629 259.7,132.266 259.222,133.105C258.744,133.944 258.397,134.976 258.18,136.203C257.963,137.429 257.854,138.828 257.854,140.399C257.854,141.971 257.967,143.364 258.194,144.58C258.421,145.796 258.788,146.818 259.295,147.646C259.801,148.474 260.458,149.104 261.264,149.534C262.07,149.964 263.057,150.179 264.225,150.179C264.592,150.179 264.959,150.163 265.325,150.131C265.692,150.099 266.049,150.041 266.397,149.956L266.397,145.162C266.397,144.291 266.218,143.686 265.861,143.346C265.504,143.006 264.978,142.836 264.283,142.836L263.892,142.836L263.892,141.116L273.217,141.116L273.217,142.836L272.826,142.836C272.526,142.836 272.266,142.876 272.044,142.956C271.822,143.035 271.638,143.171 271.494,143.362C271.349,143.553 271.243,143.805 271.175,144.118C271.107,144.432 271.074,144.822 271.074,145.289L271.074,150.641C269.915,151.225 268.747,151.663 267.57,151.955C266.392,152.247 265.127,152.393 263.776,152.393Z" style="fill:white;"/>
                    <path d="M274.868,152.074L274.868,150.338L276.113,150.338C276.335,150.338 276.538,150.314 276.721,150.266C276.905,150.218 277.064,150.12 277.199,149.972C277.334,149.823 277.441,149.611 277.518,149.335C277.595,149.058 277.634,148.687 277.634,148.22L277.634,132.643C277.634,132.176 277.595,131.804 277.518,131.528C277.441,131.252 277.334,131.039 277.199,130.891C277.064,130.742 276.905,130.644 276.721,130.596C276.538,130.548 276.335,130.524 276.113,130.524L274.868,130.524L274.868,128.788L285.105,128.788L285.105,130.524L283.86,130.524C283.647,130.524 283.447,130.548 283.259,130.596C283.071,130.644 282.909,130.742 282.774,130.891C282.639,131.039 282.532,131.252 282.455,131.528C282.378,131.804 282.339,132.176 282.339,132.643L282.339,148.22C282.339,148.687 282.378,149.058 282.455,149.335C282.532,149.611 282.639,149.823 282.774,149.972C282.909,150.12 283.071,150.218 283.259,150.266C283.447,150.314 283.647,150.338 283.86,150.338L285.105,150.338L285.105,152.074L274.868,152.074Z" style="fill:white;"/>
                    <path d="M303.306,152.074L291.737,134.108L291.737,148.22C291.737,148.687 291.778,149.058 291.861,149.335C291.943,149.611 292.051,149.823 292.186,149.972C292.321,150.12 292.483,150.218 292.671,150.266C292.86,150.314 293.055,150.338 293.258,150.338L294.503,150.338L294.503,152.074L286.757,152.074L286.757,150.338L288.002,150.338C288.214,150.338 288.412,150.314 288.595,150.266C288.779,150.218 288.941,150.12 289.08,149.972C289.22,149.823 289.329,149.611 289.406,149.335C289.483,149.058 289.522,148.687 289.522,148.22L289.522,132.499C289.522,132.064 289.481,131.716 289.399,131.456C289.317,131.196 289.206,130.997 289.066,130.859C288.926,130.721 288.764,130.628 288.581,130.58C288.398,130.532 288.204,130.509 288.002,130.509L286.757,130.509L286.757,128.788L293.345,128.788L303.813,145.066L303.813,132.499C303.813,132.064 303.772,131.716 303.69,131.456C303.608,131.196 303.497,130.997 303.357,130.859C303.217,130.721 303.055,130.628 302.872,130.58C302.689,130.532 302.496,130.509 302.293,130.509L301.048,130.509L301.048,128.788L308.794,128.788L308.794,130.509L307.549,130.509C307.346,130.509 307.153,130.532 306.97,130.58C306.786,130.628 306.625,130.726 306.485,130.875C306.345,131.024 306.236,131.236 306.159,131.512C306.082,131.788 306.043,132.16 306.043,132.627L306.043,152.074L303.306,152.074Z" style="fill:white;"/>
                    <path d="M317.598,150.083L323.535,150.083C323.834,150.083 324.09,150.022 324.302,149.9C324.515,149.778 324.698,149.605 324.853,149.382C325.007,149.159 325.13,148.897 325.222,148.594C325.313,148.291 325.383,147.959 325.432,147.598L325.663,146.069L327.719,146.069L327.502,152.074L310.127,152.074L310.127,150.338L311.372,150.338C311.585,150.338 311.783,150.317 311.966,150.274C312.149,150.232 312.311,150.144 312.451,150.011C312.591,149.879 312.7,149.682 312.777,149.422C312.854,149.162 312.893,148.82 312.893,148.395L312.893,132.627C312.893,132.16 312.854,131.788 312.777,131.512C312.7,131.236 312.593,131.024 312.458,130.875C312.323,130.726 312.164,130.628 311.98,130.58C311.797,130.532 311.594,130.509 311.372,130.509L310.127,130.509L310.127,128.788L326.59,128.788L326.706,134.793L324.635,134.793L324.491,133.248C324.413,132.452 324.23,131.841 323.94,131.416C323.651,130.992 323.202,130.779 322.594,130.779L317.598,130.779L317.598,138.934L324.635,138.934L324.635,140.893L317.598,140.893L317.598,150.083Z" style="fill:white;"/>
                    <path d="M336.958,150.083L342.895,150.083C343.194,150.083 343.45,150.022 343.662,149.9C343.874,149.778 344.058,149.605 344.212,149.382C344.367,149.159 344.49,148.897 344.581,148.594C344.673,148.291 344.743,147.959 344.791,147.598L345.023,146.069L347.079,146.069L346.862,152.074L329.487,152.074L329.487,150.338L330.732,150.338C330.944,150.338 331.142,150.317 331.326,150.274C331.509,150.232 331.671,150.144 331.811,150.011C331.951,149.879 332.059,149.682 332.137,149.422C332.214,149.162 332.252,148.82 332.252,148.395L332.252,132.627C332.252,132.16 332.214,131.788 332.137,131.512C332.059,131.236 331.953,131.024 331.818,130.875C331.683,130.726 331.524,130.628 331.34,130.58C331.157,130.532 330.954,130.509 330.732,130.509L329.487,130.509L329.487,128.788L345.95,128.788L346.066,134.793L343.995,134.793L343.85,133.248C343.773,132.452 343.59,131.841 343.3,131.416C343.01,130.992 342.562,130.779 341.953,130.779L336.958,130.779L336.958,138.934L343.995,138.934L343.995,140.893L336.958,140.893L336.958,150.083Z" style="fill:white;"/>
                    <path d="M348.847,150.338L350.092,150.338C350.295,150.338 350.488,150.317 350.671,150.274C350.854,150.232 351.016,150.144 351.156,150.011C351.296,149.879 351.407,149.682 351.489,149.422C351.571,149.162 351.612,148.82 351.612,148.395L351.612,132.499C351.612,132.064 351.571,131.716 351.489,131.456C351.407,131.196 351.296,130.997 351.156,130.859C351.016,130.721 350.854,130.628 350.671,130.58C350.488,130.532 350.295,130.509 350.092,130.509L348.847,130.509L348.847,128.788L358.403,128.788C361.202,128.788 363.256,129.303 364.564,130.333C365.872,131.363 366.526,132.86 366.526,134.825C366.526,135.685 366.41,136.449 366.178,137.118C365.947,137.787 365.64,138.371 365.259,138.87C364.878,139.369 364.446,139.791 363.963,140.137C363.48,140.482 362.988,140.766 362.486,140.989L366.019,147.678C366.27,148.145 366.514,148.546 366.75,148.881C366.987,149.215 367.223,149.491 367.46,149.709C367.696,149.926 367.94,150.086 368.191,150.187C368.442,150.287 368.707,150.338 368.987,150.338L369.103,150.338L369.103,152.074L368.133,152.074C367.245,152.074 366.47,152.037 365.809,151.963C365.148,151.888 364.569,151.742 364.072,151.525C363.574,151.307 363.145,151.007 362.783,150.625C362.421,150.242 362.085,149.749 361.777,149.143L358.258,141.96L356.289,141.96L356.289,148.395C356.289,148.82 356.33,149.162 356.412,149.422C356.494,149.682 356.605,149.879 356.745,150.011C356.885,150.144 357.047,150.232 357.23,150.274C357.413,150.317 357.607,150.338 357.809,150.338L359.083,150.338L359.083,152.074L348.847,152.074L348.847,150.338ZM356.289,140.065L357.954,140.065C358.639,140.065 359.211,139.964 359.67,139.762C360.128,139.561 360.495,139.261 360.77,138.862C361.045,138.464 361.243,137.965 361.364,137.365C361.485,136.765 361.545,136.067 361.545,135.271C361.545,134.443 361.477,133.742 361.342,133.168C361.207,132.595 360.995,132.125 360.705,131.759C360.416,131.392 360.039,131.127 359.576,130.962C359.112,130.798 358.553,130.716 357.896,130.716L356.289,130.716L356.289,140.065Z" style="fill:white;"/>
                    <path d="M376.822,152.393C375.489,152.393 374.379,152.255 373.491,151.978C372.603,151.702 371.891,151.347 371.356,150.911C370.82,150.476 370.439,149.988 370.212,149.446C369.985,148.904 369.871,148.368 369.871,147.837C369.871,147.275 369.966,146.802 370.154,146.42C370.342,146.038 370.593,145.724 370.907,145.48C371.22,145.236 371.578,145.061 371.978,144.955C372.379,144.848 372.796,144.795 373.231,144.795C373.231,145.73 373.332,146.55 373.535,147.256C373.737,147.962 374.017,148.551 374.375,149.024C374.732,149.496 375.159,149.852 375.656,150.091C376.153,150.33 376.696,150.449 377.285,150.449C377.864,150.449 378.38,150.359 378.834,150.179C379.288,149.998 379.674,149.749 379.992,149.43C380.311,149.112 380.552,148.737 380.716,148.307C380.881,147.877 380.963,147.413 380.963,146.914C380.963,146.361 380.861,145.87 380.659,145.44C380.456,145.01 380.149,144.612 379.739,144.246C379.329,143.879 378.812,143.529 378.19,143.195C377.567,142.86 376.841,142.502 376.011,142.119C374.978,141.652 374.107,141.172 373.397,140.678C372.688,140.184 372.116,139.651 371.681,139.077C371.247,138.504 370.936,137.883 370.747,137.214C370.559,136.545 370.465,135.812 370.465,135.016C370.465,134.018 370.649,133.115 371.015,132.308C371.382,131.501 371.889,130.811 372.536,130.238C373.182,129.664 373.95,129.224 374.838,128.916C375.726,128.608 376.691,128.454 377.734,128.454C378.824,128.454 379.766,128.552 380.557,128.749C381.349,128.945 382.003,129.213 382.519,129.553C383.036,129.893 383.419,130.294 383.67,130.755C383.921,131.217 384.047,131.714 384.047,132.245C384.047,132.627 383.972,132.983 383.822,133.312C383.673,133.641 383.446,133.928 383.142,134.172C382.838,134.416 382.456,134.607 381.998,134.745C381.539,134.883 381.006,134.952 380.398,134.952C380.398,134.496 380.342,134.005 380.231,133.479C380.12,132.953 379.939,132.465 379.688,132.014C379.437,131.562 379.112,131.188 378.711,130.891C378.31,130.593 377.825,130.445 377.256,130.445C376.86,130.445 376.484,130.509 376.127,130.636C375.769,130.763 375.458,130.954 375.193,131.209C374.927,131.464 374.717,131.78 374.563,132.157C374.408,132.534 374.331,132.967 374.331,133.455C374.331,133.912 374.399,134.342 374.534,134.745C374.669,135.149 374.917,135.544 375.279,135.932C375.641,136.319 376.139,136.707 376.771,137.094C377.403,137.482 378.221,137.899 379.225,138.345C380.239,138.801 381.103,139.269 381.817,139.746C382.531,140.224 383.118,140.736 383.576,141.283C384.035,141.83 384.368,142.43 384.575,143.083C384.783,143.736 384.886,144.461 384.886,145.257C384.886,146.308 384.698,147.272 384.322,148.148C383.945,149.024 383.405,149.775 382.7,150.402C381.995,151.028 381.148,151.517 380.159,151.867C379.17,152.217 378.057,152.393 376.822,152.393Z" style="fill:white;"/>
                    <path d="M411.568,152.074L409.527,149.685C409.16,150.088 408.752,150.455 408.303,150.784C407.854,151.113 407.36,151.397 406.819,151.636C406.278,151.875 405.692,152.061 405.06,152.193C404.428,152.326 403.74,152.393 402.997,152.393C401.78,152.393 400.704,152.236 399.768,151.923C398.831,151.609 398.045,151.156 397.407,150.561C396.77,149.966 396.288,149.239 395.96,148.379C395.631,147.519 395.467,146.542 395.467,145.448C395.467,144.493 395.605,143.678 395.88,143.003C396.155,142.329 396.524,141.745 396.988,141.251C397.451,140.758 397.989,140.338 398.602,139.993C399.215,139.648 399.859,139.327 400.535,139.03C400.149,138.52 399.813,138.034 399.529,137.572C399.244,137.11 399.01,136.651 398.826,136.195C398.643,135.738 398.508,135.271 398.421,134.793C398.334,134.315 398.291,133.8 398.291,133.248C398.291,132.526 398.416,131.873 398.667,131.289C398.918,130.705 399.292,130.201 399.789,129.776C400.286,129.351 400.907,129.025 401.65,128.796C402.393,128.568 403.257,128.454 404.242,128.454C405.197,128.454 406.03,128.576 406.739,128.82C407.449,129.064 408.038,129.399 408.506,129.824C408.974,130.248 409.326,130.742 409.563,131.305C409.799,131.868 409.918,132.462 409.918,133.089C409.918,133.747 409.826,134.342 409.642,134.873C409.459,135.404 409.182,135.895 408.81,136.346C408.438,136.797 407.97,137.219 407.405,137.612C406.841,138.005 406.172,138.398 405.4,138.791C405.448,138.876 405.521,138.955 405.617,139.03L409.816,143.887C409.942,143.134 410.024,142.388 410.062,141.65C410.101,140.912 410.12,140.235 410.12,139.619L410.12,138.185L416.607,138.185L416.607,139.906L416.144,139.906C415.816,139.906 415.495,139.927 415.181,139.969C414.867,140.012 414.575,140.11 414.305,140.264C414.035,140.418 413.796,140.641 413.588,140.933C413.381,141.225 413.214,141.62 413.089,142.119C412.934,142.725 412.753,143.37 412.546,144.055C412.338,144.74 412.085,145.432 411.785,146.133L414.739,149.526C415.019,149.855 415.362,150.072 415.767,150.179C416.173,150.285 416.641,150.338 417.172,150.338L417.447,150.338L417.447,152.074L411.568,152.074ZM399.826,145.608C399.826,146.255 399.92,146.858 400.108,147.415C400.296,147.973 400.559,148.459 400.897,148.873C401.235,149.287 401.648,149.613 402.135,149.852C402.622,150.091 403.161,150.211 403.749,150.211C404.802,150.211 405.69,150.022 406.414,149.645C407.138,149.268 407.741,148.761 408.224,148.124L401.882,140.686C401.467,141.015 401.126,141.363 400.861,141.729C400.595,142.096 400.385,142.483 400.231,142.892C400.077,143.301 399.97,143.731 399.912,144.182C399.854,144.633 399.826,145.108 399.826,145.608ZM406.327,133.121C406.327,132.738 406.295,132.383 406.233,132.053C406.17,131.724 406.061,131.438 405.907,131.193C405.752,130.949 405.54,130.758 405.27,130.62C404.999,130.482 404.657,130.413 404.242,130.413C403.914,130.413 403.626,130.482 403.38,130.62C403.134,130.758 402.934,130.949 402.779,131.193C402.625,131.438 402.509,131.727 402.432,132.061C402.355,132.396 402.316,132.76 402.316,133.152C402.316,133.524 402.355,133.88 402.432,134.22C402.509,134.559 402.622,134.896 402.772,135.231C402.922,135.565 403.112,135.903 403.344,136.242C403.576,136.582 403.846,136.943 404.155,137.325C404.57,137.071 404.917,136.8 405.197,136.513C405.477,136.226 405.699,135.916 405.863,135.581C406.027,135.247 406.146,134.878 406.218,134.474C406.291,134.071 406.327,133.62 406.327,133.121Z" style="fill:white;"/>
                    <path d="M443.564,135.701C443.564,136.678 443.409,137.617 443.101,138.52C442.792,139.422 442.29,140.219 441.595,140.909C440.9,141.599 439.997,142.149 438.887,142.557C437.777,142.966 436.421,143.171 434.818,143.171L433.805,143.171L433.805,148.395C433.805,148.82 433.848,149.162 433.935,149.422C434.022,149.682 434.138,149.879 434.283,150.011C434.427,150.144 434.596,150.232 434.789,150.274C434.983,150.317 435.18,150.338 435.383,150.338L437.193,150.338L437.193,152.074L426.363,152.074L426.363,150.338L427.608,150.338C427.83,150.338 428.032,150.314 428.216,150.266C428.399,150.218 428.559,150.12 428.694,149.972C428.829,149.823 428.935,149.611 429.012,149.335C429.089,149.058 429.128,148.687 429.128,148.22L429.128,132.499C429.128,132.064 429.089,131.716 429.012,131.456C428.935,131.196 428.826,130.997 428.686,130.859C428.546,130.721 428.385,130.628 428.201,130.58C428.018,130.532 427.82,130.509 427.608,130.509L426.363,130.509L426.363,128.788L435.47,128.788C436.841,128.788 438.033,128.948 439.046,129.266C440.06,129.585 440.902,130.044 441.573,130.644C442.244,131.244 442.743,131.969 443.072,132.818C443.4,133.667 443.564,134.628 443.564,135.701ZM433.805,141.275L434.529,141.275C435.262,141.275 435.885,141.174 436.397,140.973C436.908,140.771 437.326,140.452 437.649,140.017C437.972,139.582 438.209,139.019 438.359,138.329C438.508,137.639 438.583,136.805 438.583,135.828C438.583,134.958 438.518,134.201 438.388,133.559C438.257,132.916 438.05,132.385 437.765,131.966C437.48,131.546 437.109,131.233 436.65,131.026C436.192,130.819 435.629,130.716 434.963,130.716L433.805,130.716L433.805,141.275Z" style="fill:white;"/>
                    <path d="M445.288,150.338L446.533,150.338C446.736,150.338 446.929,150.317 447.112,150.274C447.296,150.232 447.457,150.144 447.597,150.011C447.737,149.879 447.848,149.682 447.93,149.422C448.012,149.162 448.053,148.82 448.053,148.395L448.053,132.499C448.053,132.064 448.012,131.716 447.93,131.456C447.848,131.196 447.737,130.997 447.597,130.859C447.457,130.721 447.296,130.628 447.112,130.58C446.929,130.532 446.736,130.509 446.533,130.509L445.288,130.509L445.288,128.788L454.844,128.788C457.644,128.788 459.697,129.303 461.005,130.333C462.313,131.363 462.967,132.86 462.967,134.825C462.967,135.685 462.851,136.449 462.62,137.118C462.388,137.787 462.081,138.371 461.7,138.87C461.319,139.369 460.887,139.791 460.404,140.137C459.922,140.482 459.429,140.766 458.927,140.989L462.46,147.678C462.711,148.145 462.955,148.546 463.192,148.881C463.428,149.215 463.665,149.491 463.901,149.709C464.138,149.926 464.381,150.086 464.632,150.187C464.883,150.287 465.149,150.338 465.429,150.338L465.544,150.338L465.544,152.074L464.574,152.074C463.686,152.074 462.912,152.037 462.25,151.963C461.589,151.888 461.01,151.742 460.513,151.525C460.016,151.307 459.586,151.007 459.224,150.625C458.862,150.242 458.527,149.749 458.218,149.143L454.699,141.96L452.73,141.96L452.73,148.395C452.73,148.82 452.771,149.162 452.853,149.422C452.935,149.682 453.046,149.879 453.186,150.011C453.326,150.144 453.488,150.232 453.671,150.274C453.855,150.317 454.048,150.338 454.251,150.338L455.525,150.338L455.525,152.074L445.288,152.074L445.288,150.338ZM452.73,140.065L454.395,140.065C455.081,140.065 455.653,139.964 456.111,139.762C456.57,139.561 456.936,139.261 457.212,138.862C457.487,138.464 457.685,137.965 457.805,137.365C457.926,136.765 457.986,136.067 457.986,135.271C457.986,134.443 457.919,133.742 457.784,133.168C457.648,132.595 457.436,132.125 457.146,131.759C456.857,131.392 456.48,131.127 456.017,130.962C455.554,130.798 454.994,130.716 454.337,130.716L452.73,130.716L452.73,140.065Z" style="fill:white;"/>
                    <path d="M486.54,140.399C486.54,142.194 486.321,143.829 485.882,145.305C485.442,146.781 484.796,148.044 483.941,149.096C483.087,150.147 482.04,150.959 480.799,151.532C479.559,152.106 478.133,152.393 476.521,152.393C474.831,152.393 473.357,152.106 472.097,151.532C470.838,150.959 469.793,150.147 468.962,149.096C468.132,148.044 467.51,146.778 467.095,145.297C466.68,143.816 466.472,142.173 466.472,140.367C466.472,138.562 466.68,136.925 467.095,135.454C467.51,133.983 468.135,132.728 468.97,131.687C469.805,130.647 470.852,129.842 472.112,129.274C473.371,128.706 474.851,128.422 476.55,128.422C478.152,128.422 479.573,128.706 480.814,129.274C482.054,129.842 483.099,130.649 483.949,131.695C484.798,132.741 485.442,133.999 485.882,135.47C486.321,136.94 486.54,138.584 486.54,140.399ZM471.453,140.399C471.453,141.96 471.545,143.351 471.728,144.572C471.911,145.793 472.206,146.826 472.611,147.67C473.017,148.514 473.54,149.159 474.182,149.605C474.824,150.051 475.604,150.274 476.521,150.274C477.447,150.274 478.232,150.051 478.874,149.605C479.515,149.159 480.034,148.514 480.43,147.67C480.826,146.826 481.113,145.793 481.292,144.572C481.47,143.351 481.559,141.96 481.559,140.399C481.559,138.838 481.47,137.447 481.292,136.226C481.113,135.005 480.826,133.973 480.43,133.129C480.034,132.284 479.518,131.642 478.881,131.201C478.244,130.761 477.467,130.54 476.55,130.54C475.623,130.54 474.836,130.761 474.189,131.201C473.543,131.642 473.017,132.284 472.611,133.129C472.206,133.973 471.911,135.005 471.728,136.226C471.545,137.447 471.453,138.838 471.453,140.399Z" style="fill:white;"/>
                    <path d="M498.762,130.509L497.517,130.509C497.304,130.509 497.104,130.532 496.916,130.58C496.727,130.628 496.566,130.726 496.431,130.875C496.295,131.024 496.187,131.236 496.105,131.512C496.023,131.788 495.982,132.16 495.982,132.627L495.982,152.138C495.982,153.125 495.88,154.001 495.678,154.766C495.475,155.53 495.195,156.202 494.838,156.78C494.481,157.359 494.054,157.848 493.556,158.246C493.059,158.644 492.519,158.965 491.935,159.209C491.351,159.454 490.733,159.631 490.081,159.743C489.43,159.854 488.766,159.91 488.091,159.91L487.019,159.91L487.019,158.015L487.555,158.015C488.028,158.015 488.489,157.917 488.938,157.72C489.386,157.524 489.785,157.197 490.132,156.741C490.48,156.284 490.76,155.682 490.972,154.933C491.184,154.184 491.29,153.263 491.29,152.17L491.29,132.499C491.29,132.064 491.252,131.716 491.175,131.456C491.097,131.196 490.989,130.997 490.849,130.859C490.709,130.721 490.547,130.628 490.364,130.58C490.18,130.532 489.987,130.509 489.785,130.509L488.539,130.509L488.539,128.788L498.762,128.788L498.762,130.509Z" style="fill:white;"/>
                    <path d="M507.392,150.083L513.329,150.083C513.628,150.083 513.884,150.022 514.096,149.9C514.309,149.778 514.492,149.605 514.647,149.382C514.801,149.159 514.924,148.897 515.016,148.594C515.107,148.291 515.177,147.959 515.226,147.598L515.457,146.069L517.513,146.069L517.296,152.074L499.921,152.074L499.921,150.338L501.166,150.338C501.379,150.338 501.577,150.317 501.76,150.274C501.943,150.232 502.105,150.144 502.245,150.011C502.385,149.879 502.494,149.682 502.571,149.422C502.648,149.162 502.687,148.82 502.687,148.395L502.687,132.627C502.687,132.16 502.648,131.788 502.571,131.512C502.494,131.236 502.387,131.024 502.252,130.875C502.117,130.726 501.958,130.628 501.774,130.58C501.591,130.532 501.388,130.509 501.166,130.509L499.921,130.509L499.921,128.788L516.384,128.788L516.5,134.793L514.429,134.793L514.285,133.248C514.207,132.452 514.024,131.841 513.734,131.416C513.445,130.992 512.996,130.779 512.388,130.779L507.392,130.779L507.392,138.934L514.429,138.934L514.429,140.893L507.392,140.893L507.392,150.083Z" style="fill:white;"/>
                    <path d="M531.052,149.796C531.776,149.796 532.421,149.703 532.985,149.518C533.55,149.332 534.055,149.09 534.499,148.793C534.943,148.496 535.331,148.161 535.664,147.79C535.997,147.418 536.289,147.052 536.54,146.691C536.695,146.818 536.818,147.014 536.909,147.28C537.001,147.545 537.047,147.816 537.047,148.092C537.047,148.549 536.936,149.029 536.714,149.534C536.492,150.038 536.12,150.503 535.599,150.927C535.078,151.352 534.388,151.702 533.528,151.978C532.669,152.255 531.608,152.393 530.343,152.393C528.625,152.393 527.124,152.106 525.84,151.532C524.556,150.959 523.489,150.147 522.64,149.096C521.791,148.044 521.153,146.781 520.729,145.305C520.304,143.829 520.092,142.194 520.092,140.399C520.092,138.637 520.309,137.023 520.743,135.557C521.178,134.092 521.822,132.834 522.676,131.783C523.53,130.732 524.597,129.914 525.876,129.33C527.155,128.746 528.634,128.454 530.314,128.454C531.453,128.454 532.445,128.552 533.29,128.749C534.134,128.945 534.836,129.213 535.396,129.553C535.956,129.893 536.376,130.294 536.656,130.755C536.936,131.217 537.076,131.714 537.076,132.245C537.076,132.648 536.996,133.022 536.837,133.367C536.678,133.713 536.441,134.013 536.127,134.267C535.814,134.522 535.425,134.721 534.962,134.865C534.499,135.008 533.968,135.08 533.369,135.08C533.369,134.538 533.316,133.999 533.21,133.463C533.104,132.927 532.923,132.441 532.667,132.006C532.411,131.57 532.076,131.217 531.661,130.947C531.246,130.676 530.729,130.54 530.111,130.54C529.175,130.54 528.383,130.758 527.737,131.193C527.09,131.629 526.571,132.266 526.18,133.105C525.789,133.944 525.507,134.976 525.333,136.203C525.159,137.429 525.073,138.828 525.073,140.399C525.073,141.971 525.179,143.346 525.391,144.524C525.603,145.703 525.946,146.683 526.419,147.463C526.892,148.244 527.507,148.828 528.265,149.215C529.023,149.603 529.952,149.796 531.052,149.796Z" style="fill:white;"/>
                    <path d="M550.296,148.22C550.296,148.687 550.335,149.058 550.412,149.335C550.489,149.611 550.598,149.823 550.738,149.972C550.878,150.12 551.04,150.218 551.223,150.266C551.406,150.314 551.604,150.338 551.817,150.338L553.062,150.338L553.062,152.074L542.825,152.074L542.825,150.338L544.07,150.338C544.292,150.338 544.495,150.314 544.678,150.266C544.862,150.218 545.021,150.12 545.156,149.972C545.291,149.823 545.398,149.611 545.475,149.335C545.552,149.058 545.591,148.687 545.591,148.22L545.591,130.779L543.216,130.779C542.772,130.779 542.4,130.832 542.101,130.939C541.802,131.045 541.558,131.196 541.37,131.392C541.182,131.589 541.042,131.83 540.95,132.117C540.858,132.404 540.793,132.728 540.755,133.089L540.552,135.112L538.554,135.112L538.713,128.788L557.189,128.788L557.333,135.112L555.35,135.112L555.132,133.089C555.094,132.728 555.029,132.404 554.937,132.117C554.845,131.83 554.705,131.589 554.517,131.392C554.329,131.196 554.085,131.045 553.786,130.939C553.487,130.832 553.115,130.779 552.671,130.779L550.296,130.779L550.296,148.22Z" style="fill:white;"/>
                    <path d="M566.162,152.074L566.162,150.338L567.407,150.338C567.629,150.338 567.832,150.314 568.015,150.266C568.199,150.218 568.358,150.12 568.493,149.972C568.628,149.823 568.735,149.611 568.812,149.335C568.889,149.058 568.928,148.687 568.928,148.22L568.928,132.627C568.928,132.16 568.889,131.788 568.812,131.512C568.735,131.236 568.628,131.024 568.493,130.875C568.358,130.726 568.199,130.628 568.015,130.58C567.832,130.532 567.629,130.509 567.407,130.509L566.162,130.509L566.162,128.788L576.399,128.788L576.399,130.509L575.154,130.509C574.951,130.509 574.756,130.532 574.567,130.58C574.379,130.628 574.217,130.721 574.082,130.859C573.947,130.997 573.839,131.196 573.757,131.456C573.674,131.716 573.633,132.064 573.633,132.499L573.633,150.083L579.15,150.083C579.845,150.083 580.386,149.842 580.772,149.358C581.158,148.875 581.438,148.172 581.612,147.248L582.089,144.795L583.754,144.795L583.537,152.074L566.162,152.074Z" style="fill:white;"/>
                    <path d="M593.022,150.083L598.959,150.083C599.258,150.083 599.514,150.022 599.726,149.9C599.938,149.778 600.122,149.605 600.276,149.382C600.431,149.159 600.554,148.897 600.646,148.594C600.737,148.291 600.807,147.959 600.855,147.598L601.087,146.069L603.143,146.069L602.926,152.074L585.551,152.074L585.551,150.338L586.796,150.338C587.008,150.338 587.206,150.317 587.39,150.274C587.573,150.232 587.735,150.144 587.875,150.011C588.015,149.879 588.123,149.682 588.201,149.422C588.278,149.162 588.316,148.82 588.316,148.395L588.316,132.627C588.316,132.16 588.278,131.788 588.201,131.512C588.123,131.236 588.017,131.024 587.882,130.875C587.747,130.726 587.588,130.628 587.404,130.58C587.221,130.532 587.018,130.509 586.796,130.509L585.551,130.509L585.551,128.788L602.014,128.788L602.13,134.793L600.059,134.793L599.914,133.248C599.837,132.452 599.654,131.841 599.364,131.416C599.075,130.992 598.626,130.779 598.018,130.779L593.022,130.779L593.022,138.934L600.059,138.934L600.059,140.893L593.022,140.893L593.022,150.083Z" style="fill:white;"/>
                    <path d="M610.543,144.413L609.689,147.216C609.612,147.482 609.532,147.792 609.45,148.148C609.368,148.504 609.327,148.814 609.327,149.08C609.327,149.292 609.365,149.478 609.443,149.637C609.52,149.796 609.621,149.926 609.747,150.027C609.872,150.128 610.015,150.205 610.174,150.258C610.333,150.311 610.5,150.338 610.673,150.338L611.919,150.338L611.919,152.074L604.201,152.074L604.201,150.338L604.563,150.338C604.824,150.338 605.063,150.306 605.28,150.242C605.497,150.179 605.7,150.059 605.888,149.884C606.076,149.709 606.255,149.467 606.424,149.159C606.593,148.851 606.764,148.453 606.938,147.965L613.367,128.788L617.435,128.788L623.632,147.997C623.777,148.453 623.929,148.833 624.088,149.135C624.248,149.438 624.421,149.677 624.61,149.852C624.798,150.027 624.998,150.152 625.211,150.226C625.423,150.301 625.645,150.338 625.877,150.338L626.412,150.338L626.412,152.074L616.624,152.074L616.624,150.338L617.783,150.338C617.927,150.338 618.077,150.314 618.232,150.266C618.386,150.218 618.524,150.144 618.644,150.043C618.765,149.942 618.864,149.812 618.941,149.653C619.018,149.494 619.057,149.303 619.057,149.08C619.057,148.814 619.028,148.559 618.97,148.315C618.912,148.071 618.854,147.859 618.796,147.678L617.754,144.413L610.543,144.413ZM615.596,137.071C615.49,136.699 615.382,136.309 615.271,135.9C615.16,135.491 615.049,135.074 614.938,134.65C614.827,134.225 614.72,133.803 614.619,133.383C614.518,132.964 614.428,132.563 614.351,132.181C614.264,132.51 614.163,132.871 614.047,133.264C613.931,133.657 613.808,134.06 613.678,134.474C613.548,134.889 613.417,135.303 613.287,135.717C613.157,136.131 613.033,136.529 612.918,136.911L611.166,142.422L617.16,142.422L615.596,137.071Z" style="fill:white;"/>
                    <path d="M647.524,140.001C647.524,141.785 647.302,143.418 646.858,144.899C646.414,146.38 645.75,147.652 644.867,148.713C643.984,149.775 642.888,150.601 641.58,151.19C640.272,151.779 638.754,152.074 637.027,152.074L627.239,152.074L627.239,150.338L628.484,150.338C628.706,150.338 628.909,150.314 629.092,150.266C629.275,150.218 629.435,150.12 629.57,149.972C629.705,149.823 629.811,149.611 629.888,149.335C629.966,149.058 630.004,148.687 630.004,148.22L630.004,132.499C630.004,132.064 629.966,131.716 629.888,131.456C629.811,131.196 629.703,130.997 629.563,130.859C629.423,130.721 629.261,130.628 629.077,130.58C628.894,130.532 628.696,130.509 628.484,130.509L627.239,130.509L627.239,128.788L637.027,128.788C638.668,128.788 640.137,129.025 641.436,129.497C642.734,129.97 643.834,130.676 644.737,131.615C645.639,132.555 646.33,133.726 646.807,135.127C647.285,136.529 647.524,138.154 647.524,140.001ZM642.514,140.001C642.514,136.89 641.995,134.575 640.958,133.057C639.92,131.538 638.392,130.779 636.375,130.779L634.681,130.779L634.681,150.051L636.346,150.051C637.36,150.051 638.253,149.82 639.025,149.358C639.797,148.897 640.441,148.23 640.958,147.36C641.474,146.489 641.863,145.435 642.123,144.198C642.384,142.961 642.514,141.562 642.514,140.001Z" style="fill:white;"/>
                    <path d="M657.458,150.083L663.394,150.083C663.694,150.083 663.949,150.022 664.162,149.9C664.374,149.778 664.558,149.605 664.712,149.382C664.866,149.159 664.989,148.897 665.081,148.594C665.173,148.291 665.243,147.959 665.291,147.598L665.523,146.069L667.579,146.069L667.362,152.074L649.987,152.074L649.987,150.338L651.232,150.338C651.444,150.338 651.642,150.317 651.825,150.274C652.009,150.232 652.17,150.144 652.31,150.011C652.45,149.879 652.559,149.682 652.636,149.422C652.713,149.162 652.752,148.82 652.752,148.395L652.752,132.627C652.752,132.16 652.713,131.788 652.636,131.512C652.559,131.236 652.453,131.024 652.318,130.875C652.183,130.726 652.023,130.628 651.84,130.58C651.656,130.532 651.454,130.509 651.232,130.509L649.987,130.509L649.987,128.788L666.449,128.788L666.565,134.793L664.495,134.793L664.35,133.248C664.273,132.452 664.089,131.841 663.8,131.416C663.51,130.992 663.061,130.779 662.453,130.779L657.458,130.779L657.458,138.934L664.495,138.934L664.495,140.893L657.458,140.893L657.458,150.083Z" style="fill:white;"/>
                    <path d="M669.346,150.338L670.591,150.338C670.794,150.338 670.987,150.317 671.171,150.274C671.354,150.232 671.516,150.144 671.656,150.011C671.796,149.879 671.907,149.682 671.989,149.422C672.071,149.162 672.112,148.82 672.112,148.395L672.112,132.499C672.112,132.064 672.071,131.716 671.989,131.456C671.907,131.196 671.796,130.997 671.656,130.859C671.516,130.721 671.354,130.628 671.171,130.58C670.987,130.532 670.794,130.509 670.591,130.509L669.346,130.509L669.346,128.788L678.903,128.788C681.702,128.788 683.756,129.303 685.064,130.333C686.372,131.363 687.025,132.86 687.025,134.825C687.025,135.685 686.91,136.449 686.678,137.118C686.446,137.787 686.14,138.371 685.759,138.87C685.377,139.369 684.945,139.791 684.463,140.137C683.98,140.482 683.488,140.766 682.986,140.989L686.519,147.678C686.77,148.145 687.013,148.546 687.25,148.881C687.486,149.215 687.723,149.491 687.959,149.709C688.196,149.926 688.44,150.086 688.691,150.187C688.942,150.287 689.207,150.338 689.487,150.338L689.603,150.338L689.603,152.074L688.633,152.074C687.745,152.074 686.97,152.037 686.309,151.963C685.648,151.888 685.068,151.742 684.571,151.525C684.074,151.307 683.645,151.007 683.283,150.625C682.921,150.242 682.585,149.749 682.276,149.143L678.758,141.96L676.789,141.96L676.789,148.395C676.789,148.82 676.83,149.162 676.912,149.422C676.994,149.682 677.105,149.879 677.245,150.011C677.385,150.144 677.546,150.232 677.73,150.274C677.913,150.317 678.106,150.338 678.309,150.338L679.583,150.338L679.583,152.074L669.346,152.074L669.346,150.338ZM676.789,140.065L678.454,140.065C679.139,140.065 679.711,139.964 680.17,139.762C680.628,139.561 680.995,139.261 681.27,138.862C681.545,138.464 681.743,137.965 681.864,137.365C681.984,136.765 682.045,136.067 682.045,135.271C682.045,134.443 681.977,133.742 681.842,133.168C681.707,132.595 681.494,132.125 681.205,131.759C680.915,131.392 680.539,131.127 680.075,130.962C679.612,130.798 679.052,130.716 678.396,130.716L676.789,130.716L676.789,140.065Z" style="fill:white;"/>
                    <path d="M697.321,152.393C695.989,152.393 694.879,152.255 693.991,151.978C693.103,151.702 692.391,151.347 691.855,150.911C691.32,150.476 690.938,149.988 690.711,149.446C690.485,148.904 690.371,148.368 690.371,147.837C690.371,147.275 690.465,146.802 690.653,146.42C690.842,146.038 691.093,145.724 691.406,145.48C691.72,145.236 692.077,145.061 692.478,144.955C692.878,144.848 693.296,144.795 693.73,144.795C693.73,145.73 693.832,146.55 694.034,147.256C694.237,147.962 694.517,148.551 694.874,149.024C695.231,149.496 695.659,149.852 696.156,150.091C696.653,150.33 697.196,150.449 697.785,150.449C698.364,150.449 698.88,150.359 699.334,150.179C699.788,149.998 700.174,149.749 700.492,149.43C700.811,149.112 701.052,148.737 701.216,148.307C701.38,147.877 701.462,147.413 701.462,146.914C701.462,146.361 701.361,145.87 701.158,145.44C700.956,145.01 700.649,144.612 700.239,144.246C699.829,143.879 699.312,143.529 698.69,143.195C698.067,142.86 697.341,142.502 696.51,142.119C695.478,141.652 694.606,141.172 693.897,140.678C693.187,140.184 692.615,139.651 692.181,139.077C691.747,138.504 691.435,137.883 691.247,137.214C691.059,136.545 690.965,135.812 690.965,135.016C690.965,134.018 691.148,133.115 691.515,132.308C691.882,131.501 692.389,130.811 693.035,130.238C693.682,129.664 694.449,129.224 695.338,128.916C696.226,128.608 697.191,128.454 698.233,128.454C699.324,128.454 700.265,128.552 701.057,128.749C701.848,128.945 702.502,129.213 703.019,129.553C703.535,129.893 703.919,130.294 704.17,130.755C704.421,131.217 704.546,131.714 704.546,132.245C704.546,132.627 704.472,132.983 704.322,133.312C704.172,133.641 703.945,133.928 703.641,134.172C703.337,134.416 702.956,134.607 702.498,134.745C702.039,134.883 701.506,134.952 700.898,134.952C700.898,134.496 700.842,134.005 700.731,133.479C700.62,132.953 700.439,132.465 700.188,132.014C699.937,131.562 699.611,131.188 699.211,130.891C698.81,130.593 698.325,130.445 697.756,130.445C697.36,130.445 696.983,130.509 696.626,130.636C696.269,130.763 695.958,130.954 695.692,131.209C695.427,131.464 695.217,131.78 695.062,132.157C694.908,132.534 694.831,132.967 694.831,133.455C694.831,133.912 694.898,134.342 695.033,134.745C695.169,135.149 695.417,135.544 695.779,135.932C696.141,136.319 696.638,136.707 697.271,137.094C697.903,137.482 698.721,137.899 699.725,138.345C700.738,138.801 701.602,139.269 702.317,139.746C703.031,140.224 703.617,140.736 704.076,141.283C704.534,141.83 704.867,142.43 705.075,143.083C705.282,143.736 705.386,144.461 705.386,145.257C705.386,146.308 705.198,147.272 704.821,148.148C704.445,149.024 703.904,149.775 703.2,150.402C702.495,151.028 701.648,151.517 700.659,151.867C699.669,152.217 698.557,152.393 697.321,152.393Z" style="fill:white;"/>
                </g>
                <g transform="matrix(1.00435,0,0,1.00435,-1.33426,15.0789)">
                    <path d="M26.563,67.618L26.563,86.172C26.563,89.753 26.782,92.007 27.222,92.935C27.661,93.863 28.434,94.603 29.541,95.157C30.648,95.71 32.715,95.987 35.742,95.987L35.742,97.793L1.855,97.793L1.855,95.987C4.915,95.987 6.991,95.702 8.081,95.132C9.172,94.563 9.937,93.822 10.376,92.911C10.815,91.999 11.035,89.753 11.035,86.172L11.035,43.204C11.035,39.623 10.815,37.369 10.376,36.441C9.937,35.513 9.163,34.773 8.057,34.219C6.95,33.666 4.883,33.389 1.855,33.389L1.855,31.583L32.617,31.583C40.625,31.583 46.484,32.136 50.195,33.243C53.906,34.349 56.934,36.392 59.277,39.371C61.621,42.349 62.793,45.84 62.793,49.844C62.793,54.727 61.035,58.764 57.52,61.954C55.273,63.972 52.132,65.486 48.096,66.495L64.014,88.907C66.097,91.804 67.578,93.611 68.457,94.327C69.792,95.336 71.338,95.889 73.096,95.987L73.096,97.793L52.246,97.793L30.908,67.618L26.563,67.618ZM26.563,35.147L26.563,64.151L29.346,64.151C33.87,64.151 37.256,63.736 39.502,62.906C41.748,62.076 43.514,60.578 44.8,58.414C46.086,56.249 46.729,53.425 46.729,49.942C46.729,44.896 45.549,41.169 43.188,38.76C40.828,36.351 37.028,35.147 31.787,35.147L26.563,35.147Z" style="fill:white;"/>
                    <path d="M86.567,30.02C88.683,30.02 90.473,30.761 91.938,32.242C93.403,33.723 94.135,35.505 94.135,37.588C94.135,39.672 93.395,41.446 91.914,42.911C90.433,44.376 88.65,45.108 86.567,45.108C84.484,45.108 82.71,44.376 81.245,42.911C79.78,41.446 79.048,39.672 79.048,37.588C79.048,35.505 79.78,33.723 81.245,32.242C82.71,30.761 84.484,30.02 86.567,30.02ZM93.403,52.139L93.403,88.321C93.403,91.543 93.777,93.602 94.526,94.498C95.275,95.393 96.74,95.905 98.921,96.036L98.921,97.793L74.262,97.793L74.262,96.036C76.281,95.971 77.778,95.385 78.755,94.278C79.406,93.529 79.731,91.543 79.731,88.321L79.731,61.661C79.731,58.438 79.357,56.379 78.608,55.484C77.859,54.589 76.411,54.076 74.262,53.946L74.262,52.139L93.403,52.139Z" style="fill:white;"/>
                    <path d="M140.615,86.026L142.128,87.198C139.98,91.234 137.302,94.237 134.096,96.207C130.89,98.176 127.48,99.161 123.867,99.161C117.779,99.161 112.913,96.866 109.267,92.276C105.621,87.686 103.798,82.168 103.798,75.723C103.798,69.506 105.458,64.037 108.779,59.317C112.783,53.62 118.3,50.772 125.331,50.772C130.051,50.772 133.803,51.96 136.586,54.336C139.369,56.713 140.761,59.366 140.761,62.295C140.761,64.151 140.2,65.632 139.077,66.739C137.953,67.846 136.48,68.399 134.658,68.399C132.737,68.399 131.15,67.764 129.897,66.495C128.644,65.225 127.87,62.963 127.577,59.708C127.382,57.657 126.91,56.224 126.161,55.411C125.413,54.597 124.534,54.19 123.525,54.19C121.962,54.19 120.628,55.02 119.521,56.68C117.828,59.187 116.982,63.028 116.982,68.204C116.982,72.501 117.665,76.61 119.033,80.533C120.4,84.455 122.271,87.377 124.648,89.297C126.438,90.697 128.554,91.397 130.995,91.397C132.59,91.397 134.104,91.023 135.536,90.274C136.969,89.525 138.661,88.109 140.615,86.026Z" style="fill:white;"/>
                    <path d="M166.391,31.583L166.391,57.999C168.897,55.362 171.192,53.498 173.275,52.408C175.359,51.317 177.523,50.772 179.77,50.772C182.634,50.772 185.084,51.586 187.118,53.213C189.153,54.841 190.504,56.753 191.171,58.951C191.838,61.148 192.172,64.851 192.172,70.059L192.172,87.881C192.172,91.364 192.497,93.537 193.148,94.4C193.799,95.263 195.118,95.808 197.104,96.036L197.104,97.793L173.959,97.793L173.959,96.036C175.587,95.808 176.807,95.157 177.621,94.083C178.207,93.236 178.5,91.169 178.5,87.881L178.5,67.52C178.5,63.744 178.354,61.376 178.061,60.416C177.768,59.455 177.271,58.707 176.571,58.169C175.871,57.632 175.082,57.364 174.203,57.364C172.901,57.364 171.632,57.811 170.395,58.707C169.158,59.602 167.823,61.172 166.391,63.418L166.391,87.881C166.391,91.137 166.635,93.171 167.123,93.985C167.742,95.092 169.011,95.775 170.932,96.036L170.932,97.793L147.787,97.793L147.787,96.036C149.708,95.84 151.075,95.222 151.889,94.18C152.442,93.464 152.719,91.364 152.719,87.881L152.719,41.495C152.719,38.044 152.401,35.896 151.767,35.049C151.132,34.203 149.805,33.65 147.787,33.389L147.787,31.583L166.391,31.583Z" style="fill:white;"/>
                    <path d="M222.294,52.139L222.294,58.145C224.8,55.411 227.119,53.498 229.252,52.408C231.384,51.317 233.719,50.772 236.258,50.772C239.188,50.772 241.646,51.456 243.632,52.823C245.617,54.19 247.147,56.273 248.221,59.073C250.826,56.143 253.324,54.027 255.716,52.725C258.109,51.423 260.607,50.772 263.212,50.772C266.369,50.772 268.884,51.496 270.756,52.945C272.627,54.393 273.929,56.233 274.662,58.462C275.394,60.692 275.76,64.249 275.76,69.131L275.76,87.833C275.76,91.348 276.078,93.529 276.713,94.376C277.347,95.222 278.674,95.775 280.692,96.036L280.692,97.793L257.108,97.793L257.108,96.036C258.964,95.873 260.331,95.157 261.21,93.887C261.796,93.008 262.089,90.99 262.089,87.833L262.089,68.204C262.089,64.135 261.926,61.547 261.6,60.44C261.275,59.333 260.762,58.511 260.062,57.974C259.362,57.437 258.54,57.168 257.596,57.168C256.197,57.168 254.781,57.681 253.348,58.707C251.916,59.732 250.467,61.27 249.003,63.321L249.003,87.833C249.003,91.12 249.279,93.187 249.833,94.034C250.581,95.238 252.014,95.905 254.13,96.036L254.13,97.793L230.497,97.793L230.497,96.036C231.766,95.971 232.767,95.653 233.5,95.084C234.232,94.514 234.72,93.83 234.965,93.033C235.209,92.235 235.331,90.502 235.331,87.833L235.331,68.204C235.331,64.07 235.168,61.482 234.842,60.44C234.517,59.398 233.972,58.585 233.207,57.999C232.442,57.413 231.62,57.12 230.741,57.12C229.439,57.12 228.251,57.461 227.176,58.145C225.646,59.154 224.019,60.879 222.294,63.321L222.294,87.833C222.294,91.055 222.611,93.179 223.246,94.205C223.881,95.23 225.207,95.84 227.225,96.036L227.225,97.793L203.69,97.793L203.69,96.036C205.611,95.84 206.978,95.222 207.792,94.18C208.345,93.464 208.622,91.348 208.622,87.833L208.622,62.051C208.622,58.601 208.304,56.452 207.67,55.606C207.035,54.76 205.708,54.206 203.69,53.946L203.69,52.139L222.294,52.139Z" style="fill:white;"/>
                    <path d="M308.177,50.772C312.148,50.772 315.843,51.797 319.261,53.848C322.679,55.899 325.275,58.812 327.049,62.588C328.823,66.364 329.71,70.499 329.71,74.991C329.71,81.469 328.066,86.889 324.779,91.251C320.807,96.524 315.322,99.161 308.324,99.161C301.455,99.161 296.165,96.752 292.454,91.934C288.743,87.116 286.888,81.534 286.888,75.186C286.888,68.643 288.784,62.938 292.577,58.072C296.369,53.205 301.569,50.772 308.177,50.772ZM308.372,54.239C306.712,54.239 305.288,54.865 304.1,56.119C302.912,57.372 302.131,59.846 301.756,63.541C301.382,67.235 301.195,72.37 301.195,78.946C301.195,82.429 301.423,85.684 301.878,88.711C302.236,91.023 303.001,92.78 304.173,93.985C305.345,95.189 306.68,95.792 308.177,95.792C309.642,95.792 310.863,95.385 311.839,94.571C313.109,93.464 313.955,91.918 314.378,89.932C315.029,86.84 315.355,80.59 315.355,71.182C315.355,65.648 315.046,61.848 314.427,59.781C313.809,57.714 312.897,56.208 311.693,55.264C310.846,54.581 309.74,54.239 308.372,54.239Z" style="fill:white;"/>
                    <path d="M355.291,52.139L355.291,58.047C357.635,55.508 359.881,53.661 362.029,52.505C364.178,51.35 366.489,50.772 368.963,50.772C371.925,50.772 374.383,51.594 376.336,53.238C378.289,54.882 379.591,56.924 380.242,59.366C380.763,61.221 381.023,64.786 381.023,70.059L381.023,87.833C381.023,91.348 381.341,93.537 381.976,94.4C382.61,95.263 383.937,95.808 385.955,96.036L385.955,97.793L362.859,97.793L362.859,96.036C364.585,95.808 365.822,95.092 366.57,93.887C367.091,93.073 367.352,91.055 367.352,87.833L367.352,67.52C367.352,63.777 367.205,61.417 366.912,60.44C366.619,59.463 366.123,58.707 365.423,58.169C364.723,57.632 363.95,57.364 363.104,57.364C360.304,57.364 357.7,59.366 355.291,63.37L355.291,87.833C355.291,91.251 355.608,93.415 356.243,94.327C356.878,95.238 358.058,95.808 359.783,96.036L359.783,97.793L336.688,97.793L336.688,96.036C338.608,95.84 339.975,95.222 340.789,94.18C341.342,93.464 341.619,91.348 341.619,87.833L341.619,62.051C341.619,58.601 341.302,56.452 340.667,55.606C340.032,54.76 338.706,54.206 336.688,53.946L336.688,52.139L355.291,52.139Z" style="fill:white;"/>
                    <path d="M436.633,31.583L436.633,84.122C436.633,87.67 436.731,89.769 436.926,90.42C437.187,91.495 437.683,92.292 438.416,92.813C439.148,93.334 440.426,93.659 442.249,93.79L442.249,95.401L422.962,99.161L422.962,91.934C420.65,94.734 418.591,96.638 416.785,97.647C414.978,98.656 412.936,99.161 410.657,99.161C404.83,99.161 400.224,96.557 396.839,91.348C394.104,87.116 392.737,81.924 392.737,75.772C392.737,70.857 393.583,66.454 395.276,62.564C396.969,58.674 399.288,55.736 402.234,53.751C405.18,51.765 408.346,50.772 411.731,50.772C413.912,50.772 415.849,51.195 417.542,52.042C419.234,52.888 421.041,54.369 422.962,56.485L422.962,42.715C422.962,39.232 422.815,37.133 422.522,36.417C422.132,35.473 421.546,34.773 420.764,34.317C419.983,33.861 418.518,33.633 416.37,33.633L416.37,31.583L436.633,31.583ZM422.962,62.54C420.553,57.917 417.607,55.606 414.124,55.606C412.919,55.606 411.926,55.932 411.145,56.583C409.941,57.592 408.956,59.366 408.191,61.905C407.426,64.444 407.044,68.334 407.044,73.575C407.044,79.336 407.467,83.601 408.313,86.368C409.16,89.135 410.315,91.137 411.78,92.374C412.529,92.992 413.554,93.301 414.856,93.301C417.721,93.301 420.423,91.055 422.962,86.563L422.962,62.54Z" style="fill:white;"/>
                    <path d="M477.143,89.188L477.143,58.731L446.748,58.731L446.748,53.726L477.143,53.726L477.143,23.392L482.026,23.392L482.026,53.726L512.544,53.726L512.544,58.731L482.026,58.731L482.026,89.188L477.143,89.188Z" style="fill:rgb(255,0,0);"/>
                    <path d="M541.541,67.618L541.541,86.172C541.541,89.753 541.761,92.007 542.2,92.935C542.64,93.863 543.413,94.603 544.52,95.157C545.626,95.71 547.694,95.987 550.721,95.987L550.721,97.793L516.834,97.793L516.834,95.987C519.894,95.987 521.969,95.702 523.06,95.132C524.15,94.563 524.915,93.822 525.355,92.911C525.794,91.999 526.014,89.753 526.014,86.172L526.014,43.204C526.014,39.623 525.794,37.369 525.355,36.441C524.915,35.513 524.142,34.773 523.035,34.219C521.929,33.666 519.862,33.389 516.834,33.389L516.834,31.583L547.596,31.583C555.604,31.583 561.463,32.136 565.174,33.243C568.885,34.349 571.912,36.392 574.256,39.371C576.6,42.349 577.772,45.84 577.772,49.844C577.772,54.727 576.014,58.764 572.498,61.954C570.252,63.972 567.111,65.486 563.074,66.495L578.992,88.907C581.076,91.804 582.557,93.611 583.436,94.327C584.77,95.336 586.317,95.889 588.074,95.987L588.074,97.793L567.225,97.793L545.887,67.618L541.541,67.618ZM541.541,35.147L541.541,64.151L544.324,64.151C548.849,64.151 552.235,63.736 554.481,62.906C556.727,62.076 558.493,60.578 559.778,58.414C561.064,56.249 561.707,53.425 561.707,49.942C561.707,44.896 560.527,41.169 558.167,38.76C555.807,36.351 552.007,35.147 546.766,35.147L541.541,35.147Z" style="fill:white;"/>
                    <path d="M612.093,50.772C616.064,50.772 619.759,51.797 623.177,53.848C626.595,55.899 629.191,58.812 630.965,62.588C632.739,66.364 633.626,70.499 633.626,74.991C633.626,81.469 631.982,86.889 628.694,91.251C624.723,96.524 619.238,99.161 612.239,99.161C605.371,99.161 600.081,96.752 596.37,91.934C592.659,87.116 590.804,81.534 590.804,75.186C590.804,68.643 592.7,62.938 596.492,58.072C600.284,53.205 605.485,50.772 612.093,50.772ZM612.288,54.239C610.628,54.239 609.204,54.865 608.015,56.119C606.827,57.372 606.046,59.846 605.672,63.541C605.297,67.235 605.11,72.37 605.11,78.946C605.11,82.429 605.338,85.684 605.794,88.711C606.152,91.023 606.917,92.78 608.089,93.985C609.261,95.189 610.595,95.792 612.093,95.792C613.557,95.792 614.778,95.385 615.755,94.571C617.024,93.464 617.871,91.918 618.294,89.932C618.945,86.84 619.27,80.59 619.27,71.182C619.27,65.648 618.961,61.848 618.343,59.781C617.724,57.714 616.813,56.208 615.608,55.264C614.762,54.581 613.655,54.239 612.288,54.239Z" style="fill:white;"/>
                    <path d="M669.412,50.87L670.144,66.446L668.484,66.446C666.498,61.823 664.439,58.666 662.307,56.973C660.175,55.28 658.051,54.434 655.935,54.434C654.6,54.434 653.461,54.882 652.517,55.777C651.573,56.672 651.101,57.706 651.101,58.877C651.101,59.756 651.427,60.603 652.078,61.417C653.119,62.751 656.033,65.038 660.818,68.277C665.603,71.516 668.752,74.266 670.266,76.529C671.78,78.791 672.537,81.322 672.537,84.122C672.537,86.661 671.902,89.151 670.632,91.592C669.363,94.034 667.572,95.905 665.261,97.208C662.95,98.51 660.395,99.161 657.595,99.161C655.414,99.161 652.501,98.477 648.855,97.11C647.878,96.752 647.211,96.573 646.853,96.573C645.779,96.573 644.884,97.387 644.167,99.014L642.556,99.014L641.775,82.608L643.435,82.608C644.9,86.905 646.91,90.127 649.465,92.276C652.021,94.424 654.438,95.499 656.716,95.499C658.279,95.499 659.556,95.018 660.549,94.058C661.542,93.098 662.039,91.934 662.039,90.567C662.039,89.004 661.55,87.654 660.574,86.514C659.597,85.375 657.416,83.65 654.031,81.338C649.05,77.888 645.828,75.251 644.363,73.428C642.214,70.759 641.14,67.813 641.14,64.59C641.14,61.075 642.353,57.893 644.778,55.044C647.203,52.196 650.71,50.772 655.3,50.772C657.774,50.772 660.167,51.374 662.478,52.579C663.357,53.067 664.073,53.311 664.626,53.311C665.212,53.311 665.684,53.189 666.042,52.945C666.401,52.701 666.97,52.009 667.751,50.87L669.412,50.87Z" style="fill:white;"/>
                    <path d="M708.322,50.87L709.055,66.446L707.395,66.446C705.409,61.823 703.35,58.666 701.218,56.973C699.086,55.28 696.962,54.434 694.846,54.434C693.511,54.434 692.372,54.882 691.428,55.777C690.484,56.672 690.012,57.706 690.012,58.877C690.012,59.756 690.337,60.603 690.988,61.417C692.03,62.751 694.944,65.038 699.729,68.277C704.514,71.516 707.663,74.266 709.177,76.529C710.691,78.791 711.447,81.322 711.447,84.122C711.447,86.661 710.813,89.151 709.543,91.592C708.274,94.034 706.483,95.905 704.172,97.208C701.861,98.51 699.306,99.161 696.506,99.161C694.325,99.161 691.412,98.477 687.766,97.11C686.789,96.752 686.122,96.573 685.764,96.573C684.69,96.573 683.794,97.387 683.078,99.014L681.467,99.014L680.686,82.608L682.346,82.608C683.811,86.905 685.821,90.127 688.376,92.276C690.931,94.424 693.348,95.499 695.627,95.499C697.19,95.499 698.467,95.018 699.46,94.058C700.453,93.098 700.949,91.934 700.949,90.567C700.949,89.004 700.461,87.654 699.485,86.514C698.508,85.375 696.327,83.65 692.942,81.338C687.961,77.888 684.738,75.251 683.274,73.428C681.125,70.759 680.051,67.813 680.051,64.59C680.051,61.075 681.264,57.893 683.689,55.044C686.114,52.196 689.621,50.772 694.211,50.772C696.685,50.772 699.078,51.374 701.389,52.579C702.268,53.067 702.984,53.311 703.537,53.311C704.123,53.311 704.595,53.189 704.953,52.945C705.311,52.701 705.881,52.009 706.662,50.87L708.322,50.87Z" style="fill:white;"/>
                </g>
            </g>
        </g>
    </g>
    <g id="Layer-11" serif:id="Layer 1">
    </g>
</svg>
