<?xml version="1.0" encoding="UTF-8" standalone="no"?>
<!DOCTYPE svg PUBLIC "-//W3C//DTD SVG 1.1//EN" "http://www.w3.org/Graphics/SVG/1.1/DTD/svg11.dtd">
<svg width="100%" height="100%" viewBox="0 0 928 602" version="1.1" xmlns="http://www.w3.org/2000/svg" xmlns:xlink="http://www.w3.org/1999/xlink" xml:space="preserve" xmlns:serif="http://www.serif.com/" style="fill-rule:evenodd;clip-rule:evenodd;stroke-linejoin:round;stroke-miterlimit:2;">
    <path d="M880.11,554.34L880.11,47.18L373,47.18L373,142.41L326.27,142.41L326.27,0L927.55,0L927.55,601.49L326.25,601.49L326.25,459.49L373.06,459.49L373.06,554.3L880.11,554.34Z" style="fill-rule:nonzero;"/>
    <g>
        <path d="M326.25,181.12C327.86,181.03 329.32,180.87 330.77,180.87C355.27,180.87 379.77,180.79 404.27,180.87C428.77,180.95 446.42,192.4 453.7,213.2C458.17,225.99 458.91,239.27 457.5,252.63C456.985,257.918 455.98,263.147 454.5,268.25C450.2,282.58 441.57,293.2 426.77,298.2C427.31,298.89 427.52,299.46 427.88,299.58C444.52,305.13 453.74,317.26 457.2,333.83C461.2,352.83 460.32,371.63 452.95,389.72C445.26,408.59 430.69,419.6 410.57,420.37C382.64,421.45 354.63,420.65 326.26,420.65L326.25,181.12ZM373.17,381.86L389.9,381.86C400.49,381.81 406,378 409,367.91C412.195,357.014 412.354,345.45 409.46,334.47C407.83,328.09 404.68,322.02 397.82,320.75C389.82,319.26 381.56,319.42 373.2,318.85L373.17,381.86ZM373.17,280.61C378.49,280.61 383.28,280.67 388.07,280.61C399.62,280.46 406.95,275.28 408.77,263.88C410.085,254.891 410.347,245.78 409.55,236.73C408.99,229.48 405.75,221.86 397.85,220.4C389.95,218.94 381.53,220.08 373.17,220.08L373.17,280.61Z" style="fill-rule:nonzero;"/>
        <path d="M214,220.66L214,420.47L166.48,420.47L166.48,181.13C168.09,181.04 169.84,180.87 171.58,180.87C193.41,180.87 215.24,180.61 237.06,180.94C255.06,181.21 271.76,185.47 284.34,199.58C294.16,210.58 298.34,224.05 299.61,238.36C301.02,254.83 300.78,271.28 295.14,287.19C291.31,298.01 285.34,307.19 275.49,313.41C272.94,315.01 272.88,316.51 273.66,319.13C283.353,351.923 292.967,384.737 302.5,417.57C302.73,418.35 302.88,419.15 303.17,420.38L253.92,420.38L220.29,290C224.85,290 228.6,290.05 232.35,290C241.16,289.84 246.87,285 249.43,277.09C254.1,262.64 254.37,247.94 249.21,233.51C245.99,224.51 240.08,220.72 230.56,220.65C225.26,220.63 220,220.66 214,220.66Z" style="fill-rule:nonzero;"/>
        <path d="M0,181.12L47.91,181.12L47.91,356.18C47.818,359.668 48.109,363.156 48.78,366.58C51.34,377.99 59.41,383.58 71.51,382.8C81.43,382.12 88.06,375.08 89.21,363.9C89.389,361.905 89.462,359.902 89.43,357.9L89.43,181.17L134.56,181.17C134.826,182.196 135,183.243 135.08,184.3C135.08,244.11 135.35,303.93 134.87,363.74C134.62,393.9 114.66,416.74 84.99,422.63C68.2,425.95 51.5,425.44 35.33,419.55C15.08,412.19 4.33,396.92 1.03,376.1C0.296,370.997 -0.038,365.845 0.03,360.69C-0.03,302.897 -0.04,245.087 0,187.26L0,181.12Z" style="fill-rule:nonzero;"/>
        <path d="M685,245.33L642.81,245.33C641.94,240.96 641.27,235.69 639.81,230.65C637.81,223.75 634.56,217.5 626.65,215.77C613.08,212.77 602.72,223.83 605.48,238.07C607.11,246.47 612,252.99 617.77,258.81C631.02,272.17 644.71,285.11 657.91,298.53C670.77,311.61 681.71,326.14 685.34,344.61C690.59,371.36 685.34,395.05 662.68,412.49C650.59,421.8 636.25,424.95 621.31,424.57C598.82,423.99 580.17,415.73 568.31,395.57C561.06,383.27 558.15,369.73 557.31,354.68L601.15,354.68C603.06,361.34 604.4,368.58 607.15,375.19C610.86,383.93 619.34,387.29 628.21,384.87C633.92,383.31 637.3,379.41 638.96,374.05C642.49,362.7 640.56,352.05 632.74,343.21C623.8,333.14 614.15,323.68 604.63,314.13C592.89,302.35 580.33,291.36 571.63,276.86C556.85,252.24 557.31,221.05 573.14,199.66C579.733,190.76 588.965,184.159 599.52,180.8C613.305,176.061 628.176,175.435 642.31,179C665.31,184.83 676.9,201.26 681.85,223.25C683.37,230 683.87,237 685,245.33Z" style="fill-rule:nonzero;"/>
        <rect x="486.28" y="181.3" width="47.47" height="239.08" style="fill-rule:nonzero;"/>
    </g>
</svg>
