<?xml version="1.0" encoding="UTF-8" standalone="no"?>
<!DOCTYPE svg PUBLIC "-//W3C//DTD SVG 1.1//EN" "http://www.w3.org/Graphics/SVG/1.1/DTD/svg11.dtd">
<svg width="100%" height="100%" viewBox="0 0 1050 900" version="1.1" xmlns="http://www.w3.org/2000/svg" xmlns:xlink="http://www.w3.org/1999/xlink" xml:space="preserve" xmlns:serif="http://www.serif.com/" style="fill-rule:evenodd;clip-rule:evenodd;stroke-linejoin:round;stroke-miterlimit:2;">
    <g transform="matrix(37.5,0,0,37.5,-75,-150)">
        <g>
            <path d="M16,16.8L29.8,7.6C29.2,5.5 27.3,4 25,4L7,4C4.7,4 2.8,5.5 2.2,7.6L16,16.8Z" style="fill:white;fill-rule:nonzero;"/>
        </g>
        <g>
            <path d="M16.6,18.8C16.4,18.9 16.2,19 16,19C15.8,19 15.6,18.9 15.4,18.8L2,9.9L2,23C2,25.8 4.2,28 7,28L25,28C27.8,28 30,25.8 30,23L30,9.9L16.6,18.8Z" style="fill:white;fill-rule:nonzero;"/>
        </g>
    </g>
</svg>
