<?xml version="1.0" encoding="UTF-8" standalone="no"?>
<!DOCTYPE svg PUBLIC "-//W3C//DTD SVG 1.1//EN" "http://www.w3.org/Graphics/SVG/1.1/DTD/svg11.dtd">
<svg width="100%" height="100%" viewBox="0 0 438 350" version="1.1" xmlns="http://www.w3.org/2000/svg" xmlns:xlink="http://www.w3.org/1999/xlink" xml:space="preserve" xmlns:serif="http://www.serif.com/" style="fill-rule:evenodd;clip-rule:evenodd;stroke-linejoin:round;stroke-miterlimit:2;">
    <g transform="matrix(0.546875,0,0,0.546875,-43.75,437.5)">
        <path d="M140,-160C124,-160 110,-166 98,-178C86,-190 80,-204 80,-220L80,-740C80,-756 86,-770 98,-782C110,-794 124,-800 140,-800L820,-800C836,-800 850,-794 862,-782C874,-770 880,-756 880,-740L880,-220C880,-204 874,-190 862,-178C850,-166 836,-160 820,-160L140,-160ZM480,-462L140,-685L140,-220L820,-220L820,-685L480,-462ZM480,-522L816,-740L145,-740L480,-522ZM140,-220L140,-740L140,-220Z" style="fill:white;fill-rule:nonzero;"/>
    </g>
</svg>
