<?xml version="1.0" encoding="UTF-8" standalone="no"?>
<!DOCTYPE svg PUBLIC "-//W3C//DTD SVG 1.1//EN" "http://www.w3.org/Graphics/SVG/1.1/DTD/svg11.dtd">
<svg width="100%" height="100%" viewBox="0 0 408 350" version="1.1" xmlns="http://www.w3.org/2000/svg" xmlns:xlink="http://www.w3.org/1999/xlink" xml:space="preserve" xmlns:serif="http://www.serif.com/" style="fill-rule:evenodd;clip-rule:evenodd;stroke-linejoin:round;stroke-miterlimit:2;">
    <g transform="matrix(0.486111,0,0,0.486111,-29.4907,408.333)">
        <path d="M240,-522L200,-500C190.667,-494.667 180.667,-493.333 170,-496C159.333,-498.667 151.333,-504.667 146,-514L66,-654C60.667,-663.333 59.333,-673.333 62,-684C64.667,-694.667 70.667,-702.667 80,-708L310,-840L380,-840C386,-840 390.833,-838.167 394.5,-834.5C398.167,-830.833 400,-826 400,-820L400,-800C400,-778 407.833,-759.167 423.5,-743.5C439.167,-727.833 458,-720 480,-720C502,-720 520.833,-727.833 536.5,-743.5C552.167,-759.167 560,-778 560,-800L560,-820C560,-826 561.833,-830.833 565.5,-834.5C569.167,-838.167 574,-840 580,-840L650,-840L880,-708C889.333,-702.667 895.333,-694.667 898,-684C900.667,-673.333 899.333,-663.333 894,-654L814,-514C808.667,-504.667 800.833,-498.833 790.5,-496.5C780.167,-494.167 770,-495.667 760,-501L720,-521L720,-160C720,-148.667 716.167,-139.167 708.5,-131.5C700.833,-123.833 691.333,-120 680,-120L280,-120C268.667,-120 259.167,-123.833 251.5,-131.5C243.833,-139.167 240,-148.667 240,-160L240,-522ZM320,-656L320,-200L640,-200L640,-656L764,-588L806,-658L634,-758C624,-724 605.167,-695.833 577.5,-673.5C549.833,-651.167 517.333,-640 480,-640C442.667,-640 410.167,-651.167 382.5,-673.5C354.833,-695.833 336,-724 326,-758L154,-658L196,-588L320,-656Z" style="fill:white;fill-rule:nonzero;"/>
    </g>
</svg>
