<?xml version="1.0" encoding="UTF-8" standalone="no"?>
<!DOCTYPE svg PUBLIC "-//W3C//DTD SVG 1.1//EN" "http://www.w3.org/Graphics/SVG/1.1/DTD/svg11.dtd">
<svg width="100%" height="100%" viewBox="0 0 664 664" version="1.1" xmlns="http://www.w3.org/2000/svg" xmlns:xlink="http://www.w3.org/1999/xlink" xml:space="preserve" xmlns:serif="http://www.serif.com/" style="fill-rule:evenodd;clip-rule:evenodd;stroke-linejoin:round;stroke-miterlimit:2;">
    <path d="M383.7,354.16L351.57,354.16L351.57,385.55L383.7,385.55C389.98,385.55 392.93,382.55 392.93,376.32L392.93,362.65C392.93,357.11 390,354.16 383.7,354.16Z" style="fill:rgb(196,78,78);fill-rule:nonzero;"/>
    <path d="M332,0C148.64,0 0,148.64 0,332C0,515.36 148.64,664 332,664C515.36,664 664,515.36 664,332C664,148.64 515.36,0 332,0ZM464.94,387.39C464.94,422.84 449.43,447.22 404.01,447.22L351.57,447.22L351.57,474.54C351.57,480.447 348.617,483.403 342.71,483.41L320.55,483.41C314.637,483.41 311.683,480.453 311.69,474.54L311.69,447.22L208.29,447.22C202.38,447.22 199.06,443.89 199.06,437.22L199.06,395.52C199.06,388.87 202.38,385.52 208.29,385.52L311.69,385.52L311.69,354.16L259.62,354.16C217.52,354.16 199.06,334.22 199.06,295.44L199.06,274.76C199.06,239.31 214.57,214.94 259.99,214.94L311.69,214.94L311.69,189.45C311.69,183.55 314.643,180.597 320.55,180.59L342.71,180.59C348.623,180.59 351.577,183.543 351.57,189.45L351.57,214.94L446.85,214.94C452.757,214.94 455.71,218.273 455.71,224.94L455.71,266.67C455.71,273.337 452.757,276.67 446.85,276.67L351.57,276.67L351.57,302.89L404.38,302.89C446.85,302.89 464.94,323.2 464.94,361.97L464.94,387.39Z" style="fill:rgb(196,78,78);fill-rule:nonzero;"/>
    <clipPath id="_clip1">
        <path d="M332,0C148.64,0 0,148.64 0,332C0,515.36 148.64,664 332,664C515.36,664 664,515.36 664,332C664,148.64 515.36,0 332,0ZM464.94,387.39C464.94,422.84 449.43,447.22 404.01,447.22L351.57,447.22L351.57,474.54C351.57,480.447 348.617,483.403 342.71,483.41L320.55,483.41C314.637,483.41 311.683,480.453 311.69,474.54L311.69,447.22L208.29,447.22C202.38,447.22 199.06,443.89 199.06,437.22L199.06,395.52C199.06,388.87 202.38,385.52 208.29,385.52L311.69,385.52L311.69,354.16L259.62,354.16C217.52,354.16 199.06,334.22 199.06,295.44L199.06,274.76C199.06,239.31 214.57,214.94 259.99,214.94L311.69,214.94L311.69,189.45C311.69,183.55 314.643,180.597 320.55,180.59L342.71,180.59C348.623,180.59 351.577,183.543 351.57,189.45L351.57,214.94L446.85,214.94C452.757,214.94 455.71,218.273 455.71,224.94L455.71,266.67C455.71,273.337 452.757,276.67 446.85,276.67L351.57,276.67L351.57,302.89L404.38,302.89C446.85,302.89 464.94,323.2 464.94,361.97L464.94,387.39Z" clip-rule="nonzero"/>
    </clipPath>
    <g clip-path="url(#_clip1)">
        <g transform="matrix(0.666778,-1.15489,1.10383,0.641441,207.648,397.198)">
            <ellipse cx="131" cy="80" rx="311" ry="306" style="fill:url(#_Radial2);"/>
        </g>
    </g>
    <path d="M271.07,285.84L271.07,294.7C271.07,300.24 274.02,302.83 280.67,302.83L311.67,302.83L311.67,276.61L280.67,276.61C274,276.61 271.07,279.56 271.07,285.84Z" style="fill:rgb(196,78,78);fill-rule:nonzero;"/>
    <circle cx="332" cy="332" r="274.17" style="fill:white;"/>
    <path d="M271.07,285.84L271.07,294.7C271.07,300.24 274.02,302.83 280.67,302.83L311.67,302.83L311.67,276.61L280.67,276.61C274,276.61 271.07,279.56 271.07,285.84Z" style="fill:rgb(142,48,48);fill-rule:nonzero;"/>
    <clipPath id="_clip3">
        <path d="M271.07,285.84L271.07,294.7C271.07,300.24 274.02,302.83 280.67,302.83L311.67,302.83L311.67,276.61L280.67,276.61C274,276.61 271.07,279.56 271.07,285.84Z" clip-rule="nonzero"/>
    </clipPath>
    <g clip-path="url(#_clip3)">
        <g transform="matrix(-1.0599,0.611935,-0.582975,-1.01633,577.787,298.365)">
            <ellipse cx="131" cy="80" rx="311" ry="306" style="fill:url(#_Radial4);"/>
        </g>
    </g>
    <path d="M383.7,354.16L351.57,354.16L351.57,385.55L383.7,385.55C389.98,385.55 392.93,382.55 392.93,376.32L392.93,362.65C392.93,357.11 390,354.16 383.7,354.16Z" style="fill:rgb(142,48,48);fill-rule:nonzero;"/>
    <clipPath id="_clip5">
        <path d="M383.7,354.16L351.57,354.16L351.57,385.55L383.7,385.55C389.98,385.55 392.93,382.55 392.93,376.32L392.93,362.65C392.93,357.11 390,354.16 383.7,354.16Z" clip-rule="nonzero"/>
    </clipPath>
    <g clip-path="url(#_clip5)">
        <g transform="matrix(-1.0599,0.611935,-0.582975,-1.01633,577.787,298.365)">
            <ellipse cx="131" cy="80" rx="311" ry="306" style="fill:url(#_Radial6);"/>
        </g>
    </g>
    <path d="M607.33,215.44C591.637,179.08 570.343,147.45 543.45,120.55C516.557,93.65 484.927,72.357 448.56,56.67C412.187,40.977 373.333,33.13 332,33.13C291.147,33.13 252.543,40.977 216.19,56.67C180.696,71.776 148.372,93.45 120.92,120.55C93.78,147.45 72.363,179.08 56.67,215.44C40.977,251.8 33.13,290.653 33.13,332C33.13,372.853 40.977,411.457 56.67,447.81C87.142,519.627 144.373,576.858 216.19,607.33C252.55,623.023 291.153,630.87 332,630.87C373.333,630.87 412.187,623.023 448.56,607.33C484.933,591.637 516.563,570.22 543.45,543.08C570.55,515.628 592.224,483.304 607.33,447.81C623.023,411.45 630.87,372.847 630.87,332C630.87,290.667 623.023,251.813 607.33,215.44ZM464.94,387.44C464.94,422.89 449.43,447.27 404.01,447.27L351.57,447.27L351.57,474.59C351.57,480.497 348.617,483.453 342.71,483.46L320.55,483.46C314.637,483.46 311.683,480.503 311.69,474.59L311.69,447.22L208.29,447.22C202.38,447.22 199.06,443.89 199.06,437.22L199.06,395.52C199.06,388.87 202.38,385.52 208.29,385.52L311.69,385.52L311.69,354.16L259.62,354.16C217.52,354.16 199.06,334.22 199.06,295.44L199.06,274.76C199.06,239.31 214.57,214.94 259.99,214.94L311.69,214.94L311.69,189.45C311.69,183.55 314.643,180.597 320.55,180.59L342.71,180.59C348.623,180.59 351.577,183.543 351.57,189.45L351.57,214.94L446.85,214.94C452.757,214.94 455.71,218.273 455.71,224.94L455.71,266.67C455.71,273.337 452.757,276.67 446.85,276.67L351.57,276.67L351.57,302.89L404.38,302.89C446.85,302.89 464.94,323.2 464.94,361.97L464.94,387.44Z" style="fill:rgb(142,48,48);fill-rule:nonzero;"/>
    <clipPath id="_clip7">
        <path d="M607.33,215.44C591.637,179.08 570.343,147.45 543.45,120.55C516.557,93.65 484.927,72.357 448.56,56.67C412.187,40.977 373.333,33.13 332,33.13C291.147,33.13 252.543,40.977 216.19,56.67C180.696,71.776 148.372,93.45 120.92,120.55C93.78,147.45 72.363,179.08 56.67,215.44C40.977,251.8 33.13,290.653 33.13,332C33.13,372.853 40.977,411.457 56.67,447.81C87.142,519.627 144.373,576.858 216.19,607.33C252.55,623.023 291.153,630.87 332,630.87C373.333,630.87 412.187,623.023 448.56,607.33C484.933,591.637 516.563,570.22 543.45,543.08C570.55,515.628 592.224,483.304 607.33,447.81C623.023,411.45 630.87,372.847 630.87,332C630.87,290.667 623.023,251.813 607.33,215.44ZM464.94,387.44C464.94,422.89 449.43,447.27 404.01,447.27L351.57,447.27L351.57,474.59C351.57,480.497 348.617,483.453 342.71,483.46L320.55,483.46C314.637,483.46 311.683,480.503 311.69,474.59L311.69,447.22L208.29,447.22C202.38,447.22 199.06,443.89 199.06,437.22L199.06,395.52C199.06,388.87 202.38,385.52 208.29,385.52L311.69,385.52L311.69,354.16L259.62,354.16C217.52,354.16 199.06,334.22 199.06,295.44L199.06,274.76C199.06,239.31 214.57,214.94 259.99,214.94L311.69,214.94L311.69,189.45C311.69,183.55 314.643,180.597 320.55,180.59L342.71,180.59C348.623,180.59 351.577,183.543 351.57,189.45L351.57,214.94L446.85,214.94C452.757,214.94 455.71,218.273 455.71,224.94L455.71,266.67C455.71,273.337 452.757,276.67 446.85,276.67L351.57,276.67L351.57,302.89L404.38,302.89C446.85,302.89 464.94,323.2 464.94,361.97L464.94,387.44Z" clip-rule="nonzero"/>
    </clipPath>
    <g clip-path="url(#_clip7)">
        <g transform="matrix(-1.0599,0.611935,-0.582975,-1.01633,577.787,298.365)">
            <ellipse cx="131" cy="80" rx="311" ry="306" style="fill:url(#_Radial8);"/>
        </g>
    </g>
    <defs>
        <radialGradient id="_Radial2" cx="0" cy="0" r="1" gradientUnits="userSpaceOnUse" gradientTransform="matrix(622,0,0,612,-180,80)"><stop offset="0" style="stop-color:rgb(219,138,255);stop-opacity:1"/><stop offset="1" style="stop-color:rgb(58,0,120);stop-opacity:1"/></radialGradient>
        <radialGradient id="_Radial4" cx="0" cy="0" r="1" gradientUnits="userSpaceOnUse" gradientTransform="matrix(622,0,0,612,-180,80)"><stop offset="0" style="stop-color:rgb(219,138,255);stop-opacity:1"/><stop offset="1" style="stop-color:rgb(58,0,120);stop-opacity:1"/></radialGradient>
        <radialGradient id="_Radial6" cx="0" cy="0" r="1" gradientUnits="userSpaceOnUse" gradientTransform="matrix(622,0,0,612,-180,80)"><stop offset="0" style="stop-color:rgb(219,138,255);stop-opacity:1"/><stop offset="1" style="stop-color:rgb(58,0,120);stop-opacity:1"/></radialGradient>
        <radialGradient id="_Radial8" cx="0" cy="0" r="1" gradientUnits="userSpaceOnUse" gradientTransform="matrix(622,0,0,612,-180,80)"><stop offset="0" style="stop-color:rgb(219,138,255);stop-opacity:1"/><stop offset="1" style="stop-color:rgb(58,0,120);stop-opacity:1"/></radialGradient>
    </defs>
</svg>
