<?xml version="1.0" encoding="UTF-8" standalone="no"?>
<!DOCTYPE svg PUBLIC "-//W3C//DTD SVG 1.1//EN" "http://www.w3.org/Graphics/SVG/1.1/DTD/svg11.dtd">
<svg width="100%" height="100%" viewBox="0 0 664 664" version="1.1" xmlns="http://www.w3.org/2000/svg" xmlns:xlink="http://www.w3.org/1999/xlink" xml:space="preserve" xmlns:serif="http://www.serif.com/" style="fill-rule:evenodd;clip-rule:evenodd;stroke-linejoin:round;stroke-miterlimit:2;">
    <path d="M383.7,354.16L351.57,354.16L351.57,385.55L383.7,385.55C389.98,385.55 392.93,382.55 392.93,376.32L392.93,362.65C392.93,357.11 390,354.16 383.7,354.16Z" style="fill:white;fill-rule:nonzero;"/>
    <path d="M332,0C148.64,0 0,148.64 0,332C0,515.36 148.64,664 332,664C515.36,664 664,515.36 664,332C664,148.64 515.36,0 332,0ZM464.94,387.39C464.94,422.84 449.43,447.22 404.01,447.22L351.57,447.22L351.57,474.54C351.57,480.447 348.617,483.403 342.71,483.41L320.55,483.41C314.637,483.41 311.683,480.453 311.69,474.54L311.69,447.22L208.29,447.22C202.38,447.22 199.06,443.89 199.06,437.22L199.06,395.52C199.06,388.87 202.38,385.52 208.29,385.52L311.69,385.52L311.69,354.16L259.62,354.16C217.52,354.16 199.06,334.22 199.06,295.44L199.06,274.76C199.06,239.31 214.57,214.94 259.99,214.94L311.69,214.94L311.69,189.45C311.69,183.55 314.643,180.597 320.55,180.59L342.71,180.59C348.623,180.59 351.577,183.543 351.57,189.45L351.57,214.94L446.85,214.94C452.757,214.94 455.71,218.273 455.71,224.94L455.71,266.67C455.71,273.337 452.757,276.67 446.85,276.67L351.57,276.67L351.57,302.89L404.38,302.89C446.85,302.89 464.94,323.2 464.94,361.97L464.94,387.39Z" style="fill:white;fill-rule:nonzero;"/>
    <path d="M271.07,285.84L271.07,294.7C271.07,300.24 274.02,302.83 280.67,302.83L311.67,302.83L311.67,276.61L280.67,276.61C274,276.61 271.07,279.56 271.07,285.84Z" style="fill:white;fill-rule:nonzero;"/>
</svg>
